%
M48
METRIC,000.000
T01C0.50
%
T01
X024646Y017527
X024646Y018527
X024646Y019527
X024646Y020527
X024646Y021527
X024646Y022527
X026793Y023046
X026793Y022046
X026793Y021046
X026793Y020046
X026793Y019046
X026793Y018046
X040979Y037968
X039979Y037968
X038979Y037968
X037979Y037968
X036979Y037968
X035979Y037968
X035544Y040669
X036544Y040669
X037544Y040669
X038544Y040669
X039544Y040669
X040544Y040669
X024646Y055527
X024646Y056527
X024646Y057527
X024646Y058527
X024646Y059527
X024646Y060527
X026793Y061046
X026793Y060046
X026793Y059046
X026793Y058046
X026793Y057046
X026793Y056046
X015979Y037968
X014979Y037968
X013979Y037968
X012979Y037968
X011979Y037968
X010979Y037968
X010544Y040669
X011544Y040669
X012544Y040669
X013544Y040669
X014544Y040669
X015544Y040669
X049646Y017527
X049646Y018527
X049646Y019527
X049646Y020527
X049646Y021527
X049646Y022527
X051794Y023046
X051794Y022046
X051794Y021046
X051794Y020046
X051794Y019046
X051794Y018046
X074646Y017527
X074646Y018527
X074646Y019527
X074646Y020527
X074646Y021527
X074646Y022527
X076794Y023046
X076794Y022046
X076794Y021046
X076794Y020046
X076794Y019046
X076794Y018046
X090979Y037968
X089979Y037968
X088979Y037968
X087979Y037968
X086979Y037968
X085979Y037968
X085544Y040669
X086544Y040669
X087544Y040669
X088544Y040669
X089544Y040669
X090544Y040669
X074646Y055527
X074646Y056527
X074646Y057527
X074646Y058527
X074646Y059527
X074646Y060527
X076794Y061046
X076794Y060046
X076794Y059046
X076794Y058046
X076794Y057046
X076794Y056046
X065979Y037968
X064979Y037968
X063979Y037968
X062979Y037968
X061979Y037968
X060979Y037968
X060544Y040669
X061544Y040669
X062544Y040669
X063544Y040669
X064544Y040669
X065544Y040669
X049646Y055527
X049646Y056527
X049646Y057527
X049646Y058527
X049646Y059527
X049646Y060527
X051794Y061046
X051794Y060046
X051794Y059046
X051794Y058046
X051794Y057046
X051794Y056046
M30