%MOIN*%
%OFA0B0*%
%FSLAX46Y46*%
%IPPOS*%
%LPD*%
%ADD10C,0.0039370078740157488*%
%ADD11R,0.03937007874015748X0.029527559055118113*%
%ADD12R,0.043307086614173235X0.07874015748031496*%
%ADD13R,0.035433070866141732X0.062992125984251982*%
%ADD14R,0.051181102362204731X0.086614173228346469*%
%ADD15R,0.035433070866141732X0.086614173228346469*%
%ADD16R,0.086614173228346469X0.035433070866141732*%
%ADD17R,0.051181102362204731X0.082677165354330714*%
%ADD18R,0.055118110236220472X0.047244094488188976*%
%ADD19R,0.035433070866141732X0.051181102362204731*%
%ADD20C,0.055118110236220472*%
%ADD21C,0.054648031496062996*%
%ADD22C,0.054548031496063*%
%ADD23R,0.047244094488188976X0.0452755905511811*%
%ADD24R,0.0452755905511811X0.047244094488188976*%
%ADD35C,0.0039370078740157488*%
%ADD36R,0.03937007874015748X0.029527559055118113*%
%ADD37R,0.043307086614173235X0.07874015748031496*%
%ADD38R,0.035433070866141732X0.062992125984251982*%
%ADD39R,0.051181102362204731X0.086614173228346469*%
%ADD40R,0.035433070866141732X0.086614173228346469*%
%ADD41R,0.086614173228346469X0.035433070866141732*%
%ADD42R,0.051181102362204731X0.082677165354330714*%
%ADD43R,0.055118110236220472X0.047244094488188976*%
%ADD44R,0.035433070866141732X0.051181102362204731*%
%ADD45C,0.055118110236220472*%
%ADD46C,0.054648031496062996*%
%ADD47C,0.054548031496063*%
%ADD48R,0.047244094488188976X0.0452755905511811*%
%ADD49R,0.0452755905511811X0.047244094488188976*%
%ADD60C,0.0039370078740157488*%
%ADD61R,0.03937007874015748X0.029527559055118113*%
%ADD62R,0.043307086614173235X0.07874015748031496*%
%ADD63R,0.035433070866141732X0.062992125984251982*%
%ADD64R,0.051181102362204731X0.086614173228346469*%
%ADD65R,0.035433070866141732X0.086614173228346469*%
%ADD66R,0.086614173228346469X0.035433070866141732*%
%ADD67R,0.051181102362204731X0.082677165354330714*%
%ADD68R,0.055118110236220472X0.047244094488188976*%
%ADD69R,0.035433070866141732X0.051181102362204731*%
%ADD70C,0.055118110236220472*%
%ADD71C,0.054648031496062996*%
%ADD72C,0.054548031496063*%
%ADD73R,0.047244094488188976X0.0452755905511811*%
%ADD74R,0.0452755905511811X0.047244094488188976*%
%ADD85C,0.0039370078740157488*%
%ADD86R,0.03937007874015748X0.029527559055118113*%
%ADD87R,0.043307086614173235X0.07874015748031496*%
%ADD88R,0.035433070866141732X0.062992125984251982*%
%ADD89R,0.051181102362204731X0.086614173228346469*%
%ADD90R,0.035433070866141732X0.086614173228346469*%
%ADD91R,0.086614173228346469X0.035433070866141732*%
%ADD92R,0.051181102362204731X0.082677165354330714*%
%ADD93R,0.055118110236220472X0.047244094488188976*%
%ADD94R,0.035433070866141732X0.051181102362204731*%
%ADD95C,0.055118110236220472*%
%ADD96C,0.054648031496062996*%
%ADD97C,0.054548031496063*%
%ADD98R,0.047244094488188976X0.0452755905511811*%
%ADD99R,0.0452755905511811X0.047244094488188976*%
%ADD110C,0.0039370078740157488*%
%ADD111R,0.03937007874015748X0.029527559055118113*%
%ADD112R,0.043307086614173235X0.07874015748031496*%
%ADD113R,0.035433070866141732X0.062992125984251982*%
%ADD114R,0.051181102362204731X0.086614173228346469*%
%ADD115R,0.035433070866141732X0.086614173228346469*%
%ADD116R,0.086614173228346469X0.035433070866141732*%
%ADD117R,0.051181102362204731X0.082677165354330714*%
%ADD118R,0.055118110236220472X0.047244094488188976*%
%ADD119R,0.035433070866141732X0.051181102362204731*%
%ADD120C,0.055118110236220472*%
%ADD121C,0.054648031496062996*%
%ADD122C,0.054548031496063*%
%ADD123R,0.047244094488188976X0.0452755905511811*%
%ADD124R,0.0452755905511811X0.047244094488188976*%
%ADD135C,0.0039370078740157488*%
%ADD136R,0.03937007874015748X0.029527559055118113*%
%ADD137R,0.043307086614173235X0.07874015748031496*%
%ADD138R,0.035433070866141732X0.062992125984251982*%
%ADD139R,0.051181102362204731X0.086614173228346469*%
%ADD140R,0.035433070866141732X0.086614173228346469*%
%ADD141R,0.086614173228346469X0.035433070866141732*%
%ADD142R,0.051181102362204731X0.082677165354330714*%
%ADD143R,0.055118110236220472X0.047244094488188976*%
%ADD144R,0.035433070866141732X0.051181102362204731*%
%ADD145C,0.055118110236220472*%
%ADD146C,0.054648031496062996*%
%ADD147C,0.054548031496063*%
%ADD148R,0.047244094488188976X0.0452755905511811*%
%ADD149R,0.0452755905511811X0.047244094488188976*%
%ADD160C,0.0039370078740157488*%
%ADD161R,0.03937007874015748X0.029527559055118113*%
%ADD162R,0.043307086614173235X0.07874015748031496*%
%ADD163R,0.035433070866141732X0.062992125984251982*%
%ADD164R,0.051181102362204731X0.086614173228346469*%
%ADD165R,0.035433070866141732X0.086614173228346469*%
%ADD166R,0.086614173228346469X0.035433070866141732*%
%ADD167R,0.051181102362204731X0.082677165354330714*%
%ADD168R,0.055118110236220472X0.047244094488188976*%
%ADD169R,0.035433070866141732X0.051181102362204731*%
%ADD170C,0.055118110236220472*%
%ADD171C,0.054648031496062996*%
%ADD172C,0.054548031496063*%
%ADD173R,0.047244094488188976X0.0452755905511811*%
%ADD174R,0.0452755905511811X0.047244094488188976*%
%ADD185C,0.0039370078740157488*%
%ADD186R,0.03937007874015748X0.029527559055118113*%
%ADD187R,0.043307086614173235X0.07874015748031496*%
%ADD188R,0.035433070866141732X0.062992125984251982*%
%ADD189R,0.051181102362204731X0.086614173228346469*%
%ADD190R,0.035433070866141732X0.086614173228346469*%
%ADD191R,0.086614173228346469X0.035433070866141732*%
%ADD192R,0.051181102362204731X0.082677165354330714*%
%ADD193R,0.055118110236220472X0.047244094488188976*%
%ADD194R,0.035433070866141732X0.051181102362204731*%
%ADD195C,0.055118110236220472*%
%ADD196C,0.054648031496062996*%
%ADD197C,0.054548031496063*%
%ADD198R,0.047244094488188976X0.0452755905511811*%
%ADD199R,0.0452755905511811X0.047244094488188976*%
%LPD*%
G01*
D10*
D11*
X-0003779527Y0005314959D02*
X0000221102Y0001265273D03*
X0000221102Y0001304645D03*
X0000299842Y0001265273D03*
D12*
X0000260471Y0001284960D03*
D11*
X0000299842Y0001304645D03*
D13*
X0000653306Y0000893385D03*
X0000708425Y0000893385D03*
D14*
X0000730077Y0000979999D03*
D15*
X0000694645Y0000979999D03*
X0000667086Y0000979999D03*
X0000639527Y0000979999D03*
X0000611968Y0000979999D03*
X0000584409Y0000979999D03*
X0000556850Y0000979999D03*
X0000529291Y0000979999D03*
X0000501731Y0000979999D03*
X0000474173Y0000979999D03*
X0000446614Y0000979999D03*
X0000419054Y0000979999D03*
X0000391496Y0000979999D03*
X0000363937Y0000979999D03*
X0000336376Y0000979999D03*
D16*
X0000277322Y0000960314D03*
X0000277322Y0000932755D03*
X0000277322Y0000905195D03*
X0000277322Y0000877637D03*
X0000277322Y0000850078D03*
X0000277322Y0000822519D03*
X0000277322Y0000794960D03*
X0000277322Y0000767400D03*
X0000277322Y0000739842D03*
X0000277322Y0000712283D03*
X0000277322Y0000684724D03*
X0000277322Y0000657165D03*
X0000277322Y0000629606D03*
D14*
X0000730077Y0000609921D03*
D15*
X0000611968Y0000609921D03*
X0000584409Y0000609921D03*
X0000556850Y0000609921D03*
X0000529291Y0000609921D03*
X0000501731Y0000609921D03*
X0000474173Y0000609921D03*
X0000446614Y0000609921D03*
X0000419054Y0000609921D03*
X0000391496Y0000609921D03*
X0000363937Y0000609921D03*
D17*
X0000837400Y0000304960D03*
X0000703543Y0000304960D03*
D18*
X0000155472Y0000697519D03*
X0000155472Y0000642401D03*
D19*
X0000440943Y0001084960D03*
X0000500000Y0001084960D03*
X0000310944Y0001084960D03*
X0000369999Y0001084960D03*
X0000780944Y0000424960D03*
X0000840000Y0000424960D03*
D20*
X0000665472Y0001304960D03*
X0000704472Y0001082960D03*
X0000695472Y0001399960D03*
X0000701472Y0001144960D03*
X0000530472Y0001229960D03*
D21*
X0000820471Y0001214960D03*
D22*
X0000780472Y0001414960D03*
X0000860472Y0001414960D03*
D23*
X0000549999Y0000474960D03*
X0000490943Y0000474960D03*
D24*
X0000285472Y0000529488D03*
X0000285472Y0000470432D03*
D23*
X0000725000Y0000504959D03*
X0000665944Y0000504959D03*
D24*
X0000155472Y0000510433D03*
X0000155472Y0000569488D03*
X0000155472Y0000829488D03*
X0000155472Y0000770433D03*
X0000520472Y0001312933D03*
X0000520472Y0001371988D03*
X0000390472Y0000444488D03*
X0000390472Y0000385433D03*
D23*
X0000485944Y0000374960D03*
X0000545000Y0000374960D03*
G01*
D35*
D36*
X-0002795275Y0005314959D02*
X0001205354Y0001265273D03*
X0001205354Y0001304645D03*
X0001284093Y0001265273D03*
D37*
X0001244724Y0001284960D03*
D36*
X0001284093Y0001304645D03*
D38*
X0001637559Y0000893385D03*
X0001692677Y0000893385D03*
D39*
X0001714330Y0000979999D03*
D40*
X0001678897Y0000979999D03*
X0001651338Y0000979999D03*
X0001623779Y0000979999D03*
X0001596220Y0000979999D03*
X0001568661Y0000979999D03*
X0001541102Y0000979999D03*
X0001513542Y0000979999D03*
X0001485984Y0000979999D03*
X0001458425Y0000979999D03*
X0001430866Y0000979999D03*
X0001403307Y0000979999D03*
X0001375748Y0000979999D03*
X0001348188Y0000979999D03*
X0001320629Y0000979999D03*
D41*
X0001261574Y0000960314D03*
X0001261574Y0000932755D03*
X0001261574Y0000905195D03*
X0001261574Y0000877637D03*
X0001261574Y0000850078D03*
X0001261574Y0000822519D03*
X0001261574Y0000794960D03*
X0001261574Y0000767400D03*
X0001261574Y0000739842D03*
X0001261574Y0000712283D03*
X0001261574Y0000684724D03*
X0001261574Y0000657165D03*
X0001261574Y0000629606D03*
D39*
X0001714330Y0000609921D03*
D40*
X0001596220Y0000609921D03*
X0001568661Y0000609921D03*
X0001541102Y0000609921D03*
X0001513542Y0000609921D03*
X0001485984Y0000609921D03*
X0001458425Y0000609921D03*
X0001430866Y0000609921D03*
X0001403307Y0000609921D03*
X0001375748Y0000609921D03*
X0001348188Y0000609921D03*
D42*
X0001821653Y0000304960D03*
X0001687795Y0000304960D03*
D43*
X0001139724Y0000697519D03*
X0001139724Y0000642401D03*
D44*
X0001425196Y0001084960D03*
X0001484251Y0001084960D03*
X0001295196Y0001084960D03*
X0001354251Y0001084960D03*
X0001765196Y0000424960D03*
X0001824251Y0000424960D03*
D45*
X0001649724Y0001304960D03*
X0001688723Y0001082960D03*
X0001679724Y0001399960D03*
X0001685724Y0001144960D03*
X0001514724Y0001229960D03*
D46*
X0001804724Y0001214960D03*
D47*
X0001764724Y0001414960D03*
X0001844724Y0001414960D03*
D48*
X0001534250Y0000474960D03*
X0001475196Y0000474960D03*
D49*
X0001269723Y0000529488D03*
X0001269723Y0000470432D03*
D48*
X0001709251Y0000504959D03*
X0001650196Y0000504959D03*
D49*
X0001139724Y0000510433D03*
X0001139724Y0000569488D03*
X0001139724Y0000829488D03*
X0001139724Y0000770433D03*
X0001504724Y0001312933D03*
X0001504724Y0001371988D03*
X0001374724Y0000444488D03*
X0001374724Y0000385433D03*
D48*
X0001470196Y0000374960D03*
X0001529251Y0000374960D03*
G01*
D60*
D61*
X-0001811023Y0005314959D02*
X0002189606Y0001265273D03*
X0002189606Y0001304645D03*
X0002268346Y0001265273D03*
D62*
X0002228976Y0001284960D03*
D61*
X0002268346Y0001304645D03*
D63*
X0002621809Y0000893385D03*
X0002676929Y0000893385D03*
D64*
X0002698582Y0000979999D03*
D65*
X0002663149Y0000979999D03*
X0002635590Y0000979999D03*
X0002608031Y0000979999D03*
X0002580472Y0000979999D03*
X0002552913Y0000979999D03*
X0002525353Y0000979999D03*
X0002497795Y0000979999D03*
X0002470236Y0000979999D03*
X0002442677Y0000979999D03*
X0002415118Y0000979999D03*
X0002387559Y0000979999D03*
X0002360000Y0000979999D03*
X0002332440Y0000979999D03*
X0002304881Y0000979999D03*
D66*
X0002245826Y0000960314D03*
X0002245826Y0000932755D03*
X0002245826Y0000905195D03*
X0002245826Y0000877637D03*
X0002245826Y0000850078D03*
X0002245826Y0000822519D03*
X0002245826Y0000794960D03*
X0002245826Y0000767400D03*
X0002245826Y0000739842D03*
X0002245826Y0000712283D03*
X0002245826Y0000684724D03*
X0002245826Y0000657165D03*
X0002245826Y0000629606D03*
D64*
X0002698582Y0000609921D03*
D65*
X0002580472Y0000609921D03*
X0002552913Y0000609921D03*
X0002525353Y0000609921D03*
X0002497795Y0000609921D03*
X0002470236Y0000609921D03*
X0002442677Y0000609921D03*
X0002415118Y0000609921D03*
X0002387559Y0000609921D03*
X0002360000Y0000609921D03*
X0002332440Y0000609921D03*
D67*
X0002805905Y0000304960D03*
X0002672047Y0000304960D03*
D68*
X0002123976Y0000697519D03*
X0002123976Y0000642401D03*
D69*
X0002409448Y0001084960D03*
X0002468503Y0001084960D03*
X0002279448Y0001084960D03*
X0002338503Y0001084960D03*
X0002749448Y0000424960D03*
X0002808503Y0000424960D03*
D70*
X0002633976Y0001304960D03*
X0002672976Y0001082960D03*
X0002663976Y0001399960D03*
X0002669975Y0001144960D03*
X0002498976Y0001229960D03*
D71*
X0002788976Y0001214960D03*
D72*
X0002748976Y0001414960D03*
X0002828976Y0001414960D03*
D73*
X0002518503Y0000474960D03*
X0002459448Y0000474960D03*
D74*
X0002253976Y0000529488D03*
X0002253976Y0000470432D03*
D73*
X0002693503Y0000504959D03*
X0002634448Y0000504959D03*
D74*
X0002123976Y0000510433D03*
X0002123976Y0000569488D03*
X0002123976Y0000829488D03*
X0002123976Y0000770433D03*
X0002488976Y0001312933D03*
X0002488976Y0001371988D03*
X0002358976Y0000444488D03*
X0002358976Y0000385433D03*
D73*
X0002454448Y0000374960D03*
X0002513503Y0000374960D03*
G01*
D85*
D86*
X-0000826771Y0005314959D02*
X0003173857Y0001265273D03*
X0003173857Y0001304645D03*
X0003252598Y0001265273D03*
D87*
X0003213228Y0001284960D03*
D86*
X0003252598Y0001304645D03*
D88*
X0003606062Y0000893385D03*
X0003661181Y0000893385D03*
D89*
X0003682834Y0000979999D03*
D90*
X0003647401Y0000979999D03*
X0003619842Y0000979999D03*
X0003592283Y0000979999D03*
X0003564723Y0000979999D03*
X0003537165Y0000979999D03*
X0003509606Y0000979999D03*
X0003482047Y0000979999D03*
X0003454488Y0000979999D03*
X0003426928Y0000979999D03*
X0003399370Y0000979999D03*
X0003371811Y0000979999D03*
X0003344250Y0000979999D03*
X0003316692Y0000979999D03*
X0003289133Y0000979999D03*
D91*
X0003230078Y0000960314D03*
X0003230078Y0000932755D03*
X0003230078Y0000905195D03*
X0003230078Y0000877637D03*
X0003230078Y0000850078D03*
X0003230078Y0000822519D03*
X0003230078Y0000794960D03*
X0003230078Y0000767400D03*
X0003230078Y0000739842D03*
X0003230078Y0000712283D03*
X0003230078Y0000684724D03*
X0003230078Y0000657165D03*
X0003230078Y0000629606D03*
D89*
X0003682834Y0000609921D03*
D90*
X0003564723Y0000609921D03*
X0003537165Y0000609921D03*
X0003509606Y0000609921D03*
X0003482047Y0000609921D03*
X0003454488Y0000609921D03*
X0003426928Y0000609921D03*
X0003399370Y0000609921D03*
X0003371811Y0000609921D03*
X0003344250Y0000609921D03*
X0003316692Y0000609921D03*
D92*
X0003790157Y0000304960D03*
X0003656299Y0000304960D03*
D93*
X0003108228Y0000697519D03*
X0003108228Y0000642401D03*
D94*
X0003393700Y0001084960D03*
X0003452755Y0001084960D03*
X0003263699Y0001084960D03*
X0003322755Y0001084960D03*
X0003733700Y0000424960D03*
X0003792755Y0000424960D03*
D95*
X0003618228Y0001304960D03*
X0003657228Y0001082960D03*
X0003648227Y0001399960D03*
X0003654228Y0001144960D03*
X0003483228Y0001229960D03*
D96*
X0003773228Y0001214960D03*
D97*
X0003733228Y0001414960D03*
X0003813228Y0001414960D03*
D98*
X0003502755Y0000474960D03*
X0003443700Y0000474960D03*
D99*
X0003238228Y0000529488D03*
X0003238228Y0000470432D03*
D98*
X0003677755Y0000504959D03*
X0003618700Y0000504959D03*
D99*
X0003108228Y0000510433D03*
X0003108228Y0000569488D03*
X0003108228Y0000829488D03*
X0003108228Y0000770433D03*
X0003473228Y0001312933D03*
X0003473228Y0001371988D03*
X0003343228Y0000444488D03*
X0003343228Y0000385433D03*
D98*
X0003438700Y0000374960D03*
X0003497755Y0000374960D03*
G04 next file*
%LPD*%
G01*
D110*
D111*
X-0003779527Y0006811023D02*
X0000221102Y0002761338D03*
X0000221102Y0002800708D03*
X0000299842Y0002761338D03*
D112*
X0000260471Y0002781023D03*
D111*
X0000299842Y0002800708D03*
D113*
X0000653306Y0002389448D03*
X0000708425Y0002389448D03*
D114*
X0000730077Y0002476062D03*
D115*
X0000694645Y0002476062D03*
X0000667086Y0002476062D03*
X0000639527Y0002476062D03*
X0000611968Y0002476062D03*
X0000584409Y0002476062D03*
X0000556850Y0002476062D03*
X0000529291Y0002476062D03*
X0000501731Y0002476062D03*
X0000474173Y0002476062D03*
X0000446614Y0002476062D03*
X0000419054Y0002476062D03*
X0000391496Y0002476062D03*
X0000363937Y0002476062D03*
X0000336376Y0002476062D03*
D116*
X0000277322Y0002456377D03*
X0000277322Y0002428818D03*
X0000277322Y0002401259D03*
X0000277322Y0002373700D03*
X0000277322Y0002346141D03*
X0000277322Y0002318582D03*
X0000277322Y0002291023D03*
X0000277322Y0002263464D03*
X0000277322Y0002235905D03*
X0000277322Y0002208346D03*
X0000277322Y0002180787D03*
X0000277322Y0002153228D03*
X0000277322Y0002125669D03*
D114*
X0000730077Y0002105984D03*
D115*
X0000611968Y0002105984D03*
X0000584409Y0002105984D03*
X0000556850Y0002105984D03*
X0000529291Y0002105984D03*
X0000501731Y0002105984D03*
X0000474173Y0002105984D03*
X0000446614Y0002105984D03*
X0000419054Y0002105984D03*
X0000391496Y0002105984D03*
X0000363937Y0002105984D03*
D117*
X0000837400Y0001801022D03*
X0000703543Y0001801022D03*
D118*
X0000155472Y0002193582D03*
X0000155472Y0002138464D03*
D119*
X0000440943Y0002581023D03*
X0000500000Y0002581023D03*
X0000310944Y0002581023D03*
X0000369999Y0002581023D03*
X0000780944Y0001921023D03*
X0000840000Y0001921023D03*
D120*
X0000665472Y0002801023D03*
X0000704472Y0002579023D03*
X0000695472Y0002896023D03*
X0000701472Y0002641023D03*
X0000530472Y0002726023D03*
D121*
X0000820471Y0002711023D03*
D122*
X0000780472Y0002911023D03*
X0000860472Y0002911023D03*
D123*
X0000549999Y0001971022D03*
X0000490943Y0001971022D03*
D124*
X0000285472Y0002025551D03*
X0000285472Y0001966496D03*
D123*
X0000725000Y0002001023D03*
X0000665944Y0002001023D03*
D124*
X0000155472Y0002006495D03*
X0000155472Y0002065551D03*
X0000155472Y0002325551D03*
X0000155472Y0002266496D03*
X0000520472Y0002808996D03*
X0000520472Y0002868051D03*
X0000390472Y0001940551D03*
X0000390472Y0001881496D03*
D123*
X0000485944Y0001871023D03*
X0000545000Y0001871023D03*
G01*
D135*
D136*
X-0002795275Y0006811023D02*
X0001205354Y0002761338D03*
X0001205354Y0002800708D03*
X0001284093Y0002761338D03*
D137*
X0001244724Y0002781023D03*
D136*
X0001284093Y0002800708D03*
D138*
X0001637559Y0002389448D03*
X0001692677Y0002389448D03*
D139*
X0001714330Y0002476062D03*
D140*
X0001678897Y0002476062D03*
X0001651338Y0002476062D03*
X0001623779Y0002476062D03*
X0001596220Y0002476062D03*
X0001568661Y0002476062D03*
X0001541102Y0002476062D03*
X0001513542Y0002476062D03*
X0001485984Y0002476062D03*
X0001458425Y0002476062D03*
X0001430866Y0002476062D03*
X0001403307Y0002476062D03*
X0001375748Y0002476062D03*
X0001348188Y0002476062D03*
X0001320629Y0002476062D03*
D141*
X0001261574Y0002456377D03*
X0001261574Y0002428818D03*
X0001261574Y0002401259D03*
X0001261574Y0002373700D03*
X0001261574Y0002346141D03*
X0001261574Y0002318582D03*
X0001261574Y0002291023D03*
X0001261574Y0002263464D03*
X0001261574Y0002235905D03*
X0001261574Y0002208346D03*
X0001261574Y0002180787D03*
X0001261574Y0002153228D03*
X0001261574Y0002125669D03*
D139*
X0001714330Y0002105984D03*
D140*
X0001596220Y0002105984D03*
X0001568661Y0002105984D03*
X0001541102Y0002105984D03*
X0001513542Y0002105984D03*
X0001485984Y0002105984D03*
X0001458425Y0002105984D03*
X0001430866Y0002105984D03*
X0001403307Y0002105984D03*
X0001375748Y0002105984D03*
X0001348188Y0002105984D03*
D142*
X0001821653Y0001801022D03*
X0001687795Y0001801022D03*
D143*
X0001139724Y0002193582D03*
X0001139724Y0002138464D03*
D144*
X0001425196Y0002581023D03*
X0001484251Y0002581023D03*
X0001295196Y0002581023D03*
X0001354251Y0002581023D03*
X0001765196Y0001921023D03*
X0001824251Y0001921023D03*
D145*
X0001649724Y0002801023D03*
X0001688723Y0002579023D03*
X0001679724Y0002896023D03*
X0001685724Y0002641023D03*
X0001514724Y0002726023D03*
D146*
X0001804724Y0002711023D03*
D147*
X0001764724Y0002911023D03*
X0001844724Y0002911023D03*
D148*
X0001534250Y0001971022D03*
X0001475196Y0001971022D03*
D149*
X0001269723Y0002025551D03*
X0001269723Y0001966496D03*
D148*
X0001709251Y0002001023D03*
X0001650196Y0002001023D03*
D149*
X0001139724Y0002006495D03*
X0001139724Y0002065551D03*
X0001139724Y0002325551D03*
X0001139724Y0002266496D03*
X0001504724Y0002808996D03*
X0001504724Y0002868051D03*
X0001374724Y0001940551D03*
X0001374724Y0001881496D03*
D148*
X0001470196Y0001871023D03*
X0001529251Y0001871023D03*
G04 next file*
G01*
D160*
D161*
X-0001811023Y0006811023D02*
X0002189606Y0002761338D03*
X0002189606Y0002800708D03*
X0002268346Y0002761338D03*
D162*
X0002228976Y0002781023D03*
D161*
X0002268346Y0002800708D03*
D163*
X0002621809Y0002389448D03*
X0002676929Y0002389448D03*
D164*
X0002698582Y0002476062D03*
D165*
X0002663149Y0002476062D03*
X0002635590Y0002476062D03*
X0002608031Y0002476062D03*
X0002580472Y0002476062D03*
X0002552913Y0002476062D03*
X0002525353Y0002476062D03*
X0002497795Y0002476062D03*
X0002470236Y0002476062D03*
X0002442677Y0002476062D03*
X0002415118Y0002476062D03*
X0002387559Y0002476062D03*
X0002360000Y0002476062D03*
X0002332440Y0002476062D03*
X0002304881Y0002476062D03*
D166*
X0002245826Y0002456377D03*
X0002245826Y0002428818D03*
X0002245826Y0002401259D03*
X0002245826Y0002373700D03*
X0002245826Y0002346141D03*
X0002245826Y0002318582D03*
X0002245826Y0002291023D03*
X0002245826Y0002263464D03*
X0002245826Y0002235905D03*
X0002245826Y0002208346D03*
X0002245826Y0002180787D03*
X0002245826Y0002153228D03*
X0002245826Y0002125669D03*
D164*
X0002698582Y0002105984D03*
D165*
X0002580472Y0002105984D03*
X0002552913Y0002105984D03*
X0002525353Y0002105984D03*
X0002497795Y0002105984D03*
X0002470236Y0002105984D03*
X0002442677Y0002105984D03*
X0002415118Y0002105984D03*
X0002387559Y0002105984D03*
X0002360000Y0002105984D03*
X0002332440Y0002105984D03*
D167*
X0002805905Y0001801022D03*
X0002672047Y0001801022D03*
D168*
X0002123976Y0002193582D03*
X0002123976Y0002138464D03*
D169*
X0002409448Y0002581023D03*
X0002468503Y0002581023D03*
X0002279448Y0002581023D03*
X0002338503Y0002581023D03*
X0002749448Y0001921023D03*
X0002808503Y0001921023D03*
D170*
X0002633976Y0002801023D03*
X0002672976Y0002579023D03*
X0002663976Y0002896023D03*
X0002669975Y0002641023D03*
X0002498976Y0002726023D03*
D171*
X0002788976Y0002711023D03*
D172*
X0002748976Y0002911023D03*
X0002828976Y0002911023D03*
D173*
X0002518503Y0001971022D03*
X0002459448Y0001971022D03*
D174*
X0002253976Y0002025551D03*
X0002253976Y0001966496D03*
D173*
X0002693503Y0002001023D03*
X0002634448Y0002001023D03*
D174*
X0002123976Y0002006495D03*
X0002123976Y0002065551D03*
X0002123976Y0002325551D03*
X0002123976Y0002266496D03*
X0002488976Y0002808996D03*
X0002488976Y0002868051D03*
X0002358976Y0001940551D03*
X0002358976Y0001881496D03*
D173*
X0002454448Y0001871023D03*
X0002513503Y0001871023D03*
G04 next file*
G04 #@! TF.FileFunction,Soldermask,Bot*
G04 Gerber Fmt 4.6, Leading zero omitted, Abs format (unit mm)*
G04 Created by KiCad (PCBNEW 4.0.7-e2-6376~61~ubuntu18.04.1) date Mon Jun  4 01:42:22 2018*
G01*
G04 APERTURE LIST*
G04 APERTURE END LIST*
D185*
D186*
X-0000826771Y0006811023D02*
X0003173857Y0002761338D03*
X0003173857Y0002800708D03*
X0003252598Y0002761338D03*
D187*
X0003213228Y0002781023D03*
D186*
X0003252598Y0002800708D03*
D188*
X0003606062Y0002389448D03*
X0003661181Y0002389448D03*
D189*
X0003682834Y0002476062D03*
D190*
X0003647401Y0002476062D03*
X0003619842Y0002476062D03*
X0003592283Y0002476062D03*
X0003564723Y0002476062D03*
X0003537165Y0002476062D03*
X0003509606Y0002476062D03*
X0003482047Y0002476062D03*
X0003454488Y0002476062D03*
X0003426928Y0002476062D03*
X0003399370Y0002476062D03*
X0003371811Y0002476062D03*
X0003344250Y0002476062D03*
X0003316692Y0002476062D03*
X0003289133Y0002476062D03*
D191*
X0003230078Y0002456377D03*
X0003230078Y0002428818D03*
X0003230078Y0002401259D03*
X0003230078Y0002373700D03*
X0003230078Y0002346141D03*
X0003230078Y0002318582D03*
X0003230078Y0002291023D03*
X0003230078Y0002263464D03*
X0003230078Y0002235905D03*
X0003230078Y0002208346D03*
X0003230078Y0002180787D03*
X0003230078Y0002153228D03*
X0003230078Y0002125669D03*
D189*
X0003682834Y0002105984D03*
D190*
X0003564723Y0002105984D03*
X0003537165Y0002105984D03*
X0003509606Y0002105984D03*
X0003482047Y0002105984D03*
X0003454488Y0002105984D03*
X0003426928Y0002105984D03*
X0003399370Y0002105984D03*
X0003371811Y0002105984D03*
X0003344250Y0002105984D03*
X0003316692Y0002105984D03*
D192*
X0003790157Y0001801022D03*
X0003656299Y0001801022D03*
D193*
X0003108228Y0002193582D03*
X0003108228Y0002138464D03*
D194*
X0003393700Y0002581023D03*
X0003452755Y0002581023D03*
X0003263699Y0002581023D03*
X0003322755Y0002581023D03*
X0003733700Y0001921023D03*
X0003792755Y0001921023D03*
D195*
X0003618228Y0002801023D03*
X0003657228Y0002579023D03*
X0003648227Y0002896023D03*
X0003654228Y0002641023D03*
X0003483228Y0002726023D03*
D196*
X0003773228Y0002711023D03*
D197*
X0003733228Y0002911023D03*
X0003813228Y0002911023D03*
D198*
X0003502755Y0001971022D03*
X0003443700Y0001971022D03*
D199*
X0003238228Y0002025551D03*
X0003238228Y0001966496D03*
D198*
X0003677755Y0002001023D03*
X0003618700Y0002001023D03*
D199*
X0003108228Y0002006495D03*
X0003108228Y0002065551D03*
X0003108228Y0002325551D03*
X0003108228Y0002266496D03*
X0003473228Y0002808996D03*
X0003473228Y0002868051D03*
X0003343228Y0001940551D03*
X0003343228Y0001881496D03*
D198*
X0003438700Y0001871023D03*
X0003497755Y0001871023D03*
M02*