%MOIN*%
%OFA0B0*%
%FSLAX44Y44*%
%IPPOS*%
%LPD*%
%ADD10C,0*%
D10*
X00029289Y00009146D02*
X00029289Y00009146D01*
X00029289Y00014849D01*
X00025980Y00014849D01*
X00025949Y00014850D01*
X00025919Y00014854D01*
X00025888Y00014860D01*
X00025858Y00014868D01*
X00025829Y00014879D01*
X00025801Y00014892D01*
X00025774Y00014907D01*
X00025749Y00014924D01*
X00025724Y00014943D01*
X00025702Y00014964D01*
X00025681Y00014987D01*
X00025662Y00015011D01*
X00025644Y00015037D01*
X00025629Y00015064D01*
X00025616Y00015092D01*
X00025606Y00015121D01*
X00025597Y00015151D01*
X00025591Y00015181D01*
X00025588Y00015212D01*
X00025586Y00015243D01*
X00025586Y00015716D01*
X00025588Y00015747D01*
X00025591Y00015778D01*
X00025597Y00015808D01*
X00025606Y00015838D01*
X00025616Y00015867D01*
X00025629Y00015895D01*
X00025644Y00015922D01*
X00025662Y00015947D01*
X00025681Y00015972D01*
X00025702Y00015994D01*
X00025724Y00016015D01*
X00025749Y00016035D01*
X00025774Y00016052D01*
X00025801Y00016067D01*
X00025829Y00016080D01*
X00025858Y00016090D01*
X00025888Y00016099D01*
X00025919Y00016105D01*
X00025949Y00016109D01*
X00025980Y00016110D01*
X00029289Y00016110D01*
X00029289Y00021813D01*
X00029290Y00021844D01*
X00029294Y00021874D01*
X00029300Y00021905D01*
X00029309Y00021934D01*
X00029319Y00021963D01*
X00029332Y00021992D01*
X00029347Y00022018D01*
X00029364Y00022044D01*
X00029384Y00022068D01*
X00029405Y00022091D01*
X00029427Y00022112D01*
X00029452Y00022131D01*
X00029477Y00022148D01*
X00029504Y00022164D01*
X00029532Y00022177D01*
X00029561Y00022187D01*
X00029591Y00022196D01*
X00029621Y00022202D01*
X00029652Y00022205D01*
X00029683Y00022206D01*
X00029938Y00022206D01*
X00029969Y00022205D01*
X00030000Y00022202D01*
X00030030Y00022196D01*
X00030060Y00022187D01*
X00030089Y00022177D01*
X00030117Y00022164D01*
X00030144Y00022148D01*
X00030169Y00022131D01*
X00030194Y00022112D01*
X00030216Y00022091D01*
X00030237Y00022068D01*
X00030257Y00022044D01*
X00030274Y00022018D01*
X00030289Y00021992D01*
X00030302Y00021963D01*
X00030313Y00021934D01*
X00030321Y00021905D01*
X00030327Y00021874D01*
X00030331Y00021844D01*
X00030332Y00021813D01*
X00030332Y00017960D01*
X00030502Y00017952D01*
X00030672Y00017928D01*
X00030838Y00017889D01*
X00031000Y00017835D01*
X00031156Y00017766D01*
X00031306Y00017683D01*
X00031447Y00017586D01*
X00031578Y00017477D01*
X00031699Y00017356D01*
X00031808Y00017225D01*
X00031905Y00017084D01*
X00031988Y00016934D01*
X00032057Y00016778D01*
X00032111Y00016616D01*
X00032150Y00016450D01*
X00032174Y00016280D01*
X00032182Y00016110D01*
X00033641Y00016110D01*
X00033672Y00016109D01*
X00033703Y00016105D01*
X00033733Y00016099D01*
X00033763Y00016090D01*
X00033792Y00016080D01*
X00033820Y00016067D01*
X00033847Y00016052D01*
X00033872Y00016035D01*
X00033897Y00016015D01*
X00033919Y00015994D01*
X00033940Y00015972D01*
X00033959Y00015947D01*
X00033977Y00015922D01*
X00033992Y00015895D01*
X00034005Y00015867D01*
X00034015Y00015838D01*
X00034024Y00015808D01*
X00034030Y00015778D01*
X00034033Y00015747D01*
X00034035Y00015716D01*
X00034035Y00015243D01*
X00034033Y00015212D01*
X00034030Y00015181D01*
X00034024Y00015151D01*
X00034015Y00015121D01*
X00034005Y00015092D01*
X00033992Y00015064D01*
X00033977Y00015037D01*
X00033959Y00015011D01*
X00033940Y00014987D01*
X00033919Y00014964D01*
X00033897Y00014943D01*
X00033872Y00014924D01*
X00033847Y00014907D01*
X00033820Y00014892D01*
X00033792Y00014879D01*
X00033763Y00014868D01*
X00033733Y00014860D01*
X00033703Y00014854D01*
X00033672Y00014850D01*
X00033641Y00014849D01*
X00030332Y00014849D01*
X00030332Y00009146D01*
X00030331Y00009115D01*
X00030327Y00009084D01*
X00030321Y00009054D01*
X00030313Y00009024D01*
X00030302Y00008995D01*
X00030289Y00008967D01*
X00030274Y00008940D01*
X00030257Y00008915D01*
X00030237Y00008890D01*
X00030216Y00008868D01*
X00030194Y00008847D01*
X00030169Y00008828D01*
X00030144Y00008810D01*
X00030117Y00008795D01*
X00030089Y00008782D01*
X00030060Y00008772D01*
X00030030Y00008763D01*
X00030000Y00008757D01*
X00029969Y00008754D01*
X00029938Y00008752D01*
X00029683Y00008752D01*
X00029652Y00008754D01*
X00029621Y00008757D01*
X00029591Y00008763D01*
X00029561Y00008772D01*
X00029532Y00008782D01*
X00029504Y00008795D01*
X00029477Y00008810D01*
X00029452Y00008828D01*
X00029427Y00008847D01*
X00029405Y00008868D01*
X00029384Y00008890D01*
X00029364Y00008915D01*
X00029347Y00008940D01*
X00029332Y00008967D01*
X00029319Y00008995D01*
X00029309Y00009024D01*
X00029300Y00009054D01*
X00029294Y00009084D01*
X00029290Y00009115D01*
X00029289Y00009146D01*
X00019447Y00009146D02*
X00019447Y00009146D01*
X00019447Y00014849D01*
X00016138Y00014849D01*
X00016107Y00014850D01*
X00016076Y00014854D01*
X00016046Y00014860D01*
X00016016Y00014868D01*
X00015987Y00014879D01*
X00015959Y00014892D01*
X00015932Y00014907D01*
X00015906Y00014924D01*
X00015882Y00014943D01*
X00015859Y00014964D01*
X00015838Y00014987D01*
X00015819Y00015011D01*
X00015802Y00015037D01*
X00015787Y00015064D01*
X00015774Y00015092D01*
X00015763Y00015121D01*
X00015755Y00015151D01*
X00015749Y00015181D01*
X00015745Y00015212D01*
X00015744Y00015243D01*
X00015744Y00015716D01*
X00015745Y00015747D01*
X00015749Y00015778D01*
X00015755Y00015808D01*
X00015763Y00015838D01*
X00015774Y00015867D01*
X00015787Y00015895D01*
X00015802Y00015922D01*
X00015819Y00015947D01*
X00015838Y00015972D01*
X00015859Y00015994D01*
X00015882Y00016015D01*
X00015906Y00016035D01*
X00015932Y00016052D01*
X00015959Y00016067D01*
X00015987Y00016080D01*
X00016016Y00016090D01*
X00016046Y00016099D01*
X00016076Y00016105D01*
X00016107Y00016109D01*
X00016138Y00016110D01*
X00019447Y00016110D01*
X00019447Y00021813D01*
X00019448Y00021844D01*
X00019452Y00021874D01*
X00019458Y00021905D01*
X00019466Y00021934D01*
X00019477Y00021963D01*
X00019490Y00021992D01*
X00019505Y00022018D01*
X00019522Y00022044D01*
X00019541Y00022068D01*
X00019562Y00022091D01*
X00019585Y00022112D01*
X00019609Y00022131D01*
X00019635Y00022148D01*
X00019662Y00022164D01*
X00019690Y00022177D01*
X00019719Y00022187D01*
X00019749Y00022196D01*
X00019779Y00022202D01*
X00019810Y00022205D01*
X00019840Y00022206D01*
X00020096Y00022206D01*
X00020126Y00022205D01*
X00020157Y00022202D01*
X00020187Y00022196D01*
X00020217Y00022187D01*
X00020246Y00022177D01*
X00020274Y00022164D01*
X00020301Y00022148D01*
X00020327Y00022131D01*
X00020351Y00022112D01*
X00020374Y00022091D01*
X00020395Y00022068D01*
X00020414Y00022044D01*
X00020431Y00022018D01*
X00020446Y00021992D01*
X00020459Y00021963D01*
X00020470Y00021934D01*
X00020478Y00021905D01*
X00020484Y00021874D01*
X00020488Y00021844D01*
X00020489Y00021813D01*
X00020489Y00017960D01*
X00020660Y00017952D01*
X00020829Y00017928D01*
X00020996Y00017889D01*
X00021158Y00017835D01*
X00021314Y00017766D01*
X00021463Y00017683D01*
X00021604Y00017586D01*
X00021736Y00017477D01*
X00021856Y00017356D01*
X00021966Y00017225D01*
X00022062Y00017084D01*
X00022145Y00016934D01*
X00022214Y00016778D01*
X00022269Y00016616D01*
X00022308Y00016450D01*
X00022331Y00016280D01*
X00022339Y00016110D01*
X00023798Y00016110D01*
X00023829Y00016109D01*
X00023860Y00016105D01*
X00023890Y00016099D01*
X00023920Y00016090D01*
X00023949Y00016080D01*
X00023977Y00016067D01*
X00024004Y00016052D01*
X00024030Y00016035D01*
X00024054Y00016015D01*
X00024077Y00015994D01*
X00024098Y00015972D01*
X00024117Y00015947D01*
X00024134Y00015922D01*
X00024149Y00015895D01*
X00024162Y00015867D01*
X00024173Y00015838D01*
X00024181Y00015808D01*
X00024187Y00015778D01*
X00024191Y00015747D01*
X00024192Y00015716D01*
X00024192Y00015243D01*
X00024191Y00015212D01*
X00024187Y00015181D01*
X00024181Y00015151D01*
X00024173Y00015121D01*
X00024162Y00015092D01*
X00024149Y00015064D01*
X00024134Y00015037D01*
X00024117Y00015011D01*
X00024098Y00014987D01*
X00024077Y00014964D01*
X00024054Y00014943D01*
X00024030Y00014924D01*
X00024004Y00014907D01*
X00023977Y00014892D01*
X00023949Y00014879D01*
X00023920Y00014868D01*
X00023890Y00014860D01*
X00023860Y00014854D01*
X00023829Y00014850D01*
X00023798Y00014849D01*
X00020489Y00014849D01*
X00020489Y00009146D01*
X00020488Y00009115D01*
X00020484Y00009084D01*
X00020478Y00009054D01*
X00020470Y00009024D01*
X00020459Y00008995D01*
X00020446Y00008967D01*
X00020431Y00008940D01*
X00020414Y00008915D01*
X00020395Y00008890D01*
X00020374Y00008868D01*
X00020351Y00008847D01*
X00020327Y00008828D01*
X00020301Y00008810D01*
X00020274Y00008795D01*
X00020246Y00008782D01*
X00020217Y00008772D01*
X00020187Y00008763D01*
X00020157Y00008757D01*
X00020126Y00008754D01*
X00020096Y00008752D01*
X00019840Y00008752D01*
X00019810Y00008754D01*
X00019779Y00008757D01*
X00019749Y00008763D01*
X00019719Y00008772D01*
X00019690Y00008782D01*
X00019662Y00008795D01*
X00019635Y00008810D01*
X00019609Y00008828D01*
X00019585Y00008847D01*
X00019562Y00008868D01*
X00019541Y00008890D01*
X00019522Y00008915D01*
X00019505Y00008940D01*
X00019490Y00008967D01*
X00019477Y00008995D01*
X00019466Y00009024D01*
X00019458Y00009054D01*
X00019452Y00009084D01*
X00019448Y00009115D01*
X00019447Y00009146D01*
X00009604Y00009146D02*
X00009604Y00009146D01*
X00009604Y00014849D01*
X00006295Y00014849D01*
X00006264Y00014850D01*
X00006233Y00014854D01*
X00006203Y00014860D01*
X00006173Y00014868D01*
X00006144Y00014879D01*
X00006116Y00014892D01*
X00006089Y00014907D01*
X00006064Y00014924D01*
X00006039Y00014943D01*
X00006017Y00014964D01*
X00005996Y00014987D01*
X00005977Y00015011D01*
X00005959Y00015037D01*
X00005944Y00015064D01*
X00005931Y00015092D01*
X00005921Y00015121D01*
X00005912Y00015151D01*
X00005906Y00015181D01*
X00005903Y00015212D01*
X00005901Y00015243D01*
X00005901Y00015716D01*
X00005903Y00015747D01*
X00005906Y00015778D01*
X00005912Y00015808D01*
X00005921Y00015838D01*
X00005931Y00015867D01*
X00005944Y00015895D01*
X00005959Y00015922D01*
X00005977Y00015947D01*
X00005996Y00015972D01*
X00006017Y00015994D01*
X00006039Y00016015D01*
X00006064Y00016035D01*
X00006089Y00016052D01*
X00006116Y00016067D01*
X00006144Y00016080D01*
X00006173Y00016090D01*
X00006203Y00016099D01*
X00006233Y00016105D01*
X00006264Y00016109D01*
X00006295Y00016110D01*
X00009604Y00016110D01*
X00009604Y00021813D01*
X00009605Y00021844D01*
X00009609Y00021874D01*
X00009615Y00021905D01*
X00009623Y00021934D01*
X00009634Y00021963D01*
X00009647Y00021992D01*
X00009662Y00022018D01*
X00009679Y00022044D01*
X00009699Y00022068D01*
X00009720Y00022091D01*
X00009742Y00022112D01*
X00009767Y00022131D01*
X00009792Y00022148D01*
X00009819Y00022164D01*
X00009847Y00022177D01*
X00009876Y00022187D01*
X00009906Y00022196D01*
X00009936Y00022202D01*
X00009967Y00022205D01*
X00009998Y00022206D01*
X00010253Y00022206D01*
X00010284Y00022205D01*
X00010315Y00022202D01*
X00010345Y00022196D01*
X00010375Y00022187D01*
X00010404Y00022177D01*
X00010432Y00022164D01*
X00010459Y00022148D01*
X00010484Y00022131D01*
X00010509Y00022112D01*
X00010531Y00022091D01*
X00010552Y00022068D01*
X00010572Y00022044D01*
X00010589Y00022018D01*
X00010604Y00021992D01*
X00010617Y00021963D01*
X00010627Y00021934D01*
X00010636Y00021905D01*
X00010642Y00021874D01*
X00010646Y00021844D01*
X00010647Y00021813D01*
X00010647Y00017960D01*
X00010817Y00017952D01*
X00010987Y00017928D01*
X00011153Y00017889D01*
X00011315Y00017835D01*
X00011471Y00017766D01*
X00011621Y00017683D01*
X00011762Y00017586D01*
X00011893Y00017477D01*
X00012014Y00017356D01*
X00012123Y00017225D01*
X00012220Y00017084D01*
X00012303Y00016934D01*
X00012372Y00016778D01*
X00012426Y00016616D01*
X00012465Y00016450D01*
X00012489Y00016280D01*
X00012497Y00016110D01*
X00013956Y00016110D01*
X00013987Y00016109D01*
X00014018Y00016105D01*
X00014048Y00016099D01*
X00014078Y00016090D01*
X00014107Y00016080D01*
X00014135Y00016067D01*
X00014162Y00016052D01*
X00014187Y00016035D01*
X00014212Y00016015D01*
X00014234Y00015994D01*
X00014255Y00015972D01*
X00014274Y00015947D01*
X00014292Y00015922D01*
X00014307Y00015895D01*
X00014320Y00015867D01*
X00014330Y00015838D01*
X00014339Y00015808D01*
X00014345Y00015778D01*
X00014348Y00015747D01*
X00014350Y00015716D01*
X00014350Y00015243D01*
X00014348Y00015212D01*
X00014345Y00015181D01*
X00014339Y00015151D01*
X00014330Y00015121D01*
X00014320Y00015092D01*
X00014307Y00015064D01*
X00014292Y00015037D01*
X00014274Y00015011D01*
X00014255Y00014987D01*
X00014234Y00014964D01*
X00014212Y00014943D01*
X00014187Y00014924D01*
X00014162Y00014907D01*
X00014135Y00014892D01*
X00014107Y00014879D01*
X00014078Y00014868D01*
X00014048Y00014860D01*
X00014018Y00014854D01*
X00013987Y00014850D01*
X00013956Y00014849D01*
X00010647Y00014849D01*
X00010647Y00009146D01*
X00010646Y00009115D01*
X00010642Y00009084D01*
X00010636Y00009054D01*
X00010627Y00009024D01*
X00010617Y00008995D01*
X00010604Y00008967D01*
X00010589Y00008940D01*
X00010572Y00008915D01*
X00010552Y00008890D01*
X00010531Y00008868D01*
X00010509Y00008847D01*
X00010484Y00008828D01*
X00010459Y00008810D01*
X00010432Y00008795D01*
X00010404Y00008782D01*
X00010375Y00008772D01*
X00010345Y00008763D01*
X00010315Y00008757D01*
X00010284Y00008754D01*
X00010253Y00008752D01*
X00009998Y00008752D01*
X00009967Y00008754D01*
X00009936Y00008757D01*
X00009906Y00008763D01*
X00009876Y00008772D01*
X00009847Y00008782D01*
X00009819Y00008795D01*
X00009792Y00008810D01*
X00009767Y00008828D01*
X00009742Y00008847D01*
X00009720Y00008868D01*
X00009699Y00008890D01*
X00009679Y00008915D01*
X00009662Y00008940D01*
X00009647Y00008967D01*
X00009634Y00008995D01*
X00009623Y00009024D01*
X00009615Y00009054D01*
X00009609Y00009084D01*
X00009605Y00009115D01*
X00009604Y00009146D01*
X00002654Y00001149D02*
X00002654Y00001149D01*
X00009604Y00001149D01*
X00009604Y00006852D01*
X00009605Y00006883D01*
X00009609Y00006914D01*
X00009615Y00006944D01*
X00009623Y00006974D01*
X00009634Y00007003D01*
X00009647Y00007031D01*
X00009662Y00007058D01*
X00009679Y00007084D01*
X00009699Y00007108D01*
X00009720Y00007131D01*
X00009742Y00007152D01*
X00009767Y00007171D01*
X00009792Y00007188D01*
X00009819Y00007203D01*
X00009847Y00007216D01*
X00009876Y00007227D01*
X00009906Y00007235D01*
X00009936Y00007241D01*
X00009967Y00007245D01*
X00009998Y00007246D01*
X00010253Y00007246D01*
X00010284Y00007245D01*
X00010315Y00007241D01*
X00010345Y00007235D01*
X00010375Y00007227D01*
X00010404Y00007216D01*
X00010432Y00007203D01*
X00010459Y00007188D01*
X00010484Y00007171D01*
X00010509Y00007152D01*
X00010531Y00007131D01*
X00010552Y00007108D01*
X00010572Y00007084D01*
X00010589Y00007058D01*
X00010604Y00007031D01*
X00010617Y00007003D01*
X00010627Y00006974D01*
X00010636Y00006944D01*
X00010642Y00006914D01*
X00010646Y00006883D01*
X00010647Y00006852D01*
X00010647Y00002999D01*
X00010817Y00002991D01*
X00010987Y00002968D01*
X00011153Y00002928D01*
X00011315Y00002874D01*
X00011471Y00002805D01*
X00011621Y00002722D01*
X00011762Y00002625D01*
X00011893Y00002516D01*
X00012014Y00002395D01*
X00012123Y00002264D01*
X00012220Y00002123D01*
X00012303Y00001974D01*
X00012372Y00001817D01*
X00012426Y00001655D01*
X00012465Y00001489D01*
X00012489Y00001320D01*
X00012497Y00001149D01*
X00019447Y00001149D01*
X00019447Y00006852D01*
X00019448Y00006883D01*
X00019452Y00006914D01*
X00019458Y00006944D01*
X00019466Y00006974D01*
X00019477Y00007003D01*
X00019490Y00007031D01*
X00019505Y00007058D01*
X00019522Y00007084D01*
X00019541Y00007108D01*
X00019562Y00007131D01*
X00019585Y00007152D01*
X00019609Y00007171D01*
X00019635Y00007188D01*
X00019662Y00007203D01*
X00019690Y00007216D01*
X00019719Y00007227D01*
X00019749Y00007235D01*
X00019779Y00007241D01*
X00019810Y00007245D01*
X00019840Y00007246D01*
X00020096Y00007246D01*
X00020126Y00007245D01*
X00020157Y00007241D01*
X00020187Y00007235D01*
X00020217Y00007227D01*
X00020246Y00007216D01*
X00020274Y00007203D01*
X00020301Y00007188D01*
X00020327Y00007171D01*
X00020351Y00007152D01*
X00020374Y00007131D01*
X00020395Y00007108D01*
X00020414Y00007084D01*
X00020431Y00007058D01*
X00020446Y00007031D01*
X00020459Y00007003D01*
X00020470Y00006974D01*
X00020478Y00006944D01*
X00020484Y00006914D01*
X00020488Y00006883D01*
X00020489Y00006852D01*
X00020489Y00002999D01*
X00020660Y00002991D01*
X00020829Y00002968D01*
X00020996Y00002928D01*
X00021158Y00002874D01*
X00021314Y00002805D01*
X00021463Y00002722D01*
X00021604Y00002625D01*
X00021736Y00002516D01*
X00021856Y00002395D01*
X00021966Y00002264D01*
X00022062Y00002123D01*
X00022145Y00001974D01*
X00022214Y00001817D01*
X00022269Y00001655D01*
X00022308Y00001489D01*
X00022331Y00001320D01*
X00022339Y00001149D01*
X00029289Y00001149D01*
X00029289Y00006852D01*
X00029290Y00006883D01*
X00029294Y00006914D01*
X00029300Y00006944D01*
X00029309Y00006974D01*
X00029319Y00007003D01*
X00029332Y00007031D01*
X00029347Y00007058D01*
X00029364Y00007084D01*
X00029384Y00007108D01*
X00029405Y00007131D01*
X00029427Y00007152D01*
X00029452Y00007171D01*
X00029477Y00007188D01*
X00029504Y00007203D01*
X00029532Y00007216D01*
X00029561Y00007227D01*
X00029591Y00007235D01*
X00029621Y00007241D01*
X00029652Y00007245D01*
X00029683Y00007246D01*
X00029938Y00007246D01*
X00029969Y00007245D01*
X00030000Y00007241D01*
X00030030Y00007235D01*
X00030060Y00007227D01*
X00030089Y00007216D01*
X00030117Y00007203D01*
X00030144Y00007188D01*
X00030169Y00007171D01*
X00030194Y00007152D01*
X00030216Y00007131D01*
X00030237Y00007108D01*
X00030257Y00007084D01*
X00030274Y00007058D01*
X00030289Y00007031D01*
X00030302Y00007003D01*
X00030313Y00006974D01*
X00030321Y00006944D01*
X00030327Y00006914D01*
X00030331Y00006883D01*
X00030332Y00006852D01*
X00030332Y00002999D01*
X00030502Y00002991D01*
X00030672Y00002968D01*
X00030838Y00002928D01*
X00031000Y00002874D01*
X00031156Y00002805D01*
X00031306Y00002722D01*
X00031447Y00002625D01*
X00031578Y00002516D01*
X00031699Y00002395D01*
X00031808Y00002264D01*
X00031905Y00002123D01*
X00031988Y00001974D01*
X00032057Y00001817D01*
X00032111Y00001655D01*
X00032150Y00001489D01*
X00032174Y00001320D01*
X00032182Y00001149D01*
X00039132Y00001149D01*
X00039132Y00014849D01*
X00035823Y00014849D01*
X00035792Y00014850D01*
X00035761Y00014854D01*
X00035731Y00014860D01*
X00035701Y00014868D01*
X00035672Y00014879D01*
X00035644Y00014892D01*
X00035617Y00014907D01*
X00035591Y00014924D01*
X00035567Y00014943D01*
X00035544Y00014964D01*
X00035523Y00014987D01*
X00035504Y00015011D01*
X00035487Y00015037D01*
X00035472Y00015064D01*
X00035459Y00015092D01*
X00035448Y00015121D01*
X00035440Y00015151D01*
X00035434Y00015181D01*
X00035430Y00015212D01*
X00035429Y00015243D01*
X00035429Y00015716D01*
X00035430Y00015747D01*
X00035434Y00015778D01*
X00035440Y00015808D01*
X00035448Y00015838D01*
X00035459Y00015867D01*
X00035472Y00015895D01*
X00035487Y00015922D01*
X00035504Y00015947D01*
X00035523Y00015972D01*
X00035544Y00015994D01*
X00035567Y00016015D01*
X00035591Y00016035D01*
X00035617Y00016052D01*
X00035644Y00016067D01*
X00035672Y00016080D01*
X00035701Y00016090D01*
X00035731Y00016099D01*
X00035761Y00016105D01*
X00035792Y00016109D01*
X00035823Y00016110D01*
X00039132Y00016110D01*
X00039132Y00029810D01*
X00030332Y00029810D01*
X00030332Y00024107D01*
X00030331Y00024076D01*
X00030327Y00024045D01*
X00030321Y00024015D01*
X00030313Y00023985D01*
X00030302Y00023956D01*
X00030289Y00023928D01*
X00030274Y00023901D01*
X00030257Y00023875D01*
X00030237Y00023851D01*
X00030216Y00023828D01*
X00030194Y00023807D01*
X00030169Y00023788D01*
X00030144Y00023771D01*
X00030117Y00023756D01*
X00030089Y00023743D01*
X00030060Y00023732D01*
X00030030Y00023724D01*
X00030000Y00023718D01*
X00029969Y00023714D01*
X00029938Y00023713D01*
X00029683Y00023713D01*
X00029652Y00023714D01*
X00029621Y00023718D01*
X00029591Y00023724D01*
X00029561Y00023732D01*
X00029532Y00023743D01*
X00029504Y00023756D01*
X00029477Y00023771D01*
X00029452Y00023788D01*
X00029427Y00023807D01*
X00029405Y00023828D01*
X00029384Y00023851D01*
X00029364Y00023875D01*
X00029347Y00023901D01*
X00029332Y00023928D01*
X00029319Y00023956D01*
X00029309Y00023985D01*
X00029300Y00024015D01*
X00029294Y00024045D01*
X00029290Y00024076D01*
X00029289Y00024107D01*
X00029289Y00029810D01*
X00020489Y00029810D01*
X00020489Y00024107D01*
X00020488Y00024076D01*
X00020484Y00024045D01*
X00020478Y00024015D01*
X00020470Y00023985D01*
X00020459Y00023956D01*
X00020446Y00023928D01*
X00020431Y00023901D01*
X00020414Y00023875D01*
X00020395Y00023851D01*
X00020374Y00023828D01*
X00020351Y00023807D01*
X00020327Y00023788D01*
X00020301Y00023771D01*
X00020274Y00023756D01*
X00020246Y00023743D01*
X00020217Y00023732D01*
X00020187Y00023724D01*
X00020157Y00023718D01*
X00020126Y00023714D01*
X00020096Y00023713D01*
X00019840Y00023713D01*
X00019810Y00023714D01*
X00019779Y00023718D01*
X00019749Y00023724D01*
X00019719Y00023732D01*
X00019690Y00023743D01*
X00019662Y00023756D01*
X00019635Y00023771D01*
X00019609Y00023788D01*
X00019585Y00023807D01*
X00019562Y00023828D01*
X00019541Y00023851D01*
X00019522Y00023875D01*
X00019505Y00023901D01*
X00019490Y00023928D01*
X00019477Y00023956D01*
X00019466Y00023985D01*
X00019458Y00024015D01*
X00019452Y00024045D01*
X00019448Y00024076D01*
X00019447Y00024107D01*
X00019447Y00029810D01*
X00010647Y00029810D01*
X00010647Y00024107D01*
X00010646Y00024076D01*
X00010642Y00024045D01*
X00010636Y00024015D01*
X00010627Y00023985D01*
X00010617Y00023956D01*
X00010604Y00023928D01*
X00010589Y00023901D01*
X00010572Y00023875D01*
X00010552Y00023851D01*
X00010531Y00023828D01*
X00010509Y00023807D01*
X00010484Y00023788D01*
X00010459Y00023771D01*
X00010432Y00023756D01*
X00010404Y00023743D01*
X00010375Y00023732D01*
X00010345Y00023724D01*
X00010315Y00023718D01*
X00010284Y00023714D01*
X00010253Y00023713D01*
X00009998Y00023713D01*
X00009967Y00023714D01*
X00009936Y00023718D01*
X00009906Y00023724D01*
X00009876Y00023732D01*
X00009847Y00023743D01*
X00009819Y00023756D01*
X00009792Y00023771D01*
X00009767Y00023788D01*
X00009742Y00023807D01*
X00009720Y00023828D01*
X00009699Y00023851D01*
X00009679Y00023875D01*
X00009662Y00023901D01*
X00009647Y00023928D01*
X00009634Y00023956D01*
X00009623Y00023985D01*
X00009615Y00024015D01*
X00009609Y00024045D01*
X00009605Y00024076D01*
X00009604Y00024107D01*
X00009604Y00029810D01*
X00000804Y00029810D01*
X00000804Y00017960D01*
X00000975Y00017952D01*
X00001144Y00017928D01*
X00001310Y00017889D01*
X00001473Y00017835D01*
X00001629Y00017766D01*
X00001778Y00017683D01*
X00001919Y00017586D01*
X00002051Y00017477D01*
X00002171Y00017356D01*
X00002281Y00017225D01*
X00002377Y00017084D01*
X00002460Y00016934D01*
X00002529Y00016778D01*
X00002584Y00016616D01*
X00002623Y00016450D01*
X00002646Y00016280D01*
X00002654Y00016110D01*
X00004113Y00016110D01*
X00004144Y00016109D01*
X00004175Y00016105D01*
X00004205Y00016099D01*
X00004235Y00016090D01*
X00004264Y00016080D01*
X00004292Y00016067D01*
X00004319Y00016052D01*
X00004345Y00016035D01*
X00004369Y00016015D01*
X00004392Y00015994D01*
X00004413Y00015972D01*
X00004432Y00015947D01*
X00004449Y00015922D01*
X00004464Y00015895D01*
X00004477Y00015867D01*
X00004488Y00015838D01*
X00004496Y00015808D01*
X00004502Y00015778D01*
X00004506Y00015747D01*
X00004507Y00015716D01*
X00004507Y00015243D01*
X00004506Y00015212D01*
X00004502Y00015181D01*
X00004496Y00015151D01*
X00004488Y00015121D01*
X00004477Y00015092D01*
X00004464Y00015064D01*
X00004449Y00015037D01*
X00004432Y00015011D01*
X00004413Y00014987D01*
X00004392Y00014964D01*
X00004369Y00014943D01*
X00004345Y00014924D01*
X00004319Y00014907D01*
X00004292Y00014892D01*
X00004264Y00014879D01*
X00004235Y00014868D01*
X00004205Y00014860D01*
X00004175Y00014854D01*
X00004144Y00014850D01*
X00004113Y00014849D01*
X00000804Y00014849D01*
X00000804Y00002999D01*
X00000975Y00002991D01*
X00001144Y00002968D01*
X00001310Y00002928D01*
X00001473Y00002874D01*
X00001629Y00002805D01*
X00001778Y00002722D01*
X00001919Y00002625D01*
X00002051Y00002516D01*
X00002171Y00002395D01*
X00002281Y00002264D01*
X00002377Y00002123D01*
X00002460Y00001974D01*
X00002529Y00001817D01*
X00002584Y00001655D01*
X00002623Y00001489D01*
X00002646Y00001320D01*
X00002654Y00001149D01*
M02*