%
M48
METRIC,000.000
T01C0.40
T02C0.99
T03C0.99
%
T01
X005346Y021208
X005727Y012765
X006108Y028066
X009028Y007111
X010807Y019176
X012203Y017906
X012712Y030098
X013855Y026796
X014998Y013587
X018299Y033019
X018299Y031367
X018299Y010286
X020840Y013079
X022745Y033400
X023253Y034543
X030346Y021208
X030727Y012765
X031108Y028066
X034029Y007111
X035807Y019176
X037203Y017906
X037712Y030098
X038855Y026796
X039998Y013587
X043300Y033019
X043300Y031367
X043300Y010286
X045840Y013079
X047745Y033400
X048253Y034543
X055346Y021208
X055727Y012765
X056108Y028066
X059029Y007111
X060807Y019176
X062203Y017906
X062712Y030098
X063855Y026796
X064998Y013587
X068300Y033019
X068300Y031367
X068300Y010286
X070840Y013079
X072745Y033400
X073253Y034543
X080346Y021208
X080727Y012765
X081108Y028066
X084029Y007111
X085807Y019176
X087204Y017906
X087712Y030098
X088855Y026796
X089998Y013587
X093300Y033019
X093300Y031367
X093300Y010286
X095840Y013079
X097745Y033400
X098253Y034543
X005346Y059208
X005727Y050765
X006108Y066066
X009028Y045111
X010807Y057176
X012203Y055906
X012712Y068098
X013855Y064796
X014998Y051587
X018299Y071019
X018299Y069368
X018299Y048286
X020840Y051080
X022745Y071400
X023253Y072543
X030346Y059208
X030727Y050765
X031108Y066066
X034029Y045111
X035807Y057176
X037203Y055906
X037712Y068098
X038855Y064796
X039998Y051587
X043300Y071019
X043300Y069368
X043300Y048286
X045840Y051080
X047745Y071400
X048253Y072543
X055346Y059208
X055727Y050765
X056108Y066066
X059029Y045111
X060807Y057176
X062203Y055906
X062712Y068098
X063855Y064796
X064998Y051587
X068300Y071019
X068300Y069368
X068300Y048286
X070840Y051080
X072745Y071400
X073253Y072543
X080346Y059208
X080727Y050765
X081108Y066066
X084029Y045111
X085807Y057176
X087204Y055906
X087712Y068098
X088855Y064796
X089998Y051587
X093300Y071019
X093300Y069368
X093300Y048286
X095840Y051080
X097745Y071400
X098253Y072543
T02
X019823Y035940
X021855Y035940
X044824Y035940
X046855Y035940
X045840Y030860
X069824Y035940
X071856Y035940
X070840Y030860
X094824Y035940
X096856Y035940
X095840Y030860
X019823Y073940
X021855Y073940
X020840Y068860
X044824Y073940
X046855Y073940
X045840Y068860
X069824Y073940
X071856Y073940
X070840Y068860
X094824Y073940
X096856Y073940
X095840Y068860
T03
X020840Y030860
M30