%MOIN*%
%OFA0B0*%
%FSLAX46Y46*%
%IPPOS*%
%LPD*%
%ADD10C,0.0039370078740157488*%
%ADD11C,0.00984251968503937*%
%ADD12R,0.18110236220472439X0.14173228346456693*%
%ADD13C,0.0309*%
%ADD14C,0.023622047244094488*%
%ADD15C,0.01*%
%ADD26C,0.0039370078740157488*%
%ADD27C,0.00984251968503937*%
%ADD28R,0.18110236220472439X0.14173228346456693*%
%ADD29C,0.0309*%
%ADD30C,0.023622047244094488*%
%ADD31C,0.01*%
%ADD42C,0.0039370078740157488*%
%ADD43C,0.00984251968503937*%
%ADD44R,0.18110236220472439X0.14173228346456693*%
%ADD45C,0.0309*%
%ADD46C,0.023622047244094488*%
%ADD47C,0.01*%
%ADD58C,0.0039370078740157488*%
%ADD59C,0.00984251968503937*%
%ADD60R,0.18110236220472439X0.14173228346456693*%
%ADD61C,0.0309*%
%ADD62C,0.023622047244094488*%
%ADD63C,0.01*%
%ADD74C,0.0039370078740157488*%
%ADD75C,0.00984251968503937*%
%ADD76R,0.18110236220472439X0.14173228346456693*%
%ADD77C,0.0309*%
%ADD78C,0.023622047244094488*%
%ADD79C,0.01*%
%ADD90C,0.0039370078740157488*%
%ADD91C,0.00984251968503937*%
%ADD92R,0.18110236220472439X0.14173228346456693*%
%ADD93C,0.0309*%
%ADD94C,0.023622047244094488*%
%ADD95C,0.01*%
%ADD106C,0.0039370078740157488*%
%ADD107C,0.00984251968503937*%
%ADD108R,0.18110236220472439X0.14173228346456693*%
%ADD109C,0.0309*%
%ADD110C,0.023622047244094488*%
%ADD111C,0.01*%
%ADD122C,0.0039370078740157488*%
%ADD123C,0.00984251968503937*%
%ADD124R,0.18110236220472439X0.14173228346456693*%
%ADD125C,0.0309*%
%ADD126C,0.023622047244094488*%
%ADD127C,0.01*%
%LPD*%
G01*
D10*
D11*
X0000143916Y0001436520D02*
X0000166413Y0001436520D01*
X0000155164Y0001397150D02*
X0000155164Y0001436520D01*
X0000187034Y0001436520D02*
X0000194535Y0001436520D01*
X0000198284Y0001434645D01*
X0000202034Y0001430896D01*
X0000203908Y0001423397D01*
X0000203908Y0001410273D01*
X0000202034Y0001402774D01*
X0000198284Y0001399025D01*
X0000194535Y0001397150D01*
X0000187034Y0001397150D01*
X0000183286Y0001399025D01*
X0000179536Y0001402774D01*
X0000177662Y0001410273D01*
X0000177662Y0001423397D01*
X0000179536Y0001430896D01*
X0000183286Y0001434645D01*
X0000187034Y0001436520D01*
X0000220781Y0001397150D02*
X0000220781Y0001436520D01*
X0000235779Y0001436520D01*
X0000239529Y0001434645D01*
X0000241404Y0001432770D01*
X0000243277Y0001429021D01*
X0000243277Y0001423397D01*
X0000241404Y0001419647D01*
X0000239529Y0001417772D01*
X0000235779Y0001415897D01*
X0000220781Y0001415897D01*
D12*
X0000520472Y0000217283D03*
X0000520472Y0001382637D03*
D13*
X0000845472Y0001264960D03*
X0000795472Y0001264960D03*
X0000845472Y0001314960D03*
X0000795472Y0001314960D03*
X0000845472Y0001364960D03*
X0000795472Y0001364960D03*
D14*
X0000915472Y0001359960D03*
X0000425472Y0000754960D03*
X0000225472Y0000502559D03*
X0000210472Y0000834960D03*
X0000355472Y0000279960D03*
X0000500472Y0001184960D03*
X0000720472Y0000404960D03*
X0000480472Y0000704960D03*
X0000545472Y0001054960D03*
X0000240472Y0001104960D03*
X0000720472Y0001234960D03*
X0000720472Y0001299960D03*
X0000895472Y0001314960D03*
X0000590472Y0000534960D03*
X0000820471Y0000514960D03*
D11*
X0000910472Y0001364960D02*
X0000845472Y0001364960D01*
X0000915472Y0001359960D02*
X0000910472Y0001364960D01*
X0000420472Y0000749960D02*
X0000420472Y0000684960D01*
X0000425472Y0000754960D02*
X0000420472Y0000749960D01*
X0000210472Y0000679960D02*
X0000425472Y0000679960D01*
X0000520472Y0000584960D02*
X0000520472Y0000288149D01*
X0000425472Y0000679960D02*
X0000520472Y0000584960D01*
X0000210472Y0000517559D02*
X0000210472Y0000679960D01*
X0000210472Y0000679960D02*
X0000210472Y0000834960D01*
X0000225472Y0000502559D02*
X0000210472Y0000517559D01*
X0000438661Y0000288149D02*
X0000520472Y0000288149D01*
X0000410472Y0000279960D02*
X0000430472Y0000279960D01*
X0000355472Y0000279960D02*
X0000410472Y0000279960D01*
X0000430472Y0000279960D02*
X0000438661Y0000288149D01*
X0000520472Y0001224960D02*
X0000520472Y0001204960D01*
X0000520472Y0001224960D02*
X0000520472Y0001311771D01*
X0000520472Y0001204960D02*
X0000500472Y0001184960D01*
X0000845472Y0001264960D02*
X0000845472Y0001259960D01*
X0000845472Y0001259960D02*
X0000880472Y0001224960D01*
X0000880472Y0001224960D02*
X0000880472Y0001169960D01*
X0000880472Y0001169960D02*
X0000765471Y0001054960D01*
X0000765471Y0001054960D02*
X0000545472Y0001054960D01*
X0000560472Y0000624960D02*
X0000480472Y0000704960D01*
X0000560472Y0000494959D02*
X0000560472Y0000624960D01*
X0000600472Y0000454960D02*
X0000560472Y0000494959D01*
X0000670472Y0000454960D02*
X0000600472Y0000454960D01*
X0000720472Y0000404960D02*
X0000670472Y0000454960D01*
X0000545472Y0001054960D02*
X0000545472Y0000874960D01*
X0000480472Y0000809960D02*
X0000545472Y0000874960D01*
X0000480472Y0000809960D02*
X0000480472Y0000704960D01*
X0000290472Y0001054960D02*
X0000545472Y0001054960D01*
X0000240472Y0001104960D02*
X0000290472Y0001054960D01*
X0000750471Y0001264960D02*
X0000795472Y0001264960D01*
X0000720472Y0001234960D02*
X0000750471Y0001264960D01*
X0000735472Y0001314960D02*
X0000795472Y0001314960D01*
X0000720472Y0001299960D02*
X0000735472Y0001314960D01*
X0000895472Y0001314960D02*
X0000845472Y0001314960D01*
X0000610472Y0000514960D02*
X0000590472Y0000534960D01*
X0000820471Y0000514960D02*
X0000610472Y0000514960D01*
D15*
G36*
X0000404431Y0001453503D02*
X0000404431Y0001311771D01*
X0000406174Y0001302506D01*
X0000411650Y0001293998D01*
X0000420004Y0001288289D01*
X0000429921Y0001286281D01*
X0000490551Y0001286281D01*
X0000490551Y0001220690D01*
X0000479647Y0001216185D01*
X0000469283Y0001205839D01*
X0000463667Y0001192314D01*
X0000463655Y0001177670D01*
X0000469247Y0001164136D01*
X0000479593Y0001153771D01*
X0000493118Y0001148155D01*
X0000507762Y0001148143D01*
X0000521296Y0001153735D01*
X0000531661Y0001164081D01*
X0000537277Y0001177606D01*
X0000537278Y0001179451D01*
X0000541629Y0001183803D01*
X0000545646Y0001189814D01*
X0000548116Y0001193510D01*
X0000550393Y0001204960D01*
X0000550393Y0001286281D01*
X0000611023Y0001286281D01*
X0000620288Y0001288025D01*
X0000628796Y0001293500D01*
X0000634505Y0001301854D01*
X0000636513Y0001311771D01*
X0000636513Y0001453503D01*
X0000636239Y0001454960D01*
X0000761012Y0001454960D01*
X0000755354Y0001452623D01*
X0000742853Y0001440143D01*
X0000736080Y0001423831D01*
X0000736063Y0001406167D01*
X0000742809Y0001389842D01*
X0000755289Y0001377342D01*
X0000756590Y0001376801D01*
X0000755029Y0001373041D01*
X0000755015Y0001356949D01*
X0000760001Y0001344881D01*
X0000735472Y0001344881D01*
X0000724022Y0001342604D01*
X0000715299Y0001336776D01*
X0000713182Y0001336778D01*
X0000699646Y0001331184D01*
X0000689283Y0001320839D01*
X0000683667Y0001307314D01*
X0000683654Y0001292670D01*
X0000689247Y0001279136D01*
X0000699593Y0001268771D01*
X0000702742Y0001267464D01*
X0000699646Y0001266185D01*
X0000689283Y0001255839D01*
X0000683667Y0001242314D01*
X0000683654Y0001227670D01*
X0000689247Y0001214136D01*
X0000699593Y0001203771D01*
X0000713118Y0001198155D01*
X0000727762Y0001198143D01*
X0000741296Y0001203735D01*
X0000751661Y0001214081D01*
X0000757277Y0001227606D01*
X0000757277Y0001229451D01*
X0000762866Y0001235039D01*
X0000768185Y0001235039D01*
X0000772529Y0001230688D01*
X0000777940Y0001228441D01*
X0000776030Y0001223841D01*
X0000776014Y0001206157D01*
X0000782767Y0001189814D01*
X0000795260Y0001177299D01*
X0000811591Y0001170518D01*
X0000829275Y0001170502D01*
X0000845335Y0001177138D01*
X0000753078Y0001084881D01*
X0000567616Y0001084881D01*
X0000566351Y0001086149D01*
X0000552826Y0001091765D01*
X0000538182Y0001091777D01*
X0000524647Y0001086185D01*
X0000523340Y0001084881D01*
X0000302866Y0001084881D01*
X0000277288Y0001110459D01*
X0000277289Y0001112250D01*
X0000271697Y0001125785D01*
X0000261351Y0001136149D01*
X0000247826Y0001141765D01*
X0000233182Y0001141777D01*
X0000219646Y0001136185D01*
X0000209282Y0001125839D01*
X0000203667Y0001112314D01*
X0000203655Y0001097670D01*
X0000209247Y0001084136D01*
X0000219593Y0001073771D01*
X0000233117Y0001068155D01*
X0000234963Y0001068154D01*
X0000269314Y0001033803D01*
X0000279022Y0001027317D01*
X0000290472Y0001025039D01*
X0000515551Y0001025039D01*
X0000515551Y0000887354D01*
X0000459314Y0000831117D01*
X0000452828Y0000821410D01*
X0000450551Y0000809960D01*
X0000450551Y0000727104D01*
X0000449283Y0000725839D01*
X0000443666Y0000712314D01*
X0000443655Y0000697669D01*
X0000449247Y0000684136D01*
X0000459593Y0000673771D01*
X0000473118Y0000668155D01*
X0000474963Y0000668154D01*
X0000530551Y0000612566D01*
X0000530551Y0000494959D01*
X0000532828Y0000483510D01*
X0000539314Y0000473803D01*
X0000579314Y0000433803D01*
X0000589022Y0000427317D01*
X0000600472Y0000425039D01*
X0000658078Y0000425039D01*
X0000683656Y0000399461D01*
X0000683654Y0000397670D01*
X0000689247Y0000384136D01*
X0000699593Y0000373771D01*
X0000713118Y0000368155D01*
X0000727762Y0000368143D01*
X0000741296Y0000373735D01*
X0000751661Y0000384081D01*
X0000757277Y0000397606D01*
X0000757289Y0000412250D01*
X0000751697Y0000425785D01*
X0000741351Y0000436149D01*
X0000727826Y0000441765D01*
X0000725981Y0000441766D01*
X0000691629Y0000476118D01*
X0000681922Y0000482604D01*
X0000670472Y0000484881D01*
X0000612866Y0000484881D01*
X0000612708Y0000485039D01*
X0000798328Y0000485039D01*
X0000799593Y0000483771D01*
X0000813117Y0000478155D01*
X0000827762Y0000478143D01*
X0000841295Y0000483735D01*
X0000851661Y0000494081D01*
X0000857277Y0000507606D01*
X0000857289Y0000522250D01*
X0000851697Y0000535785D01*
X0000841351Y0000546149D01*
X0000827826Y0000551765D01*
X0000813182Y0000551778D01*
X0000799646Y0000546185D01*
X0000798341Y0000544881D01*
X0000626202Y0000544881D01*
X0000621697Y0000555785D01*
X0000611351Y0000566149D01*
X0000597826Y0000571765D01*
X0000590393Y0000571771D01*
X0000590393Y0000624960D01*
X0000588116Y0000636410D01*
X0000581629Y0000646118D01*
X0000517287Y0000710459D01*
X0000517289Y0000712250D01*
X0000511696Y0000725785D01*
X0000510393Y0000727091D01*
X0000510393Y0000797566D01*
X0000566629Y0000853802D01*
X0000573116Y0000863510D01*
X0000575393Y0000874960D01*
X0000575393Y0001025039D01*
X0000755488Y0001025039D01*
X0000755472Y0001024960D01*
X0000755472Y0000939960D01*
X0000605472Y0000939960D01*
X0000603655Y0000939618D01*
X0000601986Y0000938543D01*
X0000600866Y0000936905D01*
X0000600472Y0000934960D01*
X0000600472Y0000774960D01*
X0000600814Y0000773143D01*
X0000601888Y0000771474D01*
X0000603527Y0000770354D01*
X0000605472Y0000769960D01*
X0000755472Y0000769960D01*
X0000755472Y0000559960D01*
X0000755814Y0000558143D01*
X0000756888Y0000556474D01*
X0000758527Y0000555354D01*
X0000760472Y0000554960D01*
X0000932519Y0000554960D01*
X0000932519Y0000144960D01*
X0000636022Y0000144960D01*
X0000636022Y0000206033D01*
X0000629773Y0000212283D01*
X0000525472Y0000212283D01*
X0000525472Y0000211496D01*
X0000515472Y0000211496D01*
X0000515472Y0000212283D01*
X0000411170Y0000212283D01*
X0000404921Y0000206033D01*
X0000404921Y0000144960D01*
X0000288005Y0000144960D01*
X0000285472Y0000157694D01*
X0000285472Y0000293122D01*
X0000404921Y0000293122D01*
X0000404921Y0000228533D01*
X0000411170Y0000222283D01*
X0000515472Y0000222283D01*
X0000515472Y0000306899D01*
X0000525472Y0000306899D01*
X0000525472Y0000222283D01*
X0000629773Y0000222283D01*
X0000636022Y0000228533D01*
X0000636022Y0000293122D01*
X0000632217Y0000302310D01*
X0000625185Y0000309343D01*
X0000615996Y0000313149D01*
X0000531722Y0000313149D01*
X0000525472Y0000306899D01*
X0000515472Y0000306899D01*
X0000509221Y0000313149D01*
X0000424948Y0000313149D01*
X0000415758Y0000309343D01*
X0000408727Y0000302310D01*
X0000404921Y0000293122D01*
X0000285472Y0000293122D01*
X0000285472Y0000314960D01*
X0000285078Y0000316905D01*
X0000283958Y0000318544D01*
X0000282289Y0000319618D01*
X0000280472Y0000319960D01*
X0000130472Y0000319960D01*
X0000130472Y0001353543D01*
X0000275777Y0001353543D01*
X0000275777Y0001454960D01*
X0000404726Y0001454960D01*
X0000404431Y0001453503D01*
X0000404431Y0001453503D01*
G37*
X0000404431Y0001453503D02*
X0000404431Y0001311771D01*
X0000406174Y0001302506D01*
X0000411650Y0001293998D01*
X0000420004Y0001288289D01*
X0000429921Y0001286281D01*
X0000490551Y0001286281D01*
X0000490551Y0001220690D01*
X0000479647Y0001216185D01*
X0000469283Y0001205839D01*
X0000463667Y0001192314D01*
X0000463655Y0001177670D01*
X0000469247Y0001164136D01*
X0000479593Y0001153771D01*
X0000493118Y0001148155D01*
X0000507762Y0001148143D01*
X0000521296Y0001153735D01*
X0000531661Y0001164081D01*
X0000537277Y0001177606D01*
X0000537278Y0001179451D01*
X0000541629Y0001183803D01*
X0000545646Y0001189814D01*
X0000548116Y0001193510D01*
X0000550393Y0001204960D01*
X0000550393Y0001286281D01*
X0000611023Y0001286281D01*
X0000620288Y0001288025D01*
X0000628796Y0001293500D01*
X0000634505Y0001301854D01*
X0000636513Y0001311771D01*
X0000636513Y0001453503D01*
X0000636239Y0001454960D01*
X0000761012Y0001454960D01*
X0000755354Y0001452623D01*
X0000742853Y0001440143D01*
X0000736080Y0001423831D01*
X0000736063Y0001406167D01*
X0000742809Y0001389842D01*
X0000755289Y0001377342D01*
X0000756590Y0001376801D01*
X0000755029Y0001373041D01*
X0000755015Y0001356949D01*
X0000760001Y0001344881D01*
X0000735472Y0001344881D01*
X0000724022Y0001342604D01*
X0000715299Y0001336776D01*
X0000713182Y0001336778D01*
X0000699646Y0001331184D01*
X0000689283Y0001320839D01*
X0000683667Y0001307314D01*
X0000683654Y0001292670D01*
X0000689247Y0001279136D01*
X0000699593Y0001268771D01*
X0000702742Y0001267464D01*
X0000699646Y0001266185D01*
X0000689283Y0001255839D01*
X0000683667Y0001242314D01*
X0000683654Y0001227670D01*
X0000689247Y0001214136D01*
X0000699593Y0001203771D01*
X0000713118Y0001198155D01*
X0000727762Y0001198143D01*
X0000741296Y0001203735D01*
X0000751661Y0001214081D01*
X0000757277Y0001227606D01*
X0000757277Y0001229451D01*
X0000762866Y0001235039D01*
X0000768185Y0001235039D01*
X0000772529Y0001230688D01*
X0000777940Y0001228441D01*
X0000776030Y0001223841D01*
X0000776014Y0001206157D01*
X0000782767Y0001189814D01*
X0000795260Y0001177299D01*
X0000811591Y0001170518D01*
X0000829275Y0001170502D01*
X0000845335Y0001177138D01*
X0000753078Y0001084881D01*
X0000567616Y0001084881D01*
X0000566351Y0001086149D01*
X0000552826Y0001091765D01*
X0000538182Y0001091777D01*
X0000524647Y0001086185D01*
X0000523340Y0001084881D01*
X0000302866Y0001084881D01*
X0000277288Y0001110459D01*
X0000277289Y0001112250D01*
X0000271697Y0001125785D01*
X0000261351Y0001136149D01*
X0000247826Y0001141765D01*
X0000233182Y0001141777D01*
X0000219646Y0001136185D01*
X0000209282Y0001125839D01*
X0000203667Y0001112314D01*
X0000203655Y0001097670D01*
X0000209247Y0001084136D01*
X0000219593Y0001073771D01*
X0000233117Y0001068155D01*
X0000234963Y0001068154D01*
X0000269314Y0001033803D01*
X0000279022Y0001027317D01*
X0000290472Y0001025039D01*
X0000515551Y0001025039D01*
X0000515551Y0000887354D01*
X0000459314Y0000831117D01*
X0000452828Y0000821410D01*
X0000450551Y0000809960D01*
X0000450551Y0000727104D01*
X0000449283Y0000725839D01*
X0000443666Y0000712314D01*
X0000443655Y0000697669D01*
X0000449247Y0000684136D01*
X0000459593Y0000673771D01*
X0000473118Y0000668155D01*
X0000474963Y0000668154D01*
X0000530551Y0000612566D01*
X0000530551Y0000494959D01*
X0000532828Y0000483510D01*
X0000539314Y0000473803D01*
X0000579314Y0000433803D01*
X0000589022Y0000427317D01*
X0000600472Y0000425039D01*
X0000658078Y0000425039D01*
X0000683656Y0000399461D01*
X0000683654Y0000397670D01*
X0000689247Y0000384136D01*
X0000699593Y0000373771D01*
X0000713118Y0000368155D01*
X0000727762Y0000368143D01*
X0000741296Y0000373735D01*
X0000751661Y0000384081D01*
X0000757277Y0000397606D01*
X0000757289Y0000412250D01*
X0000751697Y0000425785D01*
X0000741351Y0000436149D01*
X0000727826Y0000441765D01*
X0000725981Y0000441766D01*
X0000691629Y0000476118D01*
X0000681922Y0000482604D01*
X0000670472Y0000484881D01*
X0000612866Y0000484881D01*
X0000612708Y0000485039D01*
X0000798328Y0000485039D01*
X0000799593Y0000483771D01*
X0000813117Y0000478155D01*
X0000827762Y0000478143D01*
X0000841295Y0000483735D01*
X0000851661Y0000494081D01*
X0000857277Y0000507606D01*
X0000857289Y0000522250D01*
X0000851697Y0000535785D01*
X0000841351Y0000546149D01*
X0000827826Y0000551765D01*
X0000813182Y0000551778D01*
X0000799646Y0000546185D01*
X0000798341Y0000544881D01*
X0000626202Y0000544881D01*
X0000621697Y0000555785D01*
X0000611351Y0000566149D01*
X0000597826Y0000571765D01*
X0000590393Y0000571771D01*
X0000590393Y0000624960D01*
X0000588116Y0000636410D01*
X0000581629Y0000646118D01*
X0000517287Y0000710459D01*
X0000517289Y0000712250D01*
X0000511696Y0000725785D01*
X0000510393Y0000727091D01*
X0000510393Y0000797566D01*
X0000566629Y0000853802D01*
X0000573116Y0000863510D01*
X0000575393Y0000874960D01*
X0000575393Y0001025039D01*
X0000755488Y0001025039D01*
X0000755472Y0001024960D01*
X0000755472Y0000939960D01*
X0000605472Y0000939960D01*
X0000603655Y0000939618D01*
X0000601986Y0000938543D01*
X0000600866Y0000936905D01*
X0000600472Y0000934960D01*
X0000600472Y0000774960D01*
X0000600814Y0000773143D01*
X0000601888Y0000771474D01*
X0000603527Y0000770354D01*
X0000605472Y0000769960D01*
X0000755472Y0000769960D01*
X0000755472Y0000559960D01*
X0000755814Y0000558143D01*
X0000756888Y0000556474D01*
X0000758527Y0000555354D01*
X0000760472Y0000554960D01*
X0000932519Y0000554960D01*
X0000932519Y0000144960D01*
X0000636022Y0000144960D01*
X0000636022Y0000206033D01*
X0000629773Y0000212283D01*
X0000525472Y0000212283D01*
X0000525472Y0000211496D01*
X0000515472Y0000211496D01*
X0000515472Y0000212283D01*
X0000411170Y0000212283D01*
X0000404921Y0000206033D01*
X0000404921Y0000144960D01*
X0000288005Y0000144960D01*
X0000285472Y0000157694D01*
X0000285472Y0000293122D01*
X0000404921Y0000293122D01*
X0000404921Y0000228533D01*
X0000411170Y0000222283D01*
X0000515472Y0000222283D01*
X0000515472Y0000306899D01*
X0000525472Y0000306899D01*
X0000525472Y0000222283D01*
X0000629773Y0000222283D01*
X0000636022Y0000228533D01*
X0000636022Y0000293122D01*
X0000632217Y0000302310D01*
X0000625185Y0000309343D01*
X0000615996Y0000313149D01*
X0000531722Y0000313149D01*
X0000525472Y0000306899D01*
X0000515472Y0000306899D01*
X0000509221Y0000313149D01*
X0000424948Y0000313149D01*
X0000415758Y0000309343D01*
X0000408727Y0000302310D01*
X0000404921Y0000293122D01*
X0000285472Y0000293122D01*
X0000285472Y0000314960D01*
X0000285078Y0000316905D01*
X0000283958Y0000318544D01*
X0000282289Y0000319618D01*
X0000280472Y0000319960D01*
X0000130472Y0000319960D01*
X0000130472Y0001353543D01*
X0000275777Y0001353543D01*
X0000275777Y0001454960D01*
X0000404726Y0001454960D01*
X0000404431Y0001453503D01*
G36*
X0000932519Y0001029960D02*
X0000780878Y0001029960D01*
X0000786629Y0001033803D01*
X0000901629Y0001148803D01*
X0000908116Y0001158510D01*
X0000910393Y0001169960D01*
X0000910393Y0001224960D01*
X0000908116Y0001236410D01*
X0000901629Y0001246118D01*
X0000885919Y0001261828D01*
X0000885929Y0001272971D01*
X0000882890Y0001280325D01*
X0000888118Y0001278155D01*
X0000902762Y0001278143D01*
X0000916296Y0001283735D01*
X0000926661Y0001294081D01*
X0000932277Y0001307606D01*
X0000932288Y0001322250D01*
X0000926697Y0001335785D01*
X0000916351Y0001346149D01*
X0000902825Y0001351765D01*
X0000888182Y0001351778D01*
X0000883041Y0001349654D01*
X0000886446Y0001360265D01*
X0000885124Y0001376303D01*
X0000884839Y0001376987D01*
X0000885590Y0001377298D01*
X0000898090Y0001389777D01*
X0000904864Y0001406090D01*
X0000904880Y0001423753D01*
X0000898134Y0001440078D01*
X0000885655Y0001452579D01*
X0000879920Y0001454960D01*
X0000932519Y0001454960D01*
X0000932519Y0001029960D01*
X0000932519Y0001029960D01*
G37*
X0000932519Y0001029960D02*
X0000780878Y0001029960D01*
X0000786629Y0001033803D01*
X0000901629Y0001148803D01*
X0000908116Y0001158510D01*
X0000910393Y0001169960D01*
X0000910393Y0001224960D01*
X0000908116Y0001236410D01*
X0000901629Y0001246118D01*
X0000885919Y0001261828D01*
X0000885929Y0001272971D01*
X0000882890Y0001280325D01*
X0000888118Y0001278155D01*
X0000902762Y0001278143D01*
X0000916296Y0001283735D01*
X0000926661Y0001294081D01*
X0000932277Y0001307606D01*
X0000932288Y0001322250D01*
X0000926697Y0001335785D01*
X0000916351Y0001346149D01*
X0000902825Y0001351765D01*
X0000888182Y0001351778D01*
X0000883041Y0001349654D01*
X0000886446Y0001360265D01*
X0000885124Y0001376303D01*
X0000884839Y0001376987D01*
X0000885590Y0001377298D01*
X0000898090Y0001389777D01*
X0000904864Y0001406090D01*
X0000904880Y0001423753D01*
X0000898134Y0001440078D01*
X0000885655Y0001452579D01*
X0000879920Y0001454960D01*
X0000932519Y0001454960D01*
X0000932519Y0001029960D01*
G36*
X0000853100Y0001365517D02*
X0000852543Y0001364960D01*
X0000853100Y0001364402D01*
X0000846029Y0001357332D01*
X0000845472Y0001357889D01*
X0000844915Y0001357332D01*
X0000837844Y0001364402D01*
X0000838401Y0001364960D01*
X0000837844Y0001365517D01*
X0000844915Y0001372588D01*
X0000845472Y0001372031D01*
X0000846029Y0001372588D01*
X0000853100Y0001365517D01*
X0000853100Y0001365517D01*
G37*
X0000853100Y0001365517D02*
X0000852543Y0001364960D01*
X0000853100Y0001364402D01*
X0000846029Y0001357332D01*
X0000845472Y0001357889D01*
X0000844915Y0001357332D01*
X0000837844Y0001364402D01*
X0000838401Y0001364960D01*
X0000837844Y0001365517D01*
X0000844915Y0001372588D01*
X0000845472Y0001372031D01*
X0000846029Y0001372588D01*
X0000853100Y0001365517D01*
G01*
D26*
D27*
X0001128168Y0001436520D02*
X0001150665Y0001436520D01*
X0001139416Y0001397150D02*
X0001139416Y0001436520D01*
X0001171287Y0001436520D02*
X0001178787Y0001436520D01*
X0001182536Y0001434645D01*
X0001186286Y0001430896D01*
X0001188160Y0001423397D01*
X0001188160Y0001410273D01*
X0001186286Y0001402774D01*
X0001182536Y0001399025D01*
X0001178787Y0001397150D01*
X0001171287Y0001397150D01*
X0001167538Y0001399025D01*
X0001163788Y0001402774D01*
X0001161914Y0001410273D01*
X0001161914Y0001423397D01*
X0001163788Y0001430896D01*
X0001167538Y0001434645D01*
X0001171287Y0001436520D01*
X0001205033Y0001397150D02*
X0001205033Y0001436520D01*
X0001220031Y0001436520D01*
X0001223781Y0001434645D01*
X0001225656Y0001432770D01*
X0001227530Y0001429021D01*
X0001227530Y0001423397D01*
X0001225656Y0001419647D01*
X0001223781Y0001417772D01*
X0001220031Y0001415897D01*
X0001205033Y0001415897D01*
D28*
X0001504724Y0000217283D03*
X0001504724Y0001382637D03*
D29*
X0001829724Y0001264960D03*
X0001779724Y0001264960D03*
X0001829724Y0001314960D03*
X0001779724Y0001314960D03*
X0001829724Y0001364960D03*
X0001779724Y0001364960D03*
D30*
X0001899724Y0001359960D03*
X0001409723Y0000754960D03*
X0001209724Y0000502559D03*
X0001194724Y0000834960D03*
X0001339724Y0000279960D03*
X0001484724Y0001184960D03*
X0001704724Y0000404960D03*
X0001464722Y0000704960D03*
X0001529724Y0001054960D03*
X0001224724Y0001104960D03*
X0001704724Y0001234960D03*
X0001704724Y0001299960D03*
X0001879724Y0001314960D03*
X0001574724Y0000534960D03*
X0001804724Y0000514960D03*
D27*
X0001894724Y0001364960D02*
X0001829724Y0001364960D01*
X0001899724Y0001359960D02*
X0001894724Y0001364960D01*
X0001404724Y0000749960D02*
X0001404724Y0000684960D01*
X0001409723Y0000754960D02*
X0001404724Y0000749960D01*
X0001194724Y0000679960D02*
X0001409723Y0000679960D01*
X0001504724Y0000584960D02*
X0001504724Y0000288149D01*
X0001409723Y0000679960D02*
X0001504724Y0000584960D01*
X0001194724Y0000517559D02*
X0001194724Y0000679960D01*
X0001194724Y0000679960D02*
X0001194724Y0000834960D01*
X0001209724Y0000502559D02*
X0001194724Y0000517559D01*
X0001422913Y0000288149D02*
X0001504724Y0000288149D01*
X0001394724Y0000279960D02*
X0001414724Y0000279960D01*
X0001339724Y0000279960D02*
X0001394724Y0000279960D01*
X0001414724Y0000279960D02*
X0001422913Y0000288149D01*
X0001504724Y0001224960D02*
X0001504724Y0001204960D01*
X0001504724Y0001224960D02*
X0001504724Y0001311771D01*
X0001504724Y0001204960D02*
X0001484724Y0001184960D01*
X0001829724Y0001264960D02*
X0001829724Y0001259960D01*
X0001829724Y0001259960D02*
X0001864724Y0001224960D01*
X0001864724Y0001224960D02*
X0001864724Y0001169960D01*
X0001864724Y0001169960D02*
X0001749724Y0001054960D01*
X0001749724Y0001054960D02*
X0001529724Y0001054960D01*
X0001544724Y0000624960D02*
X0001464722Y0000704960D01*
X0001544724Y0000494959D02*
X0001544724Y0000624960D01*
X0001584724Y0000454960D02*
X0001544724Y0000494959D01*
X0001654724Y0000454960D02*
X0001584724Y0000454960D01*
X0001704724Y0000404960D02*
X0001654724Y0000454960D01*
X0001529724Y0001054960D02*
X0001529724Y0000874960D01*
X0001464722Y0000809960D02*
X0001529724Y0000874960D01*
X0001464722Y0000809960D02*
X0001464722Y0000704960D01*
X0001274724Y0001054960D02*
X0001529724Y0001054960D01*
X0001224724Y0001104960D02*
X0001274724Y0001054960D01*
X0001734724Y0001264960D02*
X0001779724Y0001264960D01*
X0001704724Y0001234960D02*
X0001734724Y0001264960D01*
X0001719724Y0001314960D02*
X0001779724Y0001314960D01*
X0001704724Y0001299960D02*
X0001719724Y0001314960D01*
X0001879724Y0001314960D02*
X0001829724Y0001314960D01*
X0001594724Y0000514960D02*
X0001574724Y0000534960D01*
X0001804724Y0000514960D02*
X0001594724Y0000514960D01*
D31*
G36*
X0001388683Y0001453503D02*
X0001388683Y0001311771D01*
X0001390426Y0001302506D01*
X0001395901Y0001293998D01*
X0001404256Y0001288289D01*
X0001414173Y0001286281D01*
X0001474803Y0001286281D01*
X0001474803Y0001220690D01*
X0001463899Y0001216185D01*
X0001453535Y0001205839D01*
X0001447919Y0001192314D01*
X0001447907Y0001177670D01*
X0001453499Y0001164136D01*
X0001463845Y0001153771D01*
X0001477370Y0001148155D01*
X0001492014Y0001148143D01*
X0001505548Y0001153735D01*
X0001515912Y0001164081D01*
X0001521529Y0001177606D01*
X0001521530Y0001179451D01*
X0001525880Y0001183803D01*
X0001529898Y0001189814D01*
X0001532368Y0001193510D01*
X0001534645Y0001204960D01*
X0001534645Y0001286281D01*
X0001595275Y0001286281D01*
X0001604540Y0001288025D01*
X0001613048Y0001293500D01*
X0001618757Y0001301854D01*
X0001620765Y0001311771D01*
X0001620765Y0001453503D01*
X0001620491Y0001454960D01*
X0001745264Y0001454960D01*
X0001739606Y0001452623D01*
X0001727105Y0001440143D01*
X0001720332Y0001423831D01*
X0001720316Y0001406167D01*
X0001727061Y0001389842D01*
X0001739540Y0001377342D01*
X0001740842Y0001376801D01*
X0001739281Y0001373041D01*
X0001739265Y0001356949D01*
X0001744252Y0001344881D01*
X0001719724Y0001344881D01*
X0001708273Y0001342604D01*
X0001699551Y0001336776D01*
X0001697434Y0001336778D01*
X0001683899Y0001331184D01*
X0001673535Y0001320839D01*
X0001667919Y0001307314D01*
X0001667907Y0001292670D01*
X0001673498Y0001279136D01*
X0001683845Y0001268771D01*
X0001686993Y0001267464D01*
X0001683899Y0001266185D01*
X0001673535Y0001255839D01*
X0001667919Y0001242314D01*
X0001667907Y0001227670D01*
X0001673498Y0001214136D01*
X0001683845Y0001203771D01*
X0001697370Y0001198155D01*
X0001712014Y0001198143D01*
X0001725548Y0001203735D01*
X0001735913Y0001214081D01*
X0001741529Y0001227606D01*
X0001741530Y0001229451D01*
X0001747118Y0001235039D01*
X0001752438Y0001235039D01*
X0001756781Y0001230688D01*
X0001762190Y0001228441D01*
X0001760282Y0001223841D01*
X0001760266Y0001206157D01*
X0001767019Y0001189814D01*
X0001779512Y0001177299D01*
X0001795843Y0001170518D01*
X0001813526Y0001170502D01*
X0001829587Y0001177138D01*
X0001737329Y0001084881D01*
X0001551868Y0001084881D01*
X0001550603Y0001086149D01*
X0001537078Y0001091765D01*
X0001522434Y0001091777D01*
X0001508899Y0001086185D01*
X0001507593Y0001084881D01*
X0001287118Y0001084881D01*
X0001261540Y0001110459D01*
X0001261541Y0001112250D01*
X0001255949Y0001125785D01*
X0001245603Y0001136149D01*
X0001232078Y0001141765D01*
X0001217434Y0001141777D01*
X0001203899Y0001136185D01*
X0001193535Y0001125839D01*
X0001187919Y0001112314D01*
X0001187907Y0001097670D01*
X0001193499Y0001084136D01*
X0001203845Y0001073771D01*
X0001217370Y0001068155D01*
X0001219215Y0001068154D01*
X0001253566Y0001033803D01*
X0001263273Y0001027317D01*
X0001274724Y0001025039D01*
X0001499803Y0001025039D01*
X0001499803Y0000887354D01*
X0001443566Y0000831117D01*
X0001437080Y0000821410D01*
X0001434803Y0000809960D01*
X0001434803Y0000727104D01*
X0001433535Y0000725839D01*
X0001427919Y0000712314D01*
X0001427907Y0000697669D01*
X0001433499Y0000684136D01*
X0001443845Y0000673771D01*
X0001457370Y0000668155D01*
X0001459215Y0000668154D01*
X0001514803Y0000612566D01*
X0001514803Y0000494959D01*
X0001517080Y0000483510D01*
X0001523566Y0000473803D01*
X0001563566Y0000433803D01*
X0001573274Y0000427317D01*
X0001584724Y0000425039D01*
X0001642330Y0000425039D01*
X0001667908Y0000399461D01*
X0001667907Y0000397670D01*
X0001673498Y0000384136D01*
X0001683845Y0000373771D01*
X0001697370Y0000368155D01*
X0001712014Y0000368143D01*
X0001725548Y0000373735D01*
X0001735913Y0000384081D01*
X0001741529Y0000397606D01*
X0001741541Y0000412250D01*
X0001735949Y0000425785D01*
X0001725603Y0000436149D01*
X0001712078Y0000441765D01*
X0001710233Y0000441766D01*
X0001675881Y0000476118D01*
X0001666174Y0000482604D01*
X0001654724Y0000484881D01*
X0001597118Y0000484881D01*
X0001596960Y0000485039D01*
X0001782580Y0000485039D01*
X0001783845Y0000483771D01*
X0001797370Y0000478155D01*
X0001812014Y0000478143D01*
X0001825548Y0000483735D01*
X0001835913Y0000494081D01*
X0001841528Y0000507606D01*
X0001841541Y0000522250D01*
X0001835948Y0000535785D01*
X0001825603Y0000546149D01*
X0001812078Y0000551765D01*
X0001797434Y0000551778D01*
X0001783899Y0000546185D01*
X0001782593Y0000544881D01*
X0001610454Y0000544881D01*
X0001605949Y0000555785D01*
X0001595603Y0000566149D01*
X0001582078Y0000571765D01*
X0001574645Y0000571771D01*
X0001574645Y0000624960D01*
X0001572368Y0000636410D01*
X0001565881Y0000646118D01*
X0001501540Y0000710459D01*
X0001501541Y0000712250D01*
X0001495949Y0000725785D01*
X0001494645Y0000727091D01*
X0001494645Y0000797566D01*
X0001550879Y0000853802D01*
X0001557368Y0000863510D01*
X0001559645Y0000874960D01*
X0001559645Y0001025039D01*
X0001739740Y0001025039D01*
X0001739724Y0001024960D01*
X0001739724Y0000939960D01*
X0001589724Y0000939960D01*
X0001587907Y0000939618D01*
X0001586238Y0000938543D01*
X0001585118Y0000936905D01*
X0001584724Y0000934960D01*
X0001584724Y0000774960D01*
X0001585066Y0000773143D01*
X0001586140Y0000771474D01*
X0001587779Y0000770354D01*
X0001589724Y0000769960D01*
X0001739724Y0000769960D01*
X0001739724Y0000559960D01*
X0001740064Y0000558143D01*
X0001741139Y0000556474D01*
X0001742778Y0000555354D01*
X0001744724Y0000554960D01*
X0001916771Y0000554960D01*
X0001916771Y0000144960D01*
X0001620275Y0000144960D01*
X0001620275Y0000206033D01*
X0001614025Y0000212283D01*
X0001509724Y0000212283D01*
X0001509724Y0000211496D01*
X0001499724Y0000211496D01*
X0001499724Y0000212283D01*
X0001395423Y0000212283D01*
X0001389173Y0000206033D01*
X0001389173Y0000144960D01*
X0001272257Y0000144960D01*
X0001269723Y0000157694D01*
X0001269723Y0000293122D01*
X0001389173Y0000293122D01*
X0001389173Y0000228533D01*
X0001395423Y0000222283D01*
X0001499724Y0000222283D01*
X0001499724Y0000306899D01*
X0001509724Y0000306899D01*
X0001509724Y0000222283D01*
X0001614025Y0000222283D01*
X0001620275Y0000228533D01*
X0001620275Y0000293122D01*
X0001616469Y0000302310D01*
X0001609436Y0000309343D01*
X0001600248Y0000313149D01*
X0001515974Y0000313149D01*
X0001509724Y0000306899D01*
X0001499724Y0000306899D01*
X0001493474Y0000313149D01*
X0001409199Y0000313149D01*
X0001400011Y0000309343D01*
X0001392979Y0000302310D01*
X0001389173Y0000293122D01*
X0001269723Y0000293122D01*
X0001269723Y0000314960D01*
X0001269330Y0000316905D01*
X0001268210Y0000318544D01*
X0001266541Y0000319618D01*
X0001264724Y0000319960D01*
X0001114724Y0000319960D01*
X0001114724Y0001353543D01*
X0001260030Y0001353543D01*
X0001260030Y0001454960D01*
X0001388978Y0001454960D01*
X0001388683Y0001453503D01*
X0001388683Y0001453503D01*
G37*
X0001388683Y0001453503D02*
X0001388683Y0001311771D01*
X0001390426Y0001302506D01*
X0001395901Y0001293998D01*
X0001404256Y0001288289D01*
X0001414173Y0001286281D01*
X0001474803Y0001286281D01*
X0001474803Y0001220690D01*
X0001463899Y0001216185D01*
X0001453535Y0001205839D01*
X0001447919Y0001192314D01*
X0001447907Y0001177670D01*
X0001453499Y0001164136D01*
X0001463845Y0001153771D01*
X0001477370Y0001148155D01*
X0001492014Y0001148143D01*
X0001505548Y0001153735D01*
X0001515912Y0001164081D01*
X0001521529Y0001177606D01*
X0001521530Y0001179451D01*
X0001525880Y0001183803D01*
X0001529898Y0001189814D01*
X0001532368Y0001193510D01*
X0001534645Y0001204960D01*
X0001534645Y0001286281D01*
X0001595275Y0001286281D01*
X0001604540Y0001288025D01*
X0001613048Y0001293500D01*
X0001618757Y0001301854D01*
X0001620765Y0001311771D01*
X0001620765Y0001453503D01*
X0001620491Y0001454960D01*
X0001745264Y0001454960D01*
X0001739606Y0001452623D01*
X0001727105Y0001440143D01*
X0001720332Y0001423831D01*
X0001720316Y0001406167D01*
X0001727061Y0001389842D01*
X0001739540Y0001377342D01*
X0001740842Y0001376801D01*
X0001739281Y0001373041D01*
X0001739265Y0001356949D01*
X0001744252Y0001344881D01*
X0001719724Y0001344881D01*
X0001708273Y0001342604D01*
X0001699551Y0001336776D01*
X0001697434Y0001336778D01*
X0001683899Y0001331184D01*
X0001673535Y0001320839D01*
X0001667919Y0001307314D01*
X0001667907Y0001292670D01*
X0001673498Y0001279136D01*
X0001683845Y0001268771D01*
X0001686993Y0001267464D01*
X0001683899Y0001266185D01*
X0001673535Y0001255839D01*
X0001667919Y0001242314D01*
X0001667907Y0001227670D01*
X0001673498Y0001214136D01*
X0001683845Y0001203771D01*
X0001697370Y0001198155D01*
X0001712014Y0001198143D01*
X0001725548Y0001203735D01*
X0001735913Y0001214081D01*
X0001741529Y0001227606D01*
X0001741530Y0001229451D01*
X0001747118Y0001235039D01*
X0001752438Y0001235039D01*
X0001756781Y0001230688D01*
X0001762190Y0001228441D01*
X0001760282Y0001223841D01*
X0001760266Y0001206157D01*
X0001767019Y0001189814D01*
X0001779512Y0001177299D01*
X0001795843Y0001170518D01*
X0001813526Y0001170502D01*
X0001829587Y0001177138D01*
X0001737329Y0001084881D01*
X0001551868Y0001084881D01*
X0001550603Y0001086149D01*
X0001537078Y0001091765D01*
X0001522434Y0001091777D01*
X0001508899Y0001086185D01*
X0001507593Y0001084881D01*
X0001287118Y0001084881D01*
X0001261540Y0001110459D01*
X0001261541Y0001112250D01*
X0001255949Y0001125785D01*
X0001245603Y0001136149D01*
X0001232078Y0001141765D01*
X0001217434Y0001141777D01*
X0001203899Y0001136185D01*
X0001193535Y0001125839D01*
X0001187919Y0001112314D01*
X0001187907Y0001097670D01*
X0001193499Y0001084136D01*
X0001203845Y0001073771D01*
X0001217370Y0001068155D01*
X0001219215Y0001068154D01*
X0001253566Y0001033803D01*
X0001263273Y0001027317D01*
X0001274724Y0001025039D01*
X0001499803Y0001025039D01*
X0001499803Y0000887354D01*
X0001443566Y0000831117D01*
X0001437080Y0000821410D01*
X0001434803Y0000809960D01*
X0001434803Y0000727104D01*
X0001433535Y0000725839D01*
X0001427919Y0000712314D01*
X0001427907Y0000697669D01*
X0001433499Y0000684136D01*
X0001443845Y0000673771D01*
X0001457370Y0000668155D01*
X0001459215Y0000668154D01*
X0001514803Y0000612566D01*
X0001514803Y0000494959D01*
X0001517080Y0000483510D01*
X0001523566Y0000473803D01*
X0001563566Y0000433803D01*
X0001573274Y0000427317D01*
X0001584724Y0000425039D01*
X0001642330Y0000425039D01*
X0001667908Y0000399461D01*
X0001667907Y0000397670D01*
X0001673498Y0000384136D01*
X0001683845Y0000373771D01*
X0001697370Y0000368155D01*
X0001712014Y0000368143D01*
X0001725548Y0000373735D01*
X0001735913Y0000384081D01*
X0001741529Y0000397606D01*
X0001741541Y0000412250D01*
X0001735949Y0000425785D01*
X0001725603Y0000436149D01*
X0001712078Y0000441765D01*
X0001710233Y0000441766D01*
X0001675881Y0000476118D01*
X0001666174Y0000482604D01*
X0001654724Y0000484881D01*
X0001597118Y0000484881D01*
X0001596960Y0000485039D01*
X0001782580Y0000485039D01*
X0001783845Y0000483771D01*
X0001797370Y0000478155D01*
X0001812014Y0000478143D01*
X0001825548Y0000483735D01*
X0001835913Y0000494081D01*
X0001841528Y0000507606D01*
X0001841541Y0000522250D01*
X0001835948Y0000535785D01*
X0001825603Y0000546149D01*
X0001812078Y0000551765D01*
X0001797434Y0000551778D01*
X0001783899Y0000546185D01*
X0001782593Y0000544881D01*
X0001610454Y0000544881D01*
X0001605949Y0000555785D01*
X0001595603Y0000566149D01*
X0001582078Y0000571765D01*
X0001574645Y0000571771D01*
X0001574645Y0000624960D01*
X0001572368Y0000636410D01*
X0001565881Y0000646118D01*
X0001501540Y0000710459D01*
X0001501541Y0000712250D01*
X0001495949Y0000725785D01*
X0001494645Y0000727091D01*
X0001494645Y0000797566D01*
X0001550879Y0000853802D01*
X0001557368Y0000863510D01*
X0001559645Y0000874960D01*
X0001559645Y0001025039D01*
X0001739740Y0001025039D01*
X0001739724Y0001024960D01*
X0001739724Y0000939960D01*
X0001589724Y0000939960D01*
X0001587907Y0000939618D01*
X0001586238Y0000938543D01*
X0001585118Y0000936905D01*
X0001584724Y0000934960D01*
X0001584724Y0000774960D01*
X0001585066Y0000773143D01*
X0001586140Y0000771474D01*
X0001587779Y0000770354D01*
X0001589724Y0000769960D01*
X0001739724Y0000769960D01*
X0001739724Y0000559960D01*
X0001740064Y0000558143D01*
X0001741139Y0000556474D01*
X0001742778Y0000555354D01*
X0001744724Y0000554960D01*
X0001916771Y0000554960D01*
X0001916771Y0000144960D01*
X0001620275Y0000144960D01*
X0001620275Y0000206033D01*
X0001614025Y0000212283D01*
X0001509724Y0000212283D01*
X0001509724Y0000211496D01*
X0001499724Y0000211496D01*
X0001499724Y0000212283D01*
X0001395423Y0000212283D01*
X0001389173Y0000206033D01*
X0001389173Y0000144960D01*
X0001272257Y0000144960D01*
X0001269723Y0000157694D01*
X0001269723Y0000293122D01*
X0001389173Y0000293122D01*
X0001389173Y0000228533D01*
X0001395423Y0000222283D01*
X0001499724Y0000222283D01*
X0001499724Y0000306899D01*
X0001509724Y0000306899D01*
X0001509724Y0000222283D01*
X0001614025Y0000222283D01*
X0001620275Y0000228533D01*
X0001620275Y0000293122D01*
X0001616469Y0000302310D01*
X0001609436Y0000309343D01*
X0001600248Y0000313149D01*
X0001515974Y0000313149D01*
X0001509724Y0000306899D01*
X0001499724Y0000306899D01*
X0001493474Y0000313149D01*
X0001409199Y0000313149D01*
X0001400011Y0000309343D01*
X0001392979Y0000302310D01*
X0001389173Y0000293122D01*
X0001269723Y0000293122D01*
X0001269723Y0000314960D01*
X0001269330Y0000316905D01*
X0001268210Y0000318544D01*
X0001266541Y0000319618D01*
X0001264724Y0000319960D01*
X0001114724Y0000319960D01*
X0001114724Y0001353543D01*
X0001260030Y0001353543D01*
X0001260030Y0001454960D01*
X0001388978Y0001454960D01*
X0001388683Y0001453503D01*
G36*
X0001916771Y0001029960D02*
X0001765131Y0001029960D01*
X0001770881Y0001033803D01*
X0001885881Y0001148803D01*
X0001892368Y0001158510D01*
X0001894645Y0001169960D01*
X0001894645Y0001224960D01*
X0001892368Y0001236410D01*
X0001885881Y0001246118D01*
X0001870171Y0001261828D01*
X0001870181Y0001272971D01*
X0001867142Y0001280325D01*
X0001872370Y0001278155D01*
X0001887014Y0001278143D01*
X0001900548Y0001283735D01*
X0001910913Y0001294081D01*
X0001916529Y0001307606D01*
X0001916541Y0001322250D01*
X0001910949Y0001335785D01*
X0001900603Y0001346149D01*
X0001887078Y0001351765D01*
X0001872434Y0001351778D01*
X0001867294Y0001349654D01*
X0001870698Y0001360265D01*
X0001869376Y0001376303D01*
X0001869092Y0001376987D01*
X0001869842Y0001377298D01*
X0001882342Y0001389777D01*
X0001889115Y0001406090D01*
X0001889132Y0001423753D01*
X0001882386Y0001440078D01*
X0001869907Y0001452579D01*
X0001864172Y0001454960D01*
X0001916771Y0001454960D01*
X0001916771Y0001029960D01*
X0001916771Y0001029960D01*
G37*
X0001916771Y0001029960D02*
X0001765131Y0001029960D01*
X0001770881Y0001033803D01*
X0001885881Y0001148803D01*
X0001892368Y0001158510D01*
X0001894645Y0001169960D01*
X0001894645Y0001224960D01*
X0001892368Y0001236410D01*
X0001885881Y0001246118D01*
X0001870171Y0001261828D01*
X0001870181Y0001272971D01*
X0001867142Y0001280325D01*
X0001872370Y0001278155D01*
X0001887014Y0001278143D01*
X0001900548Y0001283735D01*
X0001910913Y0001294081D01*
X0001916529Y0001307606D01*
X0001916541Y0001322250D01*
X0001910949Y0001335785D01*
X0001900603Y0001346149D01*
X0001887078Y0001351765D01*
X0001872434Y0001351778D01*
X0001867294Y0001349654D01*
X0001870698Y0001360265D01*
X0001869376Y0001376303D01*
X0001869092Y0001376987D01*
X0001869842Y0001377298D01*
X0001882342Y0001389777D01*
X0001889115Y0001406090D01*
X0001889132Y0001423753D01*
X0001882386Y0001440078D01*
X0001869907Y0001452579D01*
X0001864172Y0001454960D01*
X0001916771Y0001454960D01*
X0001916771Y0001029960D01*
G36*
X0001837352Y0001365517D02*
X0001836795Y0001364960D01*
X0001837352Y0001364402D01*
X0001830281Y0001357332D01*
X0001829724Y0001357889D01*
X0001829167Y0001357332D01*
X0001822095Y0001364402D01*
X0001822653Y0001364960D01*
X0001822095Y0001365517D01*
X0001829167Y0001372588D01*
X0001829724Y0001372031D01*
X0001830281Y0001372588D01*
X0001837352Y0001365517D01*
X0001837352Y0001365517D01*
G37*
X0001837352Y0001365517D02*
X0001836795Y0001364960D01*
X0001837352Y0001364402D01*
X0001830281Y0001357332D01*
X0001829724Y0001357889D01*
X0001829167Y0001357332D01*
X0001822095Y0001364402D01*
X0001822653Y0001364960D01*
X0001822095Y0001365517D01*
X0001829167Y0001372588D01*
X0001829724Y0001372031D01*
X0001830281Y0001372588D01*
X0001837352Y0001365517D01*
G01*
D42*
D43*
X0002112420Y0001436520D02*
X0002134917Y0001436520D01*
X0002123668Y0001397150D02*
X0002123668Y0001436520D01*
X0002155539Y0001436520D02*
X0002163039Y0001436520D01*
X0002166788Y0001434645D01*
X0002170538Y0001430896D01*
X0002172412Y0001423397D01*
X0002172412Y0001410273D01*
X0002170538Y0001402774D01*
X0002166788Y0001399025D01*
X0002163039Y0001397150D01*
X0002155539Y0001397150D01*
X0002151790Y0001399025D01*
X0002148040Y0001402774D01*
X0002146166Y0001410273D01*
X0002146166Y0001423397D01*
X0002148040Y0001430896D01*
X0002151790Y0001434645D01*
X0002155539Y0001436520D01*
X0002189285Y0001397150D02*
X0002189285Y0001436520D01*
X0002204283Y0001436520D01*
X0002208033Y0001434645D01*
X0002209908Y0001432770D01*
X0002211782Y0001429021D01*
X0002211782Y0001423397D01*
X0002209908Y0001419647D01*
X0002208033Y0001417772D01*
X0002204283Y0001415897D01*
X0002189285Y0001415897D01*
D44*
X0002488976Y0000217283D03*
X0002488976Y0001382637D03*
D45*
X0002813976Y0001264960D03*
X0002763976Y0001264960D03*
X0002813976Y0001314960D03*
X0002763976Y0001314960D03*
X0002813976Y0001364960D03*
X0002763976Y0001364960D03*
D46*
X0002883976Y0001359960D03*
X0002393976Y0000754960D03*
X0002193976Y0000502559D03*
X0002178976Y0000834960D03*
X0002323976Y0000279960D03*
X0002468976Y0001184960D03*
X0002688975Y0000404960D03*
X0002448976Y0000704960D03*
X0002513976Y0001054960D03*
X0002208976Y0001104960D03*
X0002688975Y0001234960D03*
X0002688975Y0001299960D03*
X0002863975Y0001314960D03*
X0002558976Y0000534960D03*
X0002788976Y0000514960D03*
D43*
X0002878976Y0001364960D02*
X0002813976Y0001364960D01*
X0002883976Y0001359960D02*
X0002878976Y0001364960D01*
X0002388976Y0000749960D02*
X0002388976Y0000684960D01*
X0002393976Y0000754960D02*
X0002388976Y0000749960D01*
X0002178976Y0000679960D02*
X0002393976Y0000679960D01*
X0002488976Y0000584960D02*
X0002488976Y0000288149D01*
X0002393976Y0000679960D02*
X0002488976Y0000584960D01*
X0002178976Y0000517559D02*
X0002178976Y0000679960D01*
X0002178976Y0000679960D02*
X0002178976Y0000834960D01*
X0002193976Y0000502559D02*
X0002178976Y0000517559D01*
X0002407165Y0000288149D02*
X0002488976Y0000288149D01*
X0002378976Y0000279960D02*
X0002398976Y0000279960D01*
X0002323976Y0000279960D02*
X0002378976Y0000279960D01*
X0002398976Y0000279960D02*
X0002407165Y0000288149D01*
X0002488976Y0001224960D02*
X0002488976Y0001204960D01*
X0002488976Y0001224960D02*
X0002488976Y0001311771D01*
X0002488976Y0001204960D02*
X0002468976Y0001184960D01*
X0002813976Y0001264960D02*
X0002813976Y0001259960D01*
X0002813976Y0001259960D02*
X0002848976Y0001224960D01*
X0002848976Y0001224960D02*
X0002848976Y0001169960D01*
X0002848976Y0001169960D02*
X0002733976Y0001054960D01*
X0002733976Y0001054960D02*
X0002513976Y0001054960D01*
X0002528976Y0000624960D02*
X0002448976Y0000704960D01*
X0002528976Y0000494959D02*
X0002528976Y0000624960D01*
X0002568976Y0000454960D02*
X0002528976Y0000494959D01*
X0002638976Y0000454960D02*
X0002568976Y0000454960D01*
X0002688975Y0000404960D02*
X0002638976Y0000454960D01*
X0002513976Y0001054960D02*
X0002513976Y0000874960D01*
X0002448976Y0000809960D02*
X0002513976Y0000874960D01*
X0002448976Y0000809960D02*
X0002448976Y0000704960D01*
X0002258976Y0001054960D02*
X0002513976Y0001054960D01*
X0002208976Y0001104960D02*
X0002258976Y0001054960D01*
X0002718976Y0001264960D02*
X0002763976Y0001264960D01*
X0002688975Y0001234960D02*
X0002718976Y0001264960D01*
X0002703976Y0001314960D02*
X0002763976Y0001314960D01*
X0002688975Y0001299960D02*
X0002703976Y0001314960D01*
X0002863975Y0001314960D02*
X0002813976Y0001314960D01*
X0002578976Y0000514960D02*
X0002558976Y0000534960D01*
X0002788976Y0000514960D02*
X0002578976Y0000514960D01*
D47*
G36*
X0002372935Y0001453503D02*
X0002372935Y0001311771D01*
X0002374678Y0001302506D01*
X0002380153Y0001293998D01*
X0002388508Y0001288289D01*
X0002398425Y0001286281D01*
X0002459055Y0001286281D01*
X0002459055Y0001220690D01*
X0002448151Y0001216185D01*
X0002437787Y0001205839D01*
X0002432171Y0001192314D01*
X0002432158Y0001177670D01*
X0002437751Y0001164136D01*
X0002448097Y0001153771D01*
X0002461622Y0001148155D01*
X0002476266Y0001148143D01*
X0002489800Y0001153735D01*
X0002500165Y0001164081D01*
X0002505781Y0001177606D01*
X0002505782Y0001179451D01*
X0002510133Y0001183803D01*
X0002514150Y0001189814D01*
X0002516620Y0001193510D01*
X0002518897Y0001204960D01*
X0002518897Y0001286281D01*
X0002579527Y0001286281D01*
X0002588792Y0001288025D01*
X0002597300Y0001293500D01*
X0002603009Y0001301854D01*
X0002605017Y0001311771D01*
X0002605017Y0001453503D01*
X0002604743Y0001454960D01*
X0002729514Y0001454960D01*
X0002723858Y0001452623D01*
X0002711356Y0001440143D01*
X0002704583Y0001423831D01*
X0002704568Y0001406167D01*
X0002711313Y0001389842D01*
X0002723792Y0001377342D01*
X0002725094Y0001376801D01*
X0002723533Y0001373041D01*
X0002723519Y0001356949D01*
X0002728505Y0001344881D01*
X0002703976Y0001344881D01*
X0002692525Y0001342604D01*
X0002683803Y0001336776D01*
X0002681686Y0001336778D01*
X0002668150Y0001331184D01*
X0002657787Y0001320839D01*
X0002652171Y0001307314D01*
X0002652158Y0001292670D01*
X0002657751Y0001279136D01*
X0002668097Y0001268771D01*
X0002671246Y0001267464D01*
X0002668150Y0001266185D01*
X0002657787Y0001255839D01*
X0002652171Y0001242314D01*
X0002652158Y0001227670D01*
X0002657751Y0001214136D01*
X0002668097Y0001203771D01*
X0002681622Y0001198155D01*
X0002696266Y0001198143D01*
X0002709800Y0001203735D01*
X0002720165Y0001214081D01*
X0002725780Y0001227606D01*
X0002725782Y0001229451D01*
X0002731370Y0001235039D01*
X0002736690Y0001235039D01*
X0002741033Y0001230688D01*
X0002746444Y0001228441D01*
X0002744534Y0001223841D01*
X0002744518Y0001206157D01*
X0002751271Y0001189814D01*
X0002763764Y0001177299D01*
X0002780095Y0001170518D01*
X0002797779Y0001170502D01*
X0002813839Y0001177138D01*
X0002721582Y0001084881D01*
X0002536120Y0001084881D01*
X0002534854Y0001086149D01*
X0002521330Y0001091765D01*
X0002506686Y0001091777D01*
X0002493151Y0001086185D01*
X0002491845Y0001084881D01*
X0002271370Y0001084881D01*
X0002245792Y0001110459D01*
X0002245793Y0001112250D01*
X0002240201Y0001125785D01*
X0002229855Y0001136149D01*
X0002216330Y0001141765D01*
X0002201686Y0001141777D01*
X0002188151Y0001136185D01*
X0002177787Y0001125839D01*
X0002172171Y0001112314D01*
X0002172158Y0001097670D01*
X0002177751Y0001084136D01*
X0002188097Y0001073771D01*
X0002201622Y0001068155D01*
X0002203467Y0001068154D01*
X0002237818Y0001033803D01*
X0002247525Y0001027317D01*
X0002258976Y0001025039D01*
X0002484055Y0001025039D01*
X0002484055Y0000887354D01*
X0002427818Y0000831117D01*
X0002421332Y0000821410D01*
X0002419055Y0000809960D01*
X0002419055Y0000727104D01*
X0002417787Y0000725839D01*
X0002412171Y0000712314D01*
X0002412158Y0000697669D01*
X0002417751Y0000684136D01*
X0002428097Y0000673771D01*
X0002441622Y0000668155D01*
X0002443467Y0000668154D01*
X0002499055Y0000612566D01*
X0002499055Y0000494959D01*
X0002501332Y0000483510D01*
X0002507818Y0000473803D01*
X0002547818Y0000433803D01*
X0002557526Y0000427317D01*
X0002568976Y0000425039D01*
X0002626582Y0000425039D01*
X0002652160Y0000399461D01*
X0002652158Y0000397670D01*
X0002657751Y0000384136D01*
X0002668097Y0000373771D01*
X0002681622Y0000368155D01*
X0002696266Y0000368143D01*
X0002709800Y0000373735D01*
X0002720165Y0000384081D01*
X0002725780Y0000397606D01*
X0002725793Y0000412250D01*
X0002720201Y0000425785D01*
X0002709855Y0000436149D01*
X0002696330Y0000441765D01*
X0002694485Y0000441766D01*
X0002660133Y0000476118D01*
X0002650425Y0000482604D01*
X0002638976Y0000484881D01*
X0002581370Y0000484881D01*
X0002581212Y0000485039D01*
X0002766831Y0000485039D01*
X0002768097Y0000483771D01*
X0002781622Y0000478155D01*
X0002796266Y0000478143D01*
X0002809800Y0000483735D01*
X0002820165Y0000494081D01*
X0002825781Y0000507606D01*
X0002825793Y0000522250D01*
X0002820201Y0000535785D01*
X0002809855Y0000546149D01*
X0002796330Y0000551765D01*
X0002781686Y0000551778D01*
X0002768151Y0000546185D01*
X0002766845Y0000544881D01*
X0002594706Y0000544881D01*
X0002590201Y0000555785D01*
X0002579855Y0000566149D01*
X0002566329Y0000571765D01*
X0002558897Y0000571771D01*
X0002558897Y0000624960D01*
X0002556620Y0000636410D01*
X0002550133Y0000646118D01*
X0002485792Y0000710459D01*
X0002485793Y0000712250D01*
X0002480201Y0000725785D01*
X0002478897Y0000727091D01*
X0002478897Y0000797566D01*
X0002535133Y0000853802D01*
X0002541620Y0000863510D01*
X0002543897Y0000874960D01*
X0002543897Y0001025039D01*
X0002723992Y0001025039D01*
X0002723976Y0001024960D01*
X0002723976Y0000939960D01*
X0002573976Y0000939960D01*
X0002572159Y0000939618D01*
X0002570489Y0000938543D01*
X0002569370Y0000936905D01*
X0002568976Y0000934960D01*
X0002568976Y0000774960D01*
X0002569317Y0000773143D01*
X0002570392Y0000771474D01*
X0002572031Y0000770354D01*
X0002573976Y0000769960D01*
X0002723976Y0000769960D01*
X0002723976Y0000559960D01*
X0002724318Y0000558143D01*
X0002725392Y0000556474D01*
X0002727031Y0000555354D01*
X0002728976Y0000554960D01*
X0002901023Y0000554960D01*
X0002901023Y0000144960D01*
X0002604526Y0000144960D01*
X0002604526Y0000206033D01*
X0002598277Y0000212283D01*
X0002493976Y0000212283D01*
X0002493976Y0000211496D01*
X0002483976Y0000211496D01*
X0002483976Y0000212283D01*
X0002379675Y0000212283D01*
X0002373425Y0000206033D01*
X0002373425Y0000144960D01*
X0002256509Y0000144960D01*
X0002253976Y0000157694D01*
X0002253976Y0000293122D01*
X0002373425Y0000293122D01*
X0002373425Y0000228533D01*
X0002379675Y0000222283D01*
X0002483976Y0000222283D01*
X0002483976Y0000306899D01*
X0002493976Y0000306899D01*
X0002493976Y0000222283D01*
X0002598277Y0000222283D01*
X0002604526Y0000228533D01*
X0002604526Y0000293122D01*
X0002600721Y0000302310D01*
X0002593688Y0000309343D01*
X0002584500Y0000313149D01*
X0002500226Y0000313149D01*
X0002493976Y0000306899D01*
X0002483976Y0000306899D01*
X0002477726Y0000313149D01*
X0002393452Y0000313149D01*
X0002384263Y0000309343D01*
X0002377231Y0000302310D01*
X0002373425Y0000293122D01*
X0002253976Y0000293122D01*
X0002253976Y0000314960D01*
X0002253582Y0000316905D01*
X0002252462Y0000318544D01*
X0002250793Y0000319618D01*
X0002248976Y0000319960D01*
X0002098976Y0000319960D01*
X0002098976Y0001353543D01*
X0002244281Y0001353543D01*
X0002244281Y0001454960D01*
X0002373230Y0001454960D01*
X0002372935Y0001453503D01*
X0002372935Y0001453503D01*
G37*
X0002372935Y0001453503D02*
X0002372935Y0001311771D01*
X0002374678Y0001302506D01*
X0002380153Y0001293998D01*
X0002388508Y0001288289D01*
X0002398425Y0001286281D01*
X0002459055Y0001286281D01*
X0002459055Y0001220690D01*
X0002448151Y0001216185D01*
X0002437787Y0001205839D01*
X0002432171Y0001192314D01*
X0002432158Y0001177670D01*
X0002437751Y0001164136D01*
X0002448097Y0001153771D01*
X0002461622Y0001148155D01*
X0002476266Y0001148143D01*
X0002489800Y0001153735D01*
X0002500165Y0001164081D01*
X0002505781Y0001177606D01*
X0002505782Y0001179451D01*
X0002510133Y0001183803D01*
X0002514150Y0001189814D01*
X0002516620Y0001193510D01*
X0002518897Y0001204960D01*
X0002518897Y0001286281D01*
X0002579527Y0001286281D01*
X0002588792Y0001288025D01*
X0002597300Y0001293500D01*
X0002603009Y0001301854D01*
X0002605017Y0001311771D01*
X0002605017Y0001453503D01*
X0002604743Y0001454960D01*
X0002729514Y0001454960D01*
X0002723858Y0001452623D01*
X0002711356Y0001440143D01*
X0002704583Y0001423831D01*
X0002704568Y0001406167D01*
X0002711313Y0001389842D01*
X0002723792Y0001377342D01*
X0002725094Y0001376801D01*
X0002723533Y0001373041D01*
X0002723519Y0001356949D01*
X0002728505Y0001344881D01*
X0002703976Y0001344881D01*
X0002692525Y0001342604D01*
X0002683803Y0001336776D01*
X0002681686Y0001336778D01*
X0002668150Y0001331184D01*
X0002657787Y0001320839D01*
X0002652171Y0001307314D01*
X0002652158Y0001292670D01*
X0002657751Y0001279136D01*
X0002668097Y0001268771D01*
X0002671246Y0001267464D01*
X0002668150Y0001266185D01*
X0002657787Y0001255839D01*
X0002652171Y0001242314D01*
X0002652158Y0001227670D01*
X0002657751Y0001214136D01*
X0002668097Y0001203771D01*
X0002681622Y0001198155D01*
X0002696266Y0001198143D01*
X0002709800Y0001203735D01*
X0002720165Y0001214081D01*
X0002725780Y0001227606D01*
X0002725782Y0001229451D01*
X0002731370Y0001235039D01*
X0002736690Y0001235039D01*
X0002741033Y0001230688D01*
X0002746444Y0001228441D01*
X0002744534Y0001223841D01*
X0002744518Y0001206157D01*
X0002751271Y0001189814D01*
X0002763764Y0001177299D01*
X0002780095Y0001170518D01*
X0002797779Y0001170502D01*
X0002813839Y0001177138D01*
X0002721582Y0001084881D01*
X0002536120Y0001084881D01*
X0002534854Y0001086149D01*
X0002521330Y0001091765D01*
X0002506686Y0001091777D01*
X0002493151Y0001086185D01*
X0002491845Y0001084881D01*
X0002271370Y0001084881D01*
X0002245792Y0001110459D01*
X0002245793Y0001112250D01*
X0002240201Y0001125785D01*
X0002229855Y0001136149D01*
X0002216330Y0001141765D01*
X0002201686Y0001141777D01*
X0002188151Y0001136185D01*
X0002177787Y0001125839D01*
X0002172171Y0001112314D01*
X0002172158Y0001097670D01*
X0002177751Y0001084136D01*
X0002188097Y0001073771D01*
X0002201622Y0001068155D01*
X0002203467Y0001068154D01*
X0002237818Y0001033803D01*
X0002247525Y0001027317D01*
X0002258976Y0001025039D01*
X0002484055Y0001025039D01*
X0002484055Y0000887354D01*
X0002427818Y0000831117D01*
X0002421332Y0000821410D01*
X0002419055Y0000809960D01*
X0002419055Y0000727104D01*
X0002417787Y0000725839D01*
X0002412171Y0000712314D01*
X0002412158Y0000697669D01*
X0002417751Y0000684136D01*
X0002428097Y0000673771D01*
X0002441622Y0000668155D01*
X0002443467Y0000668154D01*
X0002499055Y0000612566D01*
X0002499055Y0000494959D01*
X0002501332Y0000483510D01*
X0002507818Y0000473803D01*
X0002547818Y0000433803D01*
X0002557526Y0000427317D01*
X0002568976Y0000425039D01*
X0002626582Y0000425039D01*
X0002652160Y0000399461D01*
X0002652158Y0000397670D01*
X0002657751Y0000384136D01*
X0002668097Y0000373771D01*
X0002681622Y0000368155D01*
X0002696266Y0000368143D01*
X0002709800Y0000373735D01*
X0002720165Y0000384081D01*
X0002725780Y0000397606D01*
X0002725793Y0000412250D01*
X0002720201Y0000425785D01*
X0002709855Y0000436149D01*
X0002696330Y0000441765D01*
X0002694485Y0000441766D01*
X0002660133Y0000476118D01*
X0002650425Y0000482604D01*
X0002638976Y0000484881D01*
X0002581370Y0000484881D01*
X0002581212Y0000485039D01*
X0002766831Y0000485039D01*
X0002768097Y0000483771D01*
X0002781622Y0000478155D01*
X0002796266Y0000478143D01*
X0002809800Y0000483735D01*
X0002820165Y0000494081D01*
X0002825781Y0000507606D01*
X0002825793Y0000522250D01*
X0002820201Y0000535785D01*
X0002809855Y0000546149D01*
X0002796330Y0000551765D01*
X0002781686Y0000551778D01*
X0002768151Y0000546185D01*
X0002766845Y0000544881D01*
X0002594706Y0000544881D01*
X0002590201Y0000555785D01*
X0002579855Y0000566149D01*
X0002566329Y0000571765D01*
X0002558897Y0000571771D01*
X0002558897Y0000624960D01*
X0002556620Y0000636410D01*
X0002550133Y0000646118D01*
X0002485792Y0000710459D01*
X0002485793Y0000712250D01*
X0002480201Y0000725785D01*
X0002478897Y0000727091D01*
X0002478897Y0000797566D01*
X0002535133Y0000853802D01*
X0002541620Y0000863510D01*
X0002543897Y0000874960D01*
X0002543897Y0001025039D01*
X0002723992Y0001025039D01*
X0002723976Y0001024960D01*
X0002723976Y0000939960D01*
X0002573976Y0000939960D01*
X0002572159Y0000939618D01*
X0002570489Y0000938543D01*
X0002569370Y0000936905D01*
X0002568976Y0000934960D01*
X0002568976Y0000774960D01*
X0002569317Y0000773143D01*
X0002570392Y0000771474D01*
X0002572031Y0000770354D01*
X0002573976Y0000769960D01*
X0002723976Y0000769960D01*
X0002723976Y0000559960D01*
X0002724318Y0000558143D01*
X0002725392Y0000556474D01*
X0002727031Y0000555354D01*
X0002728976Y0000554960D01*
X0002901023Y0000554960D01*
X0002901023Y0000144960D01*
X0002604526Y0000144960D01*
X0002604526Y0000206033D01*
X0002598277Y0000212283D01*
X0002493976Y0000212283D01*
X0002493976Y0000211496D01*
X0002483976Y0000211496D01*
X0002483976Y0000212283D01*
X0002379675Y0000212283D01*
X0002373425Y0000206033D01*
X0002373425Y0000144960D01*
X0002256509Y0000144960D01*
X0002253976Y0000157694D01*
X0002253976Y0000293122D01*
X0002373425Y0000293122D01*
X0002373425Y0000228533D01*
X0002379675Y0000222283D01*
X0002483976Y0000222283D01*
X0002483976Y0000306899D01*
X0002493976Y0000306899D01*
X0002493976Y0000222283D01*
X0002598277Y0000222283D01*
X0002604526Y0000228533D01*
X0002604526Y0000293122D01*
X0002600721Y0000302310D01*
X0002593688Y0000309343D01*
X0002584500Y0000313149D01*
X0002500226Y0000313149D01*
X0002493976Y0000306899D01*
X0002483976Y0000306899D01*
X0002477726Y0000313149D01*
X0002393452Y0000313149D01*
X0002384263Y0000309343D01*
X0002377231Y0000302310D01*
X0002373425Y0000293122D01*
X0002253976Y0000293122D01*
X0002253976Y0000314960D01*
X0002253582Y0000316905D01*
X0002252462Y0000318544D01*
X0002250793Y0000319618D01*
X0002248976Y0000319960D01*
X0002098976Y0000319960D01*
X0002098976Y0001353543D01*
X0002244281Y0001353543D01*
X0002244281Y0001454960D01*
X0002373230Y0001454960D01*
X0002372935Y0001453503D01*
G36*
X0002901023Y0001029960D02*
X0002749382Y0001029960D01*
X0002755133Y0001033803D01*
X0002870133Y0001148803D01*
X0002876620Y0001158510D01*
X0002878897Y0001169960D01*
X0002878897Y0001224960D01*
X0002876620Y0001236410D01*
X0002870133Y0001246118D01*
X0002854423Y0001261828D01*
X0002854433Y0001272971D01*
X0002851394Y0001280325D01*
X0002856622Y0001278155D01*
X0002871266Y0001278143D01*
X0002884800Y0001283735D01*
X0002895165Y0001294081D01*
X0002900781Y0001307606D01*
X0002900793Y0001322250D01*
X0002895201Y0001335785D01*
X0002884855Y0001346149D01*
X0002871330Y0001351765D01*
X0002856686Y0001351778D01*
X0002851546Y0001349654D01*
X0002854950Y0001360265D01*
X0002853628Y0001376303D01*
X0002853344Y0001376987D01*
X0002854094Y0001377298D01*
X0002866593Y0001389777D01*
X0002873368Y0001406090D01*
X0002873384Y0001423753D01*
X0002866638Y0001440078D01*
X0002854158Y0001452579D01*
X0002848424Y0001454960D01*
X0002901023Y0001454960D01*
X0002901023Y0001029960D01*
X0002901023Y0001029960D01*
G37*
X0002901023Y0001029960D02*
X0002749382Y0001029960D01*
X0002755133Y0001033803D01*
X0002870133Y0001148803D01*
X0002876620Y0001158510D01*
X0002878897Y0001169960D01*
X0002878897Y0001224960D01*
X0002876620Y0001236410D01*
X0002870133Y0001246118D01*
X0002854423Y0001261828D01*
X0002854433Y0001272971D01*
X0002851394Y0001280325D01*
X0002856622Y0001278155D01*
X0002871266Y0001278143D01*
X0002884800Y0001283735D01*
X0002895165Y0001294081D01*
X0002900781Y0001307606D01*
X0002900793Y0001322250D01*
X0002895201Y0001335785D01*
X0002884855Y0001346149D01*
X0002871330Y0001351765D01*
X0002856686Y0001351778D01*
X0002851546Y0001349654D01*
X0002854950Y0001360265D01*
X0002853628Y0001376303D01*
X0002853344Y0001376987D01*
X0002854094Y0001377298D01*
X0002866593Y0001389777D01*
X0002873368Y0001406090D01*
X0002873384Y0001423753D01*
X0002866638Y0001440078D01*
X0002854158Y0001452579D01*
X0002848424Y0001454960D01*
X0002901023Y0001454960D01*
X0002901023Y0001029960D01*
G36*
X0002821604Y0001365517D02*
X0002821047Y0001364960D01*
X0002821604Y0001364402D01*
X0002814533Y0001357332D01*
X0002813976Y0001357889D01*
X0002813418Y0001357332D01*
X0002806348Y0001364402D01*
X0002806905Y0001364960D01*
X0002806348Y0001365517D01*
X0002813418Y0001372588D01*
X0002813976Y0001372031D01*
X0002814533Y0001372588D01*
X0002821604Y0001365517D01*
X0002821604Y0001365517D01*
G37*
X0002821604Y0001365517D02*
X0002821047Y0001364960D01*
X0002821604Y0001364402D01*
X0002814533Y0001357332D01*
X0002813976Y0001357889D01*
X0002813418Y0001357332D01*
X0002806348Y0001364402D01*
X0002806905Y0001364960D01*
X0002806348Y0001365517D01*
X0002813418Y0001372588D01*
X0002813976Y0001372031D01*
X0002814533Y0001372588D01*
X0002821604Y0001365517D01*
G01*
D58*
D59*
X0003096672Y0001436520D02*
X0003119168Y0001436520D01*
X0003107920Y0001397150D02*
X0003107920Y0001436520D01*
X0003139791Y0001436520D02*
X0003147290Y0001436520D01*
X0003151040Y0001434645D01*
X0003154790Y0001430896D01*
X0003156664Y0001423397D01*
X0003156664Y0001410273D01*
X0003154790Y0001402774D01*
X0003151040Y0001399025D01*
X0003147290Y0001397150D01*
X0003139791Y0001397150D01*
X0003136042Y0001399025D01*
X0003132292Y0001402774D01*
X0003130418Y0001410273D01*
X0003130418Y0001423397D01*
X0003132292Y0001430896D01*
X0003136042Y0001434645D01*
X0003139791Y0001436520D01*
X0003173537Y0001397150D02*
X0003173537Y0001436520D01*
X0003188535Y0001436520D01*
X0003192284Y0001434645D01*
X0003194160Y0001432770D01*
X0003196034Y0001429021D01*
X0003196034Y0001423397D01*
X0003194160Y0001419647D01*
X0003192284Y0001417772D01*
X0003188535Y0001415897D01*
X0003173537Y0001415897D01*
D60*
X0003473228Y0000217283D03*
X0003473228Y0001382637D03*
D61*
X0003798228Y0001264960D03*
X0003748228Y0001264960D03*
X0003798228Y0001314960D03*
X0003748228Y0001314960D03*
X0003798228Y0001364960D03*
X0003748228Y0001364960D03*
D62*
X0003868228Y0001359960D03*
X0003378228Y0000754960D03*
X0003178228Y0000502559D03*
X0003163228Y0000834960D03*
X0003308227Y0000279960D03*
X0003453228Y0001184960D03*
X0003673228Y0000404960D03*
X0003433228Y0000704960D03*
X0003498228Y0001054960D03*
X0003193228Y0001104960D03*
X0003673228Y0001234960D03*
X0003673228Y0001299960D03*
X0003848228Y0001314960D03*
X0003543228Y0000534960D03*
X0003773228Y0000514960D03*
D59*
X0003863228Y0001364960D02*
X0003798228Y0001364960D01*
X0003868228Y0001359960D02*
X0003863228Y0001364960D01*
X0003373228Y0000749960D02*
X0003373228Y0000684960D01*
X0003378228Y0000754960D02*
X0003373228Y0000749960D01*
X0003163228Y0000679960D02*
X0003378228Y0000679960D01*
X0003473228Y0000584960D02*
X0003473228Y0000288149D01*
X0003378228Y0000679960D02*
X0003473228Y0000584960D01*
X0003163228Y0000517559D02*
X0003163228Y0000679960D01*
X0003163228Y0000679960D02*
X0003163228Y0000834960D01*
X0003178228Y0000502559D02*
X0003163228Y0000517559D01*
X0003391417Y0000288149D02*
X0003473228Y0000288149D01*
X0003363228Y0000279960D02*
X0003383228Y0000279960D01*
X0003308227Y0000279960D02*
X0003363228Y0000279960D01*
X0003383228Y0000279960D02*
X0003391417Y0000288149D01*
X0003473228Y0001224960D02*
X0003473228Y0001204960D01*
X0003473228Y0001224960D02*
X0003473228Y0001311771D01*
X0003473228Y0001204960D02*
X0003453228Y0001184960D01*
X0003798228Y0001264960D02*
X0003798228Y0001259960D01*
X0003798228Y0001259960D02*
X0003833228Y0001224960D01*
X0003833228Y0001224960D02*
X0003833228Y0001169960D01*
X0003833228Y0001169960D02*
X0003718228Y0001054960D01*
X0003718228Y0001054960D02*
X0003498228Y0001054960D01*
X0003513228Y0000624960D02*
X0003433228Y0000704960D01*
X0003513228Y0000494959D02*
X0003513228Y0000624960D01*
X0003553228Y0000454960D02*
X0003513228Y0000494959D01*
X0003623228Y0000454960D02*
X0003553228Y0000454960D01*
X0003673228Y0000404960D02*
X0003623228Y0000454960D01*
X0003498228Y0001054960D02*
X0003498228Y0000874960D01*
X0003433228Y0000809960D02*
X0003498228Y0000874960D01*
X0003433228Y0000809960D02*
X0003433228Y0000704960D01*
X0003243228Y0001054960D02*
X0003498228Y0001054960D01*
X0003193228Y0001104960D02*
X0003243228Y0001054960D01*
X0003703228Y0001264960D02*
X0003748228Y0001264960D01*
X0003673228Y0001234960D02*
X0003703228Y0001264960D01*
X0003688228Y0001314960D02*
X0003748228Y0001314960D01*
X0003673228Y0001299960D02*
X0003688228Y0001314960D01*
X0003848228Y0001314960D02*
X0003798228Y0001314960D01*
X0003563228Y0000514960D02*
X0003543228Y0000534960D01*
X0003773228Y0000514960D02*
X0003563228Y0000514960D01*
D63*
G36*
X0003357186Y0001453503D02*
X0003357186Y0001311771D01*
X0003358929Y0001302506D01*
X0003364405Y0001293998D01*
X0003372760Y0001288289D01*
X0003382677Y0001286281D01*
X0003443307Y0001286281D01*
X0003443307Y0001220690D01*
X0003432403Y0001216185D01*
X0003422038Y0001205839D01*
X0003416423Y0001192314D01*
X0003416409Y0001177670D01*
X0003422003Y0001164136D01*
X0003432349Y0001153771D01*
X0003445874Y0001148155D01*
X0003460518Y0001148143D01*
X0003474052Y0001153735D01*
X0003484417Y0001164081D01*
X0003490032Y0001177606D01*
X0003490034Y0001179451D01*
X0003494385Y0001183803D01*
X0003498402Y0001189814D01*
X0003500870Y0001193510D01*
X0003503149Y0001204960D01*
X0003503149Y0001286281D01*
X0003563779Y0001286281D01*
X0003573043Y0001288025D01*
X0003581552Y0001293500D01*
X0003587261Y0001301854D01*
X0003589268Y0001311771D01*
X0003589268Y0001453503D01*
X0003588995Y0001454960D01*
X0003713767Y0001454960D01*
X0003708110Y0001452623D01*
X0003695609Y0001440143D01*
X0003688836Y0001423831D01*
X0003688820Y0001406167D01*
X0003695565Y0001389842D01*
X0003708044Y0001377342D01*
X0003709346Y0001376801D01*
X0003707785Y0001373041D01*
X0003707771Y0001356949D01*
X0003712757Y0001344881D01*
X0003688228Y0001344881D01*
X0003676777Y0001342604D01*
X0003668055Y0001336776D01*
X0003665938Y0001336778D01*
X0003652403Y0001331184D01*
X0003642039Y0001320839D01*
X0003636423Y0001307314D01*
X0003636410Y0001292670D01*
X0003642003Y0001279136D01*
X0003652349Y0001268771D01*
X0003655498Y0001267464D01*
X0003652403Y0001266185D01*
X0003642039Y0001255839D01*
X0003636423Y0001242314D01*
X0003636410Y0001227670D01*
X0003642003Y0001214136D01*
X0003652349Y0001203771D01*
X0003665874Y0001198155D01*
X0003680518Y0001198143D01*
X0003694051Y0001203735D01*
X0003704417Y0001214081D01*
X0003710032Y0001227606D01*
X0003710034Y0001229451D01*
X0003715622Y0001235039D01*
X0003720942Y0001235039D01*
X0003725285Y0001230688D01*
X0003730696Y0001228441D01*
X0003728785Y0001223841D01*
X0003728770Y0001206157D01*
X0003735523Y0001189814D01*
X0003748016Y0001177299D01*
X0003764347Y0001170518D01*
X0003782031Y0001170502D01*
X0003798091Y0001177138D01*
X0003705834Y0001084881D01*
X0003520372Y0001084881D01*
X0003519107Y0001086149D01*
X0003505582Y0001091765D01*
X0003490938Y0001091777D01*
X0003477403Y0001086185D01*
X0003476097Y0001084881D01*
X0003255622Y0001084881D01*
X0003230044Y0001110459D01*
X0003230045Y0001112250D01*
X0003224453Y0001125785D01*
X0003214107Y0001136149D01*
X0003200582Y0001141765D01*
X0003185938Y0001141777D01*
X0003172403Y0001136185D01*
X0003162039Y0001125839D01*
X0003156423Y0001112314D01*
X0003156410Y0001097670D01*
X0003162002Y0001084136D01*
X0003172348Y0001073771D01*
X0003185874Y0001068155D01*
X0003187719Y0001068154D01*
X0003222070Y0001033803D01*
X0003231777Y0001027317D01*
X0003243228Y0001025039D01*
X0003468307Y0001025039D01*
X0003468307Y0000887354D01*
X0003412069Y0000831117D01*
X0003405584Y0000821410D01*
X0003403307Y0000809960D01*
X0003403307Y0000727104D01*
X0003402039Y0000725839D01*
X0003396423Y0000712314D01*
X0003396410Y0000697669D01*
X0003402003Y0000684136D01*
X0003412349Y0000673771D01*
X0003425874Y0000668155D01*
X0003427719Y0000668154D01*
X0003483306Y0000612566D01*
X0003483306Y0000494959D01*
X0003485584Y0000483510D01*
X0003492070Y0000473803D01*
X0003532070Y0000433803D01*
X0003541777Y0000427317D01*
X0003553228Y0000425039D01*
X0003610834Y0000425039D01*
X0003636412Y0000399461D01*
X0003636410Y0000397670D01*
X0003642003Y0000384136D01*
X0003652349Y0000373771D01*
X0003665874Y0000368155D01*
X0003680518Y0000368143D01*
X0003694051Y0000373735D01*
X0003704417Y0000384081D01*
X0003710032Y0000397606D01*
X0003710045Y0000412250D01*
X0003704453Y0000425785D01*
X0003694107Y0000436149D01*
X0003680582Y0000441765D01*
X0003678737Y0000441766D01*
X0003644385Y0000476118D01*
X0003634678Y0000482604D01*
X0003623228Y0000484881D01*
X0003565622Y0000484881D01*
X0003565464Y0000485039D01*
X0003751084Y0000485039D01*
X0003752349Y0000483771D01*
X0003765874Y0000478155D01*
X0003780518Y0000478143D01*
X0003794052Y0000483735D01*
X0003804416Y0000494081D01*
X0003810032Y0000507606D01*
X0003810045Y0000522250D01*
X0003804453Y0000535785D01*
X0003794107Y0000546149D01*
X0003780582Y0000551765D01*
X0003765938Y0000551778D01*
X0003752403Y0000546185D01*
X0003751096Y0000544881D01*
X0003578958Y0000544881D01*
X0003574453Y0000555785D01*
X0003564107Y0000566149D01*
X0003550582Y0000571765D01*
X0003543149Y0000571771D01*
X0003543149Y0000624960D01*
X0003540871Y0000636410D01*
X0003534385Y0000646118D01*
X0003470043Y0000710459D01*
X0003470045Y0000712250D01*
X0003464453Y0000725785D01*
X0003463148Y0000727091D01*
X0003463148Y0000797566D01*
X0003519385Y0000853802D01*
X0003525871Y0000863510D01*
X0003528149Y0000874960D01*
X0003528149Y0001025039D01*
X0003708244Y0001025039D01*
X0003708228Y0001024960D01*
X0003708228Y0000939960D01*
X0003558228Y0000939960D01*
X0003556411Y0000939618D01*
X0003554742Y0000938543D01*
X0003553622Y0000936905D01*
X0003553228Y0000934960D01*
X0003553228Y0000774960D01*
X0003553570Y0000773143D01*
X0003554644Y0000771474D01*
X0003556283Y0000770354D01*
X0003558228Y0000769960D01*
X0003708228Y0000769960D01*
X0003708228Y0000559960D01*
X0003708570Y0000558143D01*
X0003709644Y0000556474D01*
X0003711283Y0000555354D01*
X0003713228Y0000554960D01*
X0003885275Y0000554960D01*
X0003885275Y0000144960D01*
X0003588779Y0000144960D01*
X0003588779Y0000206033D01*
X0003582529Y0000212283D01*
X0003478227Y0000212283D01*
X0003478227Y0000211496D01*
X0003468227Y0000211496D01*
X0003468227Y0000212283D01*
X0003363927Y0000212283D01*
X0003357677Y0000206033D01*
X0003357677Y0000144960D01*
X0003240761Y0000144960D01*
X0003238228Y0000157694D01*
X0003238228Y0000293122D01*
X0003357677Y0000293122D01*
X0003357677Y0000228533D01*
X0003363927Y0000222283D01*
X0003468227Y0000222283D01*
X0003468227Y0000306899D01*
X0003478227Y0000306899D01*
X0003478227Y0000222283D01*
X0003582529Y0000222283D01*
X0003588779Y0000228533D01*
X0003588779Y0000293122D01*
X0003584973Y0000302310D01*
X0003577940Y0000309343D01*
X0003568752Y0000313149D01*
X0003484478Y0000313149D01*
X0003478227Y0000306899D01*
X0003468227Y0000306899D01*
X0003461978Y0000313149D01*
X0003377704Y0000313149D01*
X0003368515Y0000309343D01*
X0003361483Y0000302310D01*
X0003357677Y0000293122D01*
X0003238228Y0000293122D01*
X0003238228Y0000314960D01*
X0003237834Y0000316905D01*
X0003236714Y0000318544D01*
X0003235045Y0000319618D01*
X0003233228Y0000319960D01*
X0003083228Y0000319960D01*
X0003083228Y0001353543D01*
X0003228532Y0001353543D01*
X0003228532Y0001454960D01*
X0003357482Y0001454960D01*
X0003357186Y0001453503D01*
X0003357186Y0001453503D01*
G37*
X0003357186Y0001453503D02*
X0003357186Y0001311771D01*
X0003358929Y0001302506D01*
X0003364405Y0001293998D01*
X0003372760Y0001288289D01*
X0003382677Y0001286281D01*
X0003443307Y0001286281D01*
X0003443307Y0001220690D01*
X0003432403Y0001216185D01*
X0003422038Y0001205839D01*
X0003416423Y0001192314D01*
X0003416409Y0001177670D01*
X0003422003Y0001164136D01*
X0003432349Y0001153771D01*
X0003445874Y0001148155D01*
X0003460518Y0001148143D01*
X0003474052Y0001153735D01*
X0003484417Y0001164081D01*
X0003490032Y0001177606D01*
X0003490034Y0001179451D01*
X0003494385Y0001183803D01*
X0003498402Y0001189814D01*
X0003500870Y0001193510D01*
X0003503149Y0001204960D01*
X0003503149Y0001286281D01*
X0003563779Y0001286281D01*
X0003573043Y0001288025D01*
X0003581552Y0001293500D01*
X0003587261Y0001301854D01*
X0003589268Y0001311771D01*
X0003589268Y0001453503D01*
X0003588995Y0001454960D01*
X0003713767Y0001454960D01*
X0003708110Y0001452623D01*
X0003695609Y0001440143D01*
X0003688836Y0001423831D01*
X0003688820Y0001406167D01*
X0003695565Y0001389842D01*
X0003708044Y0001377342D01*
X0003709346Y0001376801D01*
X0003707785Y0001373041D01*
X0003707771Y0001356949D01*
X0003712757Y0001344881D01*
X0003688228Y0001344881D01*
X0003676777Y0001342604D01*
X0003668055Y0001336776D01*
X0003665938Y0001336778D01*
X0003652403Y0001331184D01*
X0003642039Y0001320839D01*
X0003636423Y0001307314D01*
X0003636410Y0001292670D01*
X0003642003Y0001279136D01*
X0003652349Y0001268771D01*
X0003655498Y0001267464D01*
X0003652403Y0001266185D01*
X0003642039Y0001255839D01*
X0003636423Y0001242314D01*
X0003636410Y0001227670D01*
X0003642003Y0001214136D01*
X0003652349Y0001203771D01*
X0003665874Y0001198155D01*
X0003680518Y0001198143D01*
X0003694051Y0001203735D01*
X0003704417Y0001214081D01*
X0003710032Y0001227606D01*
X0003710034Y0001229451D01*
X0003715622Y0001235039D01*
X0003720942Y0001235039D01*
X0003725285Y0001230688D01*
X0003730696Y0001228441D01*
X0003728785Y0001223841D01*
X0003728770Y0001206157D01*
X0003735523Y0001189814D01*
X0003748016Y0001177299D01*
X0003764347Y0001170518D01*
X0003782031Y0001170502D01*
X0003798091Y0001177138D01*
X0003705834Y0001084881D01*
X0003520372Y0001084881D01*
X0003519107Y0001086149D01*
X0003505582Y0001091765D01*
X0003490938Y0001091777D01*
X0003477403Y0001086185D01*
X0003476097Y0001084881D01*
X0003255622Y0001084881D01*
X0003230044Y0001110459D01*
X0003230045Y0001112250D01*
X0003224453Y0001125785D01*
X0003214107Y0001136149D01*
X0003200582Y0001141765D01*
X0003185938Y0001141777D01*
X0003172403Y0001136185D01*
X0003162039Y0001125839D01*
X0003156423Y0001112314D01*
X0003156410Y0001097670D01*
X0003162002Y0001084136D01*
X0003172348Y0001073771D01*
X0003185874Y0001068155D01*
X0003187719Y0001068154D01*
X0003222070Y0001033803D01*
X0003231777Y0001027317D01*
X0003243228Y0001025039D01*
X0003468307Y0001025039D01*
X0003468307Y0000887354D01*
X0003412069Y0000831117D01*
X0003405584Y0000821410D01*
X0003403307Y0000809960D01*
X0003403307Y0000727104D01*
X0003402039Y0000725839D01*
X0003396423Y0000712314D01*
X0003396410Y0000697669D01*
X0003402003Y0000684136D01*
X0003412349Y0000673771D01*
X0003425874Y0000668155D01*
X0003427719Y0000668154D01*
X0003483306Y0000612566D01*
X0003483306Y0000494959D01*
X0003485584Y0000483510D01*
X0003492070Y0000473803D01*
X0003532070Y0000433803D01*
X0003541777Y0000427317D01*
X0003553228Y0000425039D01*
X0003610834Y0000425039D01*
X0003636412Y0000399461D01*
X0003636410Y0000397670D01*
X0003642003Y0000384136D01*
X0003652349Y0000373771D01*
X0003665874Y0000368155D01*
X0003680518Y0000368143D01*
X0003694051Y0000373735D01*
X0003704417Y0000384081D01*
X0003710032Y0000397606D01*
X0003710045Y0000412250D01*
X0003704453Y0000425785D01*
X0003694107Y0000436149D01*
X0003680582Y0000441765D01*
X0003678737Y0000441766D01*
X0003644385Y0000476118D01*
X0003634678Y0000482604D01*
X0003623228Y0000484881D01*
X0003565622Y0000484881D01*
X0003565464Y0000485039D01*
X0003751084Y0000485039D01*
X0003752349Y0000483771D01*
X0003765874Y0000478155D01*
X0003780518Y0000478143D01*
X0003794052Y0000483735D01*
X0003804416Y0000494081D01*
X0003810032Y0000507606D01*
X0003810045Y0000522250D01*
X0003804453Y0000535785D01*
X0003794107Y0000546149D01*
X0003780582Y0000551765D01*
X0003765938Y0000551778D01*
X0003752403Y0000546185D01*
X0003751096Y0000544881D01*
X0003578958Y0000544881D01*
X0003574453Y0000555785D01*
X0003564107Y0000566149D01*
X0003550582Y0000571765D01*
X0003543149Y0000571771D01*
X0003543149Y0000624960D01*
X0003540871Y0000636410D01*
X0003534385Y0000646118D01*
X0003470043Y0000710459D01*
X0003470045Y0000712250D01*
X0003464453Y0000725785D01*
X0003463148Y0000727091D01*
X0003463148Y0000797566D01*
X0003519385Y0000853802D01*
X0003525871Y0000863510D01*
X0003528149Y0000874960D01*
X0003528149Y0001025039D01*
X0003708244Y0001025039D01*
X0003708228Y0001024960D01*
X0003708228Y0000939960D01*
X0003558228Y0000939960D01*
X0003556411Y0000939618D01*
X0003554742Y0000938543D01*
X0003553622Y0000936905D01*
X0003553228Y0000934960D01*
X0003553228Y0000774960D01*
X0003553570Y0000773143D01*
X0003554644Y0000771474D01*
X0003556283Y0000770354D01*
X0003558228Y0000769960D01*
X0003708228Y0000769960D01*
X0003708228Y0000559960D01*
X0003708570Y0000558143D01*
X0003709644Y0000556474D01*
X0003711283Y0000555354D01*
X0003713228Y0000554960D01*
X0003885275Y0000554960D01*
X0003885275Y0000144960D01*
X0003588779Y0000144960D01*
X0003588779Y0000206033D01*
X0003582529Y0000212283D01*
X0003478227Y0000212283D01*
X0003478227Y0000211496D01*
X0003468227Y0000211496D01*
X0003468227Y0000212283D01*
X0003363927Y0000212283D01*
X0003357677Y0000206033D01*
X0003357677Y0000144960D01*
X0003240761Y0000144960D01*
X0003238228Y0000157694D01*
X0003238228Y0000293122D01*
X0003357677Y0000293122D01*
X0003357677Y0000228533D01*
X0003363927Y0000222283D01*
X0003468227Y0000222283D01*
X0003468227Y0000306899D01*
X0003478227Y0000306899D01*
X0003478227Y0000222283D01*
X0003582529Y0000222283D01*
X0003588779Y0000228533D01*
X0003588779Y0000293122D01*
X0003584973Y0000302310D01*
X0003577940Y0000309343D01*
X0003568752Y0000313149D01*
X0003484478Y0000313149D01*
X0003478227Y0000306899D01*
X0003468227Y0000306899D01*
X0003461978Y0000313149D01*
X0003377704Y0000313149D01*
X0003368515Y0000309343D01*
X0003361483Y0000302310D01*
X0003357677Y0000293122D01*
X0003238228Y0000293122D01*
X0003238228Y0000314960D01*
X0003237834Y0000316905D01*
X0003236714Y0000318544D01*
X0003235045Y0000319618D01*
X0003233228Y0000319960D01*
X0003083228Y0000319960D01*
X0003083228Y0001353543D01*
X0003228532Y0001353543D01*
X0003228532Y0001454960D01*
X0003357482Y0001454960D01*
X0003357186Y0001453503D01*
G36*
X0003885275Y0001029960D02*
X0003733635Y0001029960D01*
X0003739385Y0001033803D01*
X0003854385Y0001148803D01*
X0003860871Y0001158510D01*
X0003863149Y0001169960D01*
X0003863149Y0001224960D01*
X0003860871Y0001236410D01*
X0003854385Y0001246118D01*
X0003838675Y0001261828D01*
X0003838685Y0001272971D01*
X0003835646Y0001280325D01*
X0003840874Y0001278155D01*
X0003855518Y0001278143D01*
X0003869052Y0001283735D01*
X0003879417Y0001294081D01*
X0003885032Y0001307606D01*
X0003885045Y0001322250D01*
X0003879453Y0001335785D01*
X0003869107Y0001346149D01*
X0003855582Y0001351765D01*
X0003840938Y0001351778D01*
X0003835798Y0001349654D01*
X0003839202Y0001360265D01*
X0003837880Y0001376303D01*
X0003837596Y0001376987D01*
X0003838346Y0001377298D01*
X0003850846Y0001389777D01*
X0003857620Y0001406090D01*
X0003857636Y0001423753D01*
X0003850890Y0001440078D01*
X0003838411Y0001452579D01*
X0003832676Y0001454960D01*
X0003885275Y0001454960D01*
X0003885275Y0001029960D01*
X0003885275Y0001029960D01*
G37*
X0003885275Y0001029960D02*
X0003733635Y0001029960D01*
X0003739385Y0001033803D01*
X0003854385Y0001148803D01*
X0003860871Y0001158510D01*
X0003863149Y0001169960D01*
X0003863149Y0001224960D01*
X0003860871Y0001236410D01*
X0003854385Y0001246118D01*
X0003838675Y0001261828D01*
X0003838685Y0001272971D01*
X0003835646Y0001280325D01*
X0003840874Y0001278155D01*
X0003855518Y0001278143D01*
X0003869052Y0001283735D01*
X0003879417Y0001294081D01*
X0003885032Y0001307606D01*
X0003885045Y0001322250D01*
X0003879453Y0001335785D01*
X0003869107Y0001346149D01*
X0003855582Y0001351765D01*
X0003840938Y0001351778D01*
X0003835798Y0001349654D01*
X0003839202Y0001360265D01*
X0003837880Y0001376303D01*
X0003837596Y0001376987D01*
X0003838346Y0001377298D01*
X0003850846Y0001389777D01*
X0003857620Y0001406090D01*
X0003857636Y0001423753D01*
X0003850890Y0001440078D01*
X0003838411Y0001452579D01*
X0003832676Y0001454960D01*
X0003885275Y0001454960D01*
X0003885275Y0001029960D01*
G36*
X0003805856Y0001365517D02*
X0003805299Y0001364960D01*
X0003805856Y0001364402D01*
X0003798785Y0001357332D01*
X0003798228Y0001357889D01*
X0003797671Y0001357332D01*
X0003790600Y0001364402D01*
X0003791157Y0001364960D01*
X0003790600Y0001365517D01*
X0003797671Y0001372588D01*
X0003798228Y0001372031D01*
X0003798785Y0001372588D01*
X0003805856Y0001365517D01*
X0003805856Y0001365517D01*
G37*
X0003805856Y0001365517D02*
X0003805299Y0001364960D01*
X0003805856Y0001364402D01*
X0003798785Y0001357332D01*
X0003798228Y0001357889D01*
X0003797671Y0001357332D01*
X0003790600Y0001364402D01*
X0003791157Y0001364960D01*
X0003790600Y0001365517D01*
X0003797671Y0001372588D01*
X0003798228Y0001372031D01*
X0003798785Y0001372588D01*
X0003805856Y0001365517D01*
G04 next file*
%LPD*%
G01*
D74*
D75*
X0000143916Y0002932583D02*
X0000166413Y0002932583D01*
X0000155164Y0002893213D02*
X0000155164Y0002932583D01*
X0000187034Y0002932583D02*
X0000194535Y0002932583D01*
X0000198284Y0002930708D01*
X0000202034Y0002926958D01*
X0000203908Y0002919460D01*
X0000203908Y0002906336D01*
X0000202034Y0002898837D01*
X0000198284Y0002895088D01*
X0000194535Y0002893213D01*
X0000187034Y0002893213D01*
X0000183286Y0002895088D01*
X0000179536Y0002898837D01*
X0000177662Y0002906336D01*
X0000177662Y0002919460D01*
X0000179536Y0002926958D01*
X0000183286Y0002930708D01*
X0000187034Y0002932583D01*
X0000220781Y0002893213D02*
X0000220781Y0002932583D01*
X0000235779Y0002932583D01*
X0000239529Y0002930708D01*
X0000241404Y0002928832D01*
X0000243277Y0002925084D01*
X0000243277Y0002919460D01*
X0000241404Y0002915710D01*
X0000239529Y0002913835D01*
X0000235779Y0002911961D01*
X0000220781Y0002911961D01*
D76*
X0000520472Y0001713346D03*
X0000520472Y0002878700D03*
D77*
X0000845472Y0002761023D03*
X0000795472Y0002761023D03*
X0000845472Y0002811022D03*
X0000795472Y0002811022D03*
X0000845472Y0002861023D03*
X0000795472Y0002861023D03*
D78*
X0000915472Y0002856023D03*
X0000425472Y0002251023D03*
X0000225472Y0001998622D03*
X0000210472Y0002331023D03*
X0000355472Y0001776023D03*
X0000500472Y0002681023D03*
X0000720472Y0001901023D03*
X0000480472Y0002201023D03*
X0000545472Y0002551023D03*
X0000240472Y0002601023D03*
X0000720472Y0002731023D03*
X0000720472Y0002796023D03*
X0000895472Y0002811022D03*
X0000590472Y0002031022D03*
X0000820471Y0002011022D03*
D75*
X0000910472Y0002861023D02*
X0000845472Y0002861023D01*
X0000915472Y0002856023D02*
X0000910472Y0002861023D01*
X0000420472Y0002246023D02*
X0000420472Y0002181023D01*
X0000425472Y0002251023D02*
X0000420472Y0002246023D01*
X0000210472Y0002176023D02*
X0000425472Y0002176023D01*
X0000520472Y0002081023D02*
X0000520472Y0001784212D01*
X0000425472Y0002176023D02*
X0000520472Y0002081023D01*
X0000210472Y0002013621D02*
X0000210472Y0002176023D01*
X0000210472Y0002176023D02*
X0000210472Y0002331023D01*
X0000225472Y0001998622D02*
X0000210472Y0002013621D01*
X0000438661Y0001784212D02*
X0000520472Y0001784212D01*
X0000410472Y0001776023D02*
X0000430472Y0001776023D01*
X0000355472Y0001776023D02*
X0000410472Y0001776023D01*
X0000430472Y0001776023D02*
X0000438661Y0001784212D01*
X0000520472Y0002721023D02*
X0000520472Y0002701022D01*
X0000520472Y0002721023D02*
X0000520472Y0002807834D01*
X0000520472Y0002701022D02*
X0000500472Y0002681023D01*
X0000845472Y0002761023D02*
X0000845472Y0002756023D01*
X0000845472Y0002756023D02*
X0000880472Y0002721023D01*
X0000880472Y0002721023D02*
X0000880472Y0002666023D01*
X0000880472Y0002666023D02*
X0000765471Y0002551023D01*
X0000765471Y0002551023D02*
X0000545472Y0002551023D01*
X0000560472Y0002121023D02*
X0000480472Y0002201023D01*
X0000560472Y0001991023D02*
X0000560472Y0002121023D01*
X0000600472Y0001951023D02*
X0000560472Y0001991023D01*
X0000670472Y0001951023D02*
X0000600472Y0001951023D01*
X0000720472Y0001901023D02*
X0000670472Y0001951023D01*
X0000545472Y0002551023D02*
X0000545472Y0002371023D01*
X0000480472Y0002306023D02*
X0000545472Y0002371023D01*
X0000480472Y0002306023D02*
X0000480472Y0002201023D01*
X0000290472Y0002551023D02*
X0000545472Y0002551023D01*
X0000240472Y0002601023D02*
X0000290472Y0002551023D01*
X0000750471Y0002761023D02*
X0000795472Y0002761023D01*
X0000720472Y0002731023D02*
X0000750471Y0002761023D01*
X0000735472Y0002811022D02*
X0000795472Y0002811022D01*
X0000720472Y0002796023D02*
X0000735472Y0002811022D01*
X0000895472Y0002811022D02*
X0000845472Y0002811022D01*
X0000610472Y0002011022D02*
X0000590472Y0002031022D01*
X0000820471Y0002011022D02*
X0000610472Y0002011022D01*
D79*
G36*
X0000404431Y0002949566D02*
X0000404431Y0002807834D01*
X0000406174Y0002798570D01*
X0000411650Y0002790061D01*
X0000420004Y0002784353D01*
X0000429921Y0002782343D01*
X0000490551Y0002782343D01*
X0000490551Y0002716753D01*
X0000479647Y0002712248D01*
X0000469283Y0002701902D01*
X0000463667Y0002688377D01*
X0000463655Y0002673733D01*
X0000469247Y0002660199D01*
X0000479593Y0002649834D01*
X0000493118Y0002644218D01*
X0000507762Y0002644206D01*
X0000521296Y0002649798D01*
X0000531661Y0002660144D01*
X0000537277Y0002673669D01*
X0000537278Y0002675513D01*
X0000541629Y0002679866D01*
X0000545646Y0002685877D01*
X0000548116Y0002689573D01*
X0000550393Y0002701022D01*
X0000550393Y0002782343D01*
X0000611023Y0002782343D01*
X0000620288Y0002784088D01*
X0000628796Y0002789563D01*
X0000634505Y0002797917D01*
X0000636513Y0002807834D01*
X0000636513Y0002949566D01*
X0000636239Y0002951023D01*
X0000761012Y0002951023D01*
X0000755354Y0002948686D01*
X0000742853Y0002936207D01*
X0000736080Y0002919894D01*
X0000736063Y0002902230D01*
X0000742809Y0002885905D01*
X0000755289Y0002873405D01*
X0000756590Y0002872863D01*
X0000755029Y0002869104D01*
X0000755015Y0002853012D01*
X0000760001Y0002840944D01*
X0000735472Y0002840944D01*
X0000724022Y0002838667D01*
X0000715299Y0002832839D01*
X0000713182Y0002832841D01*
X0000699646Y0002827248D01*
X0000689283Y0002816902D01*
X0000683667Y0002803376D01*
X0000683654Y0002788733D01*
X0000689247Y0002775199D01*
X0000699593Y0002764833D01*
X0000702742Y0002763527D01*
X0000699646Y0002762248D01*
X0000689283Y0002751902D01*
X0000683667Y0002738377D01*
X0000683654Y0002723733D01*
X0000689247Y0002710199D01*
X0000699593Y0002699834D01*
X0000713118Y0002694218D01*
X0000727762Y0002694206D01*
X0000741296Y0002699798D01*
X0000751661Y0002710144D01*
X0000757277Y0002723669D01*
X0000757277Y0002725514D01*
X0000762866Y0002731102D01*
X0000768185Y0002731102D01*
X0000772529Y0002726751D01*
X0000777940Y0002724504D01*
X0000776030Y0002719904D01*
X0000776014Y0002702220D01*
X0000782767Y0002685877D01*
X0000795260Y0002673362D01*
X0000811591Y0002666580D01*
X0000829275Y0002666565D01*
X0000845335Y0002673201D01*
X0000753078Y0002580944D01*
X0000567616Y0002580944D01*
X0000566351Y0002582212D01*
X0000552826Y0002587828D01*
X0000538182Y0002587841D01*
X0000524647Y0002582248D01*
X0000523340Y0002580944D01*
X0000302866Y0002580944D01*
X0000277288Y0002606522D01*
X0000277289Y0002608313D01*
X0000271697Y0002621848D01*
X0000261351Y0002632211D01*
X0000247826Y0002637828D01*
X0000233182Y0002637840D01*
X0000219646Y0002632248D01*
X0000209282Y0002621902D01*
X0000203667Y0002608377D01*
X0000203655Y0002593733D01*
X0000209247Y0002580199D01*
X0000219593Y0002569834D01*
X0000233117Y0002564218D01*
X0000234963Y0002564217D01*
X0000269314Y0002529866D01*
X0000279022Y0002523380D01*
X0000290472Y0002521102D01*
X0000515551Y0002521102D01*
X0000515551Y0002383417D01*
X0000459314Y0002327181D01*
X0000452828Y0002317473D01*
X0000450551Y0002306023D01*
X0000450551Y0002223167D01*
X0000449283Y0002221902D01*
X0000443666Y0002208377D01*
X0000443655Y0002193733D01*
X0000449247Y0002180199D01*
X0000459593Y0002169834D01*
X0000473118Y0002164218D01*
X0000474963Y0002164217D01*
X0000530551Y0002108629D01*
X0000530551Y0001991023D01*
X0000532828Y0001979573D01*
X0000539314Y0001969865D01*
X0000579314Y0001929866D01*
X0000589022Y0001923379D01*
X0000600472Y0001921102D01*
X0000658078Y0001921102D01*
X0000683656Y0001895524D01*
X0000683654Y0001893733D01*
X0000689247Y0001880199D01*
X0000699593Y0001869834D01*
X0000713118Y0001864218D01*
X0000727762Y0001864206D01*
X0000741296Y0001869798D01*
X0000751661Y0001880144D01*
X0000757277Y0001893668D01*
X0000757289Y0001908313D01*
X0000751697Y0001921848D01*
X0000741351Y0001932211D01*
X0000727826Y0001937828D01*
X0000725981Y0001937829D01*
X0000691629Y0001972181D01*
X0000681922Y0001978667D01*
X0000670472Y0001980944D01*
X0000612866Y0001980944D01*
X0000612708Y0001981100D01*
X0000798328Y0001981100D01*
X0000799593Y0001979834D01*
X0000813117Y0001974218D01*
X0000827762Y0001974205D01*
X0000841295Y0001979798D01*
X0000851661Y0001990144D01*
X0000857277Y0002003669D01*
X0000857289Y0002018313D01*
X0000851697Y0002031848D01*
X0000841351Y0002042212D01*
X0000827826Y0002047828D01*
X0000813182Y0002047841D01*
X0000799646Y0002042247D01*
X0000798341Y0002040944D01*
X0000626202Y0002040944D01*
X0000621697Y0002051848D01*
X0000611351Y0002062212D01*
X0000597826Y0002067828D01*
X0000590393Y0002067834D01*
X0000590393Y0002121023D01*
X0000588116Y0002132473D01*
X0000581629Y0002142181D01*
X0000517287Y0002206522D01*
X0000517289Y0002208313D01*
X0000511696Y0002221848D01*
X0000510393Y0002223154D01*
X0000510393Y0002293629D01*
X0000566629Y0002349866D01*
X0000573116Y0002359573D01*
X0000575393Y0002371023D01*
X0000575393Y0002521102D01*
X0000755488Y0002521102D01*
X0000755472Y0002521023D01*
X0000755472Y0002436023D01*
X0000605472Y0002436023D01*
X0000603655Y0002435681D01*
X0000601986Y0002434607D01*
X0000600866Y0002432968D01*
X0000600472Y0002431023D01*
X0000600472Y0002271023D01*
X0000600814Y0002269206D01*
X0000601888Y0002267537D01*
X0000603527Y0002266417D01*
X0000605472Y0002266023D01*
X0000755472Y0002266023D01*
X0000755472Y0002056023D01*
X0000755814Y0002054206D01*
X0000756888Y0002052537D01*
X0000758527Y0002051416D01*
X0000760472Y0002051022D01*
X0000932519Y0002051022D01*
X0000932519Y0001641023D01*
X0000636022Y0001641023D01*
X0000636022Y0001702096D01*
X0000629773Y0001708346D01*
X0000525472Y0001708346D01*
X0000525472Y0001707559D01*
X0000515472Y0001707559D01*
X0000515472Y0001708346D01*
X0000411170Y0001708346D01*
X0000404921Y0001702096D01*
X0000404921Y0001641023D01*
X0000288005Y0001641023D01*
X0000285472Y0001653756D01*
X0000285472Y0001789185D01*
X0000404921Y0001789185D01*
X0000404921Y0001724596D01*
X0000411170Y0001718346D01*
X0000515472Y0001718346D01*
X0000515472Y0001802962D01*
X0000525472Y0001802962D01*
X0000525472Y0001718346D01*
X0000629773Y0001718346D01*
X0000636022Y0001724596D01*
X0000636022Y0001789185D01*
X0000632217Y0001798373D01*
X0000625185Y0001805406D01*
X0000615996Y0001809212D01*
X0000531722Y0001809212D01*
X0000525472Y0001802962D01*
X0000515472Y0001802962D01*
X0000509221Y0001809212D01*
X0000424948Y0001809212D01*
X0000415758Y0001805406D01*
X0000408727Y0001798373D01*
X0000404921Y0001789185D01*
X0000285472Y0001789185D01*
X0000285472Y0001811023D01*
X0000285078Y0001812968D01*
X0000283958Y0001814606D01*
X0000282289Y0001815681D01*
X0000280472Y0001816023D01*
X0000130472Y0001816023D01*
X0000130472Y0002849605D01*
X0000275777Y0002849605D01*
X0000275777Y0002951023D01*
X0000404726Y0002951023D01*
X0000404431Y0002949566D01*
X0000404431Y0002949566D01*
G37*
X0000404431Y0002949566D02*
X0000404431Y0002807834D01*
X0000406174Y0002798570D01*
X0000411650Y0002790061D01*
X0000420004Y0002784353D01*
X0000429921Y0002782343D01*
X0000490551Y0002782343D01*
X0000490551Y0002716753D01*
X0000479647Y0002712248D01*
X0000469283Y0002701902D01*
X0000463667Y0002688377D01*
X0000463655Y0002673733D01*
X0000469247Y0002660199D01*
X0000479593Y0002649834D01*
X0000493118Y0002644218D01*
X0000507762Y0002644206D01*
X0000521296Y0002649798D01*
X0000531661Y0002660144D01*
X0000537277Y0002673669D01*
X0000537278Y0002675513D01*
X0000541629Y0002679866D01*
X0000545646Y0002685877D01*
X0000548116Y0002689573D01*
X0000550393Y0002701022D01*
X0000550393Y0002782343D01*
X0000611023Y0002782343D01*
X0000620288Y0002784088D01*
X0000628796Y0002789563D01*
X0000634505Y0002797917D01*
X0000636513Y0002807834D01*
X0000636513Y0002949566D01*
X0000636239Y0002951023D01*
X0000761012Y0002951023D01*
X0000755354Y0002948686D01*
X0000742853Y0002936207D01*
X0000736080Y0002919894D01*
X0000736063Y0002902230D01*
X0000742809Y0002885905D01*
X0000755289Y0002873405D01*
X0000756590Y0002872863D01*
X0000755029Y0002869104D01*
X0000755015Y0002853012D01*
X0000760001Y0002840944D01*
X0000735472Y0002840944D01*
X0000724022Y0002838667D01*
X0000715299Y0002832839D01*
X0000713182Y0002832841D01*
X0000699646Y0002827248D01*
X0000689283Y0002816902D01*
X0000683667Y0002803376D01*
X0000683654Y0002788733D01*
X0000689247Y0002775199D01*
X0000699593Y0002764833D01*
X0000702742Y0002763527D01*
X0000699646Y0002762248D01*
X0000689283Y0002751902D01*
X0000683667Y0002738377D01*
X0000683654Y0002723733D01*
X0000689247Y0002710199D01*
X0000699593Y0002699834D01*
X0000713118Y0002694218D01*
X0000727762Y0002694206D01*
X0000741296Y0002699798D01*
X0000751661Y0002710144D01*
X0000757277Y0002723669D01*
X0000757277Y0002725514D01*
X0000762866Y0002731102D01*
X0000768185Y0002731102D01*
X0000772529Y0002726751D01*
X0000777940Y0002724504D01*
X0000776030Y0002719904D01*
X0000776014Y0002702220D01*
X0000782767Y0002685877D01*
X0000795260Y0002673362D01*
X0000811591Y0002666580D01*
X0000829275Y0002666565D01*
X0000845335Y0002673201D01*
X0000753078Y0002580944D01*
X0000567616Y0002580944D01*
X0000566351Y0002582212D01*
X0000552826Y0002587828D01*
X0000538182Y0002587841D01*
X0000524647Y0002582248D01*
X0000523340Y0002580944D01*
X0000302866Y0002580944D01*
X0000277288Y0002606522D01*
X0000277289Y0002608313D01*
X0000271697Y0002621848D01*
X0000261351Y0002632211D01*
X0000247826Y0002637828D01*
X0000233182Y0002637840D01*
X0000219646Y0002632248D01*
X0000209282Y0002621902D01*
X0000203667Y0002608377D01*
X0000203655Y0002593733D01*
X0000209247Y0002580199D01*
X0000219593Y0002569834D01*
X0000233117Y0002564218D01*
X0000234963Y0002564217D01*
X0000269314Y0002529866D01*
X0000279022Y0002523380D01*
X0000290472Y0002521102D01*
X0000515551Y0002521102D01*
X0000515551Y0002383417D01*
X0000459314Y0002327181D01*
X0000452828Y0002317473D01*
X0000450551Y0002306023D01*
X0000450551Y0002223167D01*
X0000449283Y0002221902D01*
X0000443666Y0002208377D01*
X0000443655Y0002193733D01*
X0000449247Y0002180199D01*
X0000459593Y0002169834D01*
X0000473118Y0002164218D01*
X0000474963Y0002164217D01*
X0000530551Y0002108629D01*
X0000530551Y0001991023D01*
X0000532828Y0001979573D01*
X0000539314Y0001969865D01*
X0000579314Y0001929866D01*
X0000589022Y0001923379D01*
X0000600472Y0001921102D01*
X0000658078Y0001921102D01*
X0000683656Y0001895524D01*
X0000683654Y0001893733D01*
X0000689247Y0001880199D01*
X0000699593Y0001869834D01*
X0000713118Y0001864218D01*
X0000727762Y0001864206D01*
X0000741296Y0001869798D01*
X0000751661Y0001880144D01*
X0000757277Y0001893668D01*
X0000757289Y0001908313D01*
X0000751697Y0001921848D01*
X0000741351Y0001932211D01*
X0000727826Y0001937828D01*
X0000725981Y0001937829D01*
X0000691629Y0001972181D01*
X0000681922Y0001978667D01*
X0000670472Y0001980944D01*
X0000612866Y0001980944D01*
X0000612708Y0001981100D01*
X0000798328Y0001981100D01*
X0000799593Y0001979834D01*
X0000813117Y0001974218D01*
X0000827762Y0001974205D01*
X0000841295Y0001979798D01*
X0000851661Y0001990144D01*
X0000857277Y0002003669D01*
X0000857289Y0002018313D01*
X0000851697Y0002031848D01*
X0000841351Y0002042212D01*
X0000827826Y0002047828D01*
X0000813182Y0002047841D01*
X0000799646Y0002042247D01*
X0000798341Y0002040944D01*
X0000626202Y0002040944D01*
X0000621697Y0002051848D01*
X0000611351Y0002062212D01*
X0000597826Y0002067828D01*
X0000590393Y0002067834D01*
X0000590393Y0002121023D01*
X0000588116Y0002132473D01*
X0000581629Y0002142181D01*
X0000517287Y0002206522D01*
X0000517289Y0002208313D01*
X0000511696Y0002221848D01*
X0000510393Y0002223154D01*
X0000510393Y0002293629D01*
X0000566629Y0002349866D01*
X0000573116Y0002359573D01*
X0000575393Y0002371023D01*
X0000575393Y0002521102D01*
X0000755488Y0002521102D01*
X0000755472Y0002521023D01*
X0000755472Y0002436023D01*
X0000605472Y0002436023D01*
X0000603655Y0002435681D01*
X0000601986Y0002434607D01*
X0000600866Y0002432968D01*
X0000600472Y0002431023D01*
X0000600472Y0002271023D01*
X0000600814Y0002269206D01*
X0000601888Y0002267537D01*
X0000603527Y0002266417D01*
X0000605472Y0002266023D01*
X0000755472Y0002266023D01*
X0000755472Y0002056023D01*
X0000755814Y0002054206D01*
X0000756888Y0002052537D01*
X0000758527Y0002051416D01*
X0000760472Y0002051022D01*
X0000932519Y0002051022D01*
X0000932519Y0001641023D01*
X0000636022Y0001641023D01*
X0000636022Y0001702096D01*
X0000629773Y0001708346D01*
X0000525472Y0001708346D01*
X0000525472Y0001707559D01*
X0000515472Y0001707559D01*
X0000515472Y0001708346D01*
X0000411170Y0001708346D01*
X0000404921Y0001702096D01*
X0000404921Y0001641023D01*
X0000288005Y0001641023D01*
X0000285472Y0001653756D01*
X0000285472Y0001789185D01*
X0000404921Y0001789185D01*
X0000404921Y0001724596D01*
X0000411170Y0001718346D01*
X0000515472Y0001718346D01*
X0000515472Y0001802962D01*
X0000525472Y0001802962D01*
X0000525472Y0001718346D01*
X0000629773Y0001718346D01*
X0000636022Y0001724596D01*
X0000636022Y0001789185D01*
X0000632217Y0001798373D01*
X0000625185Y0001805406D01*
X0000615996Y0001809212D01*
X0000531722Y0001809212D01*
X0000525472Y0001802962D01*
X0000515472Y0001802962D01*
X0000509221Y0001809212D01*
X0000424948Y0001809212D01*
X0000415758Y0001805406D01*
X0000408727Y0001798373D01*
X0000404921Y0001789185D01*
X0000285472Y0001789185D01*
X0000285472Y0001811023D01*
X0000285078Y0001812968D01*
X0000283958Y0001814606D01*
X0000282289Y0001815681D01*
X0000280472Y0001816023D01*
X0000130472Y0001816023D01*
X0000130472Y0002849605D01*
X0000275777Y0002849605D01*
X0000275777Y0002951023D01*
X0000404726Y0002951023D01*
X0000404431Y0002949566D01*
G36*
X0000932519Y0002526022D02*
X0000780878Y0002526022D01*
X0000786629Y0002529866D01*
X0000901629Y0002644866D01*
X0000908116Y0002654573D01*
X0000910393Y0002666023D01*
X0000910393Y0002721023D01*
X0000908116Y0002732473D01*
X0000901629Y0002742181D01*
X0000885919Y0002757891D01*
X0000885929Y0002769034D01*
X0000882890Y0002776389D01*
X0000888118Y0002774218D01*
X0000902762Y0002774206D01*
X0000916296Y0002779798D01*
X0000926661Y0002790144D01*
X0000932277Y0002803669D01*
X0000932288Y0002818313D01*
X0000926697Y0002831847D01*
X0000916351Y0002842212D01*
X0000902825Y0002847828D01*
X0000888182Y0002847841D01*
X0000883041Y0002845717D01*
X0000886446Y0002856328D01*
X0000885124Y0002872366D01*
X0000884839Y0002873051D01*
X0000885590Y0002873361D01*
X0000898090Y0002885840D01*
X0000904864Y0002902153D01*
X0000904880Y0002919815D01*
X0000898134Y0002936141D01*
X0000885655Y0002948642D01*
X0000879920Y0002951023D01*
X0000932519Y0002951023D01*
X0000932519Y0002526022D01*
X0000932519Y0002526022D01*
G37*
X0000932519Y0002526022D02*
X0000780878Y0002526022D01*
X0000786629Y0002529866D01*
X0000901629Y0002644866D01*
X0000908116Y0002654573D01*
X0000910393Y0002666023D01*
X0000910393Y0002721023D01*
X0000908116Y0002732473D01*
X0000901629Y0002742181D01*
X0000885919Y0002757891D01*
X0000885929Y0002769034D01*
X0000882890Y0002776389D01*
X0000888118Y0002774218D01*
X0000902762Y0002774206D01*
X0000916296Y0002779798D01*
X0000926661Y0002790144D01*
X0000932277Y0002803669D01*
X0000932288Y0002818313D01*
X0000926697Y0002831847D01*
X0000916351Y0002842212D01*
X0000902825Y0002847828D01*
X0000888182Y0002847841D01*
X0000883041Y0002845717D01*
X0000886446Y0002856328D01*
X0000885124Y0002872366D01*
X0000884839Y0002873051D01*
X0000885590Y0002873361D01*
X0000898090Y0002885840D01*
X0000904864Y0002902153D01*
X0000904880Y0002919815D01*
X0000898134Y0002936141D01*
X0000885655Y0002948642D01*
X0000879920Y0002951023D01*
X0000932519Y0002951023D01*
X0000932519Y0002526022D01*
G36*
X0000853100Y0002861580D02*
X0000852543Y0002861023D01*
X0000853100Y0002860466D01*
X0000846029Y0002853395D01*
X0000845472Y0002853952D01*
X0000844915Y0002853395D01*
X0000837844Y0002860466D01*
X0000838401Y0002861023D01*
X0000837844Y0002861580D01*
X0000844915Y0002868651D01*
X0000845472Y0002868094D01*
X0000846029Y0002868651D01*
X0000853100Y0002861580D01*
X0000853100Y0002861580D01*
G37*
X0000853100Y0002861580D02*
X0000852543Y0002861023D01*
X0000853100Y0002860466D01*
X0000846029Y0002853395D01*
X0000845472Y0002853952D01*
X0000844915Y0002853395D01*
X0000837844Y0002860466D01*
X0000838401Y0002861023D01*
X0000837844Y0002861580D01*
X0000844915Y0002868651D01*
X0000845472Y0002868094D01*
X0000846029Y0002868651D01*
X0000853100Y0002861580D01*
G01*
D90*
D91*
X0001128168Y0002932583D02*
X0001150665Y0002932583D01*
X0001139416Y0002893213D02*
X0001139416Y0002932583D01*
X0001171287Y0002932583D02*
X0001178787Y0002932583D01*
X0001182536Y0002930708D01*
X0001186286Y0002926958D01*
X0001188160Y0002919460D01*
X0001188160Y0002906336D01*
X0001186286Y0002898837D01*
X0001182536Y0002895088D01*
X0001178787Y0002893213D01*
X0001171287Y0002893213D01*
X0001167538Y0002895088D01*
X0001163788Y0002898837D01*
X0001161914Y0002906336D01*
X0001161914Y0002919460D01*
X0001163788Y0002926958D01*
X0001167538Y0002930708D01*
X0001171287Y0002932583D01*
X0001205033Y0002893213D02*
X0001205033Y0002932583D01*
X0001220031Y0002932583D01*
X0001223781Y0002930708D01*
X0001225656Y0002928832D01*
X0001227530Y0002925084D01*
X0001227530Y0002919460D01*
X0001225656Y0002915710D01*
X0001223781Y0002913835D01*
X0001220031Y0002911961D01*
X0001205033Y0002911961D01*
D92*
X0001504724Y0001713346D03*
X0001504724Y0002878700D03*
D93*
X0001829724Y0002761023D03*
X0001779724Y0002761023D03*
X0001829724Y0002811022D03*
X0001779724Y0002811022D03*
X0001829724Y0002861023D03*
X0001779724Y0002861023D03*
D94*
X0001899724Y0002856023D03*
X0001409723Y0002251023D03*
X0001209724Y0001998622D03*
X0001194724Y0002331023D03*
X0001339724Y0001776023D03*
X0001484724Y0002681023D03*
X0001704724Y0001901023D03*
X0001464722Y0002201023D03*
X0001529724Y0002551023D03*
X0001224724Y0002601023D03*
X0001704724Y0002731023D03*
X0001704724Y0002796023D03*
X0001879724Y0002811022D03*
X0001574724Y0002031022D03*
X0001804724Y0002011022D03*
D91*
X0001894724Y0002861023D02*
X0001829724Y0002861023D01*
X0001899724Y0002856023D02*
X0001894724Y0002861023D01*
X0001404724Y0002246023D02*
X0001404724Y0002181023D01*
X0001409723Y0002251023D02*
X0001404724Y0002246023D01*
X0001194724Y0002176023D02*
X0001409723Y0002176023D01*
X0001504724Y0002081023D02*
X0001504724Y0001784212D01*
X0001409723Y0002176023D02*
X0001504724Y0002081023D01*
X0001194724Y0002013621D02*
X0001194724Y0002176023D01*
X0001194724Y0002176023D02*
X0001194724Y0002331023D01*
X0001209724Y0001998622D02*
X0001194724Y0002013621D01*
X0001422913Y0001784212D02*
X0001504724Y0001784212D01*
X0001394724Y0001776023D02*
X0001414724Y0001776023D01*
X0001339724Y0001776023D02*
X0001394724Y0001776023D01*
X0001414724Y0001776023D02*
X0001422913Y0001784212D01*
X0001504724Y0002721023D02*
X0001504724Y0002701022D01*
X0001504724Y0002721023D02*
X0001504724Y0002807834D01*
X0001504724Y0002701022D02*
X0001484724Y0002681023D01*
X0001829724Y0002761023D02*
X0001829724Y0002756023D01*
X0001829724Y0002756023D02*
X0001864724Y0002721023D01*
X0001864724Y0002721023D02*
X0001864724Y0002666023D01*
X0001864724Y0002666023D02*
X0001749724Y0002551023D01*
X0001749724Y0002551023D02*
X0001529724Y0002551023D01*
X0001544724Y0002121023D02*
X0001464722Y0002201023D01*
X0001544724Y0001991023D02*
X0001544724Y0002121023D01*
X0001584724Y0001951023D02*
X0001544724Y0001991023D01*
X0001654724Y0001951023D02*
X0001584724Y0001951023D01*
X0001704724Y0001901023D02*
X0001654724Y0001951023D01*
X0001529724Y0002551023D02*
X0001529724Y0002371023D01*
X0001464722Y0002306023D02*
X0001529724Y0002371023D01*
X0001464722Y0002306023D02*
X0001464722Y0002201023D01*
X0001274724Y0002551023D02*
X0001529724Y0002551023D01*
X0001224724Y0002601023D02*
X0001274724Y0002551023D01*
X0001734724Y0002761023D02*
X0001779724Y0002761023D01*
X0001704724Y0002731023D02*
X0001734724Y0002761023D01*
X0001719724Y0002811022D02*
X0001779724Y0002811022D01*
X0001704724Y0002796023D02*
X0001719724Y0002811022D01*
X0001879724Y0002811022D02*
X0001829724Y0002811022D01*
X0001594724Y0002011022D02*
X0001574724Y0002031022D01*
X0001804724Y0002011022D02*
X0001594724Y0002011022D01*
D95*
G36*
X0001388683Y0002949566D02*
X0001388683Y0002807834D01*
X0001390426Y0002798570D01*
X0001395901Y0002790061D01*
X0001404256Y0002784353D01*
X0001414173Y0002782343D01*
X0001474803Y0002782343D01*
X0001474803Y0002716753D01*
X0001463899Y0002712248D01*
X0001453535Y0002701902D01*
X0001447919Y0002688377D01*
X0001447907Y0002673733D01*
X0001453499Y0002660199D01*
X0001463845Y0002649834D01*
X0001477370Y0002644218D01*
X0001492014Y0002644206D01*
X0001505548Y0002649798D01*
X0001515912Y0002660144D01*
X0001521529Y0002673669D01*
X0001521530Y0002675513D01*
X0001525880Y0002679866D01*
X0001529898Y0002685877D01*
X0001532368Y0002689573D01*
X0001534645Y0002701022D01*
X0001534645Y0002782343D01*
X0001595275Y0002782343D01*
X0001604540Y0002784088D01*
X0001613048Y0002789563D01*
X0001618757Y0002797917D01*
X0001620765Y0002807834D01*
X0001620765Y0002949566D01*
X0001620491Y0002951023D01*
X0001745264Y0002951023D01*
X0001739606Y0002948686D01*
X0001727105Y0002936207D01*
X0001720332Y0002919894D01*
X0001720316Y0002902230D01*
X0001727061Y0002885905D01*
X0001739540Y0002873405D01*
X0001740842Y0002872863D01*
X0001739281Y0002869104D01*
X0001739265Y0002853012D01*
X0001744252Y0002840944D01*
X0001719724Y0002840944D01*
X0001708273Y0002838667D01*
X0001699551Y0002832839D01*
X0001697434Y0002832841D01*
X0001683899Y0002827248D01*
X0001673535Y0002816902D01*
X0001667919Y0002803376D01*
X0001667907Y0002788733D01*
X0001673498Y0002775199D01*
X0001683845Y0002764833D01*
X0001686993Y0002763527D01*
X0001683899Y0002762248D01*
X0001673535Y0002751902D01*
X0001667919Y0002738377D01*
X0001667907Y0002723733D01*
X0001673498Y0002710199D01*
X0001683845Y0002699834D01*
X0001697370Y0002694218D01*
X0001712014Y0002694206D01*
X0001725548Y0002699798D01*
X0001735913Y0002710144D01*
X0001741529Y0002723669D01*
X0001741530Y0002725514D01*
X0001747118Y0002731102D01*
X0001752438Y0002731102D01*
X0001756781Y0002726751D01*
X0001762190Y0002724504D01*
X0001760282Y0002719904D01*
X0001760266Y0002702220D01*
X0001767019Y0002685877D01*
X0001779512Y0002673362D01*
X0001795843Y0002666580D01*
X0001813526Y0002666565D01*
X0001829587Y0002673201D01*
X0001737329Y0002580944D01*
X0001551868Y0002580944D01*
X0001550603Y0002582212D01*
X0001537078Y0002587828D01*
X0001522434Y0002587841D01*
X0001508899Y0002582248D01*
X0001507593Y0002580944D01*
X0001287118Y0002580944D01*
X0001261540Y0002606522D01*
X0001261541Y0002608313D01*
X0001255949Y0002621848D01*
X0001245603Y0002632211D01*
X0001232078Y0002637828D01*
X0001217434Y0002637840D01*
X0001203899Y0002632248D01*
X0001193535Y0002621902D01*
X0001187919Y0002608377D01*
X0001187907Y0002593733D01*
X0001193499Y0002580199D01*
X0001203845Y0002569834D01*
X0001217370Y0002564218D01*
X0001219215Y0002564217D01*
X0001253566Y0002529866D01*
X0001263273Y0002523380D01*
X0001274724Y0002521102D01*
X0001499803Y0002521102D01*
X0001499803Y0002383417D01*
X0001443566Y0002327181D01*
X0001437080Y0002317473D01*
X0001434803Y0002306023D01*
X0001434803Y0002223167D01*
X0001433535Y0002221902D01*
X0001427919Y0002208377D01*
X0001427907Y0002193733D01*
X0001433499Y0002180199D01*
X0001443845Y0002169834D01*
X0001457370Y0002164218D01*
X0001459215Y0002164217D01*
X0001514803Y0002108629D01*
X0001514803Y0001991023D01*
X0001517080Y0001979573D01*
X0001523566Y0001969865D01*
X0001563566Y0001929866D01*
X0001573274Y0001923379D01*
X0001584724Y0001921102D01*
X0001642330Y0001921102D01*
X0001667908Y0001895524D01*
X0001667907Y0001893733D01*
X0001673498Y0001880199D01*
X0001683845Y0001869834D01*
X0001697370Y0001864218D01*
X0001712014Y0001864206D01*
X0001725548Y0001869798D01*
X0001735913Y0001880144D01*
X0001741529Y0001893668D01*
X0001741541Y0001908313D01*
X0001735949Y0001921848D01*
X0001725603Y0001932211D01*
X0001712078Y0001937828D01*
X0001710233Y0001937829D01*
X0001675881Y0001972181D01*
X0001666174Y0001978667D01*
X0001654724Y0001980944D01*
X0001597118Y0001980944D01*
X0001596960Y0001981100D01*
X0001782580Y0001981100D01*
X0001783845Y0001979834D01*
X0001797370Y0001974218D01*
X0001812014Y0001974205D01*
X0001825548Y0001979798D01*
X0001835913Y0001990144D01*
X0001841528Y0002003669D01*
X0001841541Y0002018313D01*
X0001835948Y0002031848D01*
X0001825603Y0002042212D01*
X0001812078Y0002047828D01*
X0001797434Y0002047841D01*
X0001783899Y0002042247D01*
X0001782593Y0002040944D01*
X0001610454Y0002040944D01*
X0001605949Y0002051848D01*
X0001595603Y0002062212D01*
X0001582078Y0002067828D01*
X0001574645Y0002067834D01*
X0001574645Y0002121023D01*
X0001572368Y0002132473D01*
X0001565881Y0002142181D01*
X0001501540Y0002206522D01*
X0001501541Y0002208313D01*
X0001495949Y0002221848D01*
X0001494645Y0002223154D01*
X0001494645Y0002293629D01*
X0001550879Y0002349866D01*
X0001557368Y0002359573D01*
X0001559645Y0002371023D01*
X0001559645Y0002521102D01*
X0001739740Y0002521102D01*
X0001739724Y0002521023D01*
X0001739724Y0002436023D01*
X0001589724Y0002436023D01*
X0001587907Y0002435681D01*
X0001586238Y0002434607D01*
X0001585118Y0002432968D01*
X0001584724Y0002431023D01*
X0001584724Y0002271023D01*
X0001585066Y0002269206D01*
X0001586140Y0002267537D01*
X0001587779Y0002266417D01*
X0001589724Y0002266023D01*
X0001739724Y0002266023D01*
X0001739724Y0002056023D01*
X0001740064Y0002054206D01*
X0001741139Y0002052537D01*
X0001742778Y0002051416D01*
X0001744724Y0002051022D01*
X0001916771Y0002051022D01*
X0001916771Y0001641023D01*
X0001620275Y0001641023D01*
X0001620275Y0001702096D01*
X0001614025Y0001708346D01*
X0001509724Y0001708346D01*
X0001509724Y0001707559D01*
X0001499724Y0001707559D01*
X0001499724Y0001708346D01*
X0001395423Y0001708346D01*
X0001389173Y0001702096D01*
X0001389173Y0001641023D01*
X0001272257Y0001641023D01*
X0001269723Y0001653756D01*
X0001269723Y0001789185D01*
X0001389173Y0001789185D01*
X0001389173Y0001724596D01*
X0001395423Y0001718346D01*
X0001499724Y0001718346D01*
X0001499724Y0001802962D01*
X0001509724Y0001802962D01*
X0001509724Y0001718346D01*
X0001614025Y0001718346D01*
X0001620275Y0001724596D01*
X0001620275Y0001789185D01*
X0001616469Y0001798373D01*
X0001609436Y0001805406D01*
X0001600248Y0001809212D01*
X0001515974Y0001809212D01*
X0001509724Y0001802962D01*
X0001499724Y0001802962D01*
X0001493474Y0001809212D01*
X0001409199Y0001809212D01*
X0001400011Y0001805406D01*
X0001392979Y0001798373D01*
X0001389173Y0001789185D01*
X0001269723Y0001789185D01*
X0001269723Y0001811023D01*
X0001269330Y0001812968D01*
X0001268210Y0001814606D01*
X0001266541Y0001815681D01*
X0001264724Y0001816023D01*
X0001114724Y0001816023D01*
X0001114724Y0002849605D01*
X0001260030Y0002849605D01*
X0001260030Y0002951023D01*
X0001388978Y0002951023D01*
X0001388683Y0002949566D01*
X0001388683Y0002949566D01*
G37*
X0001388683Y0002949566D02*
X0001388683Y0002807834D01*
X0001390426Y0002798570D01*
X0001395901Y0002790061D01*
X0001404256Y0002784353D01*
X0001414173Y0002782343D01*
X0001474803Y0002782343D01*
X0001474803Y0002716753D01*
X0001463899Y0002712248D01*
X0001453535Y0002701902D01*
X0001447919Y0002688377D01*
X0001447907Y0002673733D01*
X0001453499Y0002660199D01*
X0001463845Y0002649834D01*
X0001477370Y0002644218D01*
X0001492014Y0002644206D01*
X0001505548Y0002649798D01*
X0001515912Y0002660144D01*
X0001521529Y0002673669D01*
X0001521530Y0002675513D01*
X0001525880Y0002679866D01*
X0001529898Y0002685877D01*
X0001532368Y0002689573D01*
X0001534645Y0002701022D01*
X0001534645Y0002782343D01*
X0001595275Y0002782343D01*
X0001604540Y0002784088D01*
X0001613048Y0002789563D01*
X0001618757Y0002797917D01*
X0001620765Y0002807834D01*
X0001620765Y0002949566D01*
X0001620491Y0002951023D01*
X0001745264Y0002951023D01*
X0001739606Y0002948686D01*
X0001727105Y0002936207D01*
X0001720332Y0002919894D01*
X0001720316Y0002902230D01*
X0001727061Y0002885905D01*
X0001739540Y0002873405D01*
X0001740842Y0002872863D01*
X0001739281Y0002869104D01*
X0001739265Y0002853012D01*
X0001744252Y0002840944D01*
X0001719724Y0002840944D01*
X0001708273Y0002838667D01*
X0001699551Y0002832839D01*
X0001697434Y0002832841D01*
X0001683899Y0002827248D01*
X0001673535Y0002816902D01*
X0001667919Y0002803376D01*
X0001667907Y0002788733D01*
X0001673498Y0002775199D01*
X0001683845Y0002764833D01*
X0001686993Y0002763527D01*
X0001683899Y0002762248D01*
X0001673535Y0002751902D01*
X0001667919Y0002738377D01*
X0001667907Y0002723733D01*
X0001673498Y0002710199D01*
X0001683845Y0002699834D01*
X0001697370Y0002694218D01*
X0001712014Y0002694206D01*
X0001725548Y0002699798D01*
X0001735913Y0002710144D01*
X0001741529Y0002723669D01*
X0001741530Y0002725514D01*
X0001747118Y0002731102D01*
X0001752438Y0002731102D01*
X0001756781Y0002726751D01*
X0001762190Y0002724504D01*
X0001760282Y0002719904D01*
X0001760266Y0002702220D01*
X0001767019Y0002685877D01*
X0001779512Y0002673362D01*
X0001795843Y0002666580D01*
X0001813526Y0002666565D01*
X0001829587Y0002673201D01*
X0001737329Y0002580944D01*
X0001551868Y0002580944D01*
X0001550603Y0002582212D01*
X0001537078Y0002587828D01*
X0001522434Y0002587841D01*
X0001508899Y0002582248D01*
X0001507593Y0002580944D01*
X0001287118Y0002580944D01*
X0001261540Y0002606522D01*
X0001261541Y0002608313D01*
X0001255949Y0002621848D01*
X0001245603Y0002632211D01*
X0001232078Y0002637828D01*
X0001217434Y0002637840D01*
X0001203899Y0002632248D01*
X0001193535Y0002621902D01*
X0001187919Y0002608377D01*
X0001187907Y0002593733D01*
X0001193499Y0002580199D01*
X0001203845Y0002569834D01*
X0001217370Y0002564218D01*
X0001219215Y0002564217D01*
X0001253566Y0002529866D01*
X0001263273Y0002523380D01*
X0001274724Y0002521102D01*
X0001499803Y0002521102D01*
X0001499803Y0002383417D01*
X0001443566Y0002327181D01*
X0001437080Y0002317473D01*
X0001434803Y0002306023D01*
X0001434803Y0002223167D01*
X0001433535Y0002221902D01*
X0001427919Y0002208377D01*
X0001427907Y0002193733D01*
X0001433499Y0002180199D01*
X0001443845Y0002169834D01*
X0001457370Y0002164218D01*
X0001459215Y0002164217D01*
X0001514803Y0002108629D01*
X0001514803Y0001991023D01*
X0001517080Y0001979573D01*
X0001523566Y0001969865D01*
X0001563566Y0001929866D01*
X0001573274Y0001923379D01*
X0001584724Y0001921102D01*
X0001642330Y0001921102D01*
X0001667908Y0001895524D01*
X0001667907Y0001893733D01*
X0001673498Y0001880199D01*
X0001683845Y0001869834D01*
X0001697370Y0001864218D01*
X0001712014Y0001864206D01*
X0001725548Y0001869798D01*
X0001735913Y0001880144D01*
X0001741529Y0001893668D01*
X0001741541Y0001908313D01*
X0001735949Y0001921848D01*
X0001725603Y0001932211D01*
X0001712078Y0001937828D01*
X0001710233Y0001937829D01*
X0001675881Y0001972181D01*
X0001666174Y0001978667D01*
X0001654724Y0001980944D01*
X0001597118Y0001980944D01*
X0001596960Y0001981100D01*
X0001782580Y0001981100D01*
X0001783845Y0001979834D01*
X0001797370Y0001974218D01*
X0001812014Y0001974205D01*
X0001825548Y0001979798D01*
X0001835913Y0001990144D01*
X0001841528Y0002003669D01*
X0001841541Y0002018313D01*
X0001835948Y0002031848D01*
X0001825603Y0002042212D01*
X0001812078Y0002047828D01*
X0001797434Y0002047841D01*
X0001783899Y0002042247D01*
X0001782593Y0002040944D01*
X0001610454Y0002040944D01*
X0001605949Y0002051848D01*
X0001595603Y0002062212D01*
X0001582078Y0002067828D01*
X0001574645Y0002067834D01*
X0001574645Y0002121023D01*
X0001572368Y0002132473D01*
X0001565881Y0002142181D01*
X0001501540Y0002206522D01*
X0001501541Y0002208313D01*
X0001495949Y0002221848D01*
X0001494645Y0002223154D01*
X0001494645Y0002293629D01*
X0001550879Y0002349866D01*
X0001557368Y0002359573D01*
X0001559645Y0002371023D01*
X0001559645Y0002521102D01*
X0001739740Y0002521102D01*
X0001739724Y0002521023D01*
X0001739724Y0002436023D01*
X0001589724Y0002436023D01*
X0001587907Y0002435681D01*
X0001586238Y0002434607D01*
X0001585118Y0002432968D01*
X0001584724Y0002431023D01*
X0001584724Y0002271023D01*
X0001585066Y0002269206D01*
X0001586140Y0002267537D01*
X0001587779Y0002266417D01*
X0001589724Y0002266023D01*
X0001739724Y0002266023D01*
X0001739724Y0002056023D01*
X0001740064Y0002054206D01*
X0001741139Y0002052537D01*
X0001742778Y0002051416D01*
X0001744724Y0002051022D01*
X0001916771Y0002051022D01*
X0001916771Y0001641023D01*
X0001620275Y0001641023D01*
X0001620275Y0001702096D01*
X0001614025Y0001708346D01*
X0001509724Y0001708346D01*
X0001509724Y0001707559D01*
X0001499724Y0001707559D01*
X0001499724Y0001708346D01*
X0001395423Y0001708346D01*
X0001389173Y0001702096D01*
X0001389173Y0001641023D01*
X0001272257Y0001641023D01*
X0001269723Y0001653756D01*
X0001269723Y0001789185D01*
X0001389173Y0001789185D01*
X0001389173Y0001724596D01*
X0001395423Y0001718346D01*
X0001499724Y0001718346D01*
X0001499724Y0001802962D01*
X0001509724Y0001802962D01*
X0001509724Y0001718346D01*
X0001614025Y0001718346D01*
X0001620275Y0001724596D01*
X0001620275Y0001789185D01*
X0001616469Y0001798373D01*
X0001609436Y0001805406D01*
X0001600248Y0001809212D01*
X0001515974Y0001809212D01*
X0001509724Y0001802962D01*
X0001499724Y0001802962D01*
X0001493474Y0001809212D01*
X0001409199Y0001809212D01*
X0001400011Y0001805406D01*
X0001392979Y0001798373D01*
X0001389173Y0001789185D01*
X0001269723Y0001789185D01*
X0001269723Y0001811023D01*
X0001269330Y0001812968D01*
X0001268210Y0001814606D01*
X0001266541Y0001815681D01*
X0001264724Y0001816023D01*
X0001114724Y0001816023D01*
X0001114724Y0002849605D01*
X0001260030Y0002849605D01*
X0001260030Y0002951023D01*
X0001388978Y0002951023D01*
X0001388683Y0002949566D01*
G36*
X0001916771Y0002526022D02*
X0001765131Y0002526022D01*
X0001770881Y0002529866D01*
X0001885881Y0002644866D01*
X0001892368Y0002654573D01*
X0001894645Y0002666023D01*
X0001894645Y0002721023D01*
X0001892368Y0002732473D01*
X0001885881Y0002742181D01*
X0001870171Y0002757891D01*
X0001870181Y0002769034D01*
X0001867142Y0002776389D01*
X0001872370Y0002774218D01*
X0001887014Y0002774206D01*
X0001900548Y0002779798D01*
X0001910913Y0002790144D01*
X0001916529Y0002803669D01*
X0001916541Y0002818313D01*
X0001910949Y0002831847D01*
X0001900603Y0002842212D01*
X0001887078Y0002847828D01*
X0001872434Y0002847841D01*
X0001867294Y0002845717D01*
X0001870698Y0002856328D01*
X0001869376Y0002872366D01*
X0001869092Y0002873051D01*
X0001869842Y0002873361D01*
X0001882342Y0002885840D01*
X0001889115Y0002902153D01*
X0001889132Y0002919815D01*
X0001882386Y0002936141D01*
X0001869907Y0002948642D01*
X0001864172Y0002951023D01*
X0001916771Y0002951023D01*
X0001916771Y0002526022D01*
X0001916771Y0002526022D01*
G37*
X0001916771Y0002526022D02*
X0001765131Y0002526022D01*
X0001770881Y0002529866D01*
X0001885881Y0002644866D01*
X0001892368Y0002654573D01*
X0001894645Y0002666023D01*
X0001894645Y0002721023D01*
X0001892368Y0002732473D01*
X0001885881Y0002742181D01*
X0001870171Y0002757891D01*
X0001870181Y0002769034D01*
X0001867142Y0002776389D01*
X0001872370Y0002774218D01*
X0001887014Y0002774206D01*
X0001900548Y0002779798D01*
X0001910913Y0002790144D01*
X0001916529Y0002803669D01*
X0001916541Y0002818313D01*
X0001910949Y0002831847D01*
X0001900603Y0002842212D01*
X0001887078Y0002847828D01*
X0001872434Y0002847841D01*
X0001867294Y0002845717D01*
X0001870698Y0002856328D01*
X0001869376Y0002872366D01*
X0001869092Y0002873051D01*
X0001869842Y0002873361D01*
X0001882342Y0002885840D01*
X0001889115Y0002902153D01*
X0001889132Y0002919815D01*
X0001882386Y0002936141D01*
X0001869907Y0002948642D01*
X0001864172Y0002951023D01*
X0001916771Y0002951023D01*
X0001916771Y0002526022D01*
G36*
X0001837352Y0002861580D02*
X0001836795Y0002861023D01*
X0001837352Y0002860466D01*
X0001830281Y0002853395D01*
X0001829724Y0002853952D01*
X0001829167Y0002853395D01*
X0001822095Y0002860466D01*
X0001822653Y0002861023D01*
X0001822095Y0002861580D01*
X0001829167Y0002868651D01*
X0001829724Y0002868094D01*
X0001830281Y0002868651D01*
X0001837352Y0002861580D01*
X0001837352Y0002861580D01*
G37*
X0001837352Y0002861580D02*
X0001836795Y0002861023D01*
X0001837352Y0002860466D01*
X0001830281Y0002853395D01*
X0001829724Y0002853952D01*
X0001829167Y0002853395D01*
X0001822095Y0002860466D01*
X0001822653Y0002861023D01*
X0001822095Y0002861580D01*
X0001829167Y0002868651D01*
X0001829724Y0002868094D01*
X0001830281Y0002868651D01*
X0001837352Y0002861580D01*
G04 next file*
G01*
D106*
D107*
X0002112420Y0002932583D02*
X0002134917Y0002932583D01*
X0002123668Y0002893213D02*
X0002123668Y0002932583D01*
X0002155539Y0002932583D02*
X0002163039Y0002932583D01*
X0002166788Y0002930708D01*
X0002170538Y0002926958D01*
X0002172412Y0002919460D01*
X0002172412Y0002906336D01*
X0002170538Y0002898837D01*
X0002166788Y0002895088D01*
X0002163039Y0002893213D01*
X0002155539Y0002893213D01*
X0002151790Y0002895088D01*
X0002148040Y0002898837D01*
X0002146166Y0002906336D01*
X0002146166Y0002919460D01*
X0002148040Y0002926958D01*
X0002151790Y0002930708D01*
X0002155539Y0002932583D01*
X0002189285Y0002893213D02*
X0002189285Y0002932583D01*
X0002204283Y0002932583D01*
X0002208033Y0002930708D01*
X0002209908Y0002928832D01*
X0002211782Y0002925084D01*
X0002211782Y0002919460D01*
X0002209908Y0002915710D01*
X0002208033Y0002913835D01*
X0002204283Y0002911961D01*
X0002189285Y0002911961D01*
D108*
X0002488976Y0001713346D03*
X0002488976Y0002878700D03*
D109*
X0002813976Y0002761023D03*
X0002763976Y0002761023D03*
X0002813976Y0002811022D03*
X0002763976Y0002811022D03*
X0002813976Y0002861023D03*
X0002763976Y0002861023D03*
D110*
X0002883976Y0002856023D03*
X0002393976Y0002251023D03*
X0002193976Y0001998622D03*
X0002178976Y0002331023D03*
X0002323976Y0001776023D03*
X0002468976Y0002681023D03*
X0002688975Y0001901023D03*
X0002448976Y0002201023D03*
X0002513976Y0002551023D03*
X0002208976Y0002601023D03*
X0002688975Y0002731023D03*
X0002688975Y0002796023D03*
X0002863975Y0002811022D03*
X0002558976Y0002031022D03*
X0002788976Y0002011022D03*
D107*
X0002878976Y0002861023D02*
X0002813976Y0002861023D01*
X0002883976Y0002856023D02*
X0002878976Y0002861023D01*
X0002388976Y0002246023D02*
X0002388976Y0002181023D01*
X0002393976Y0002251023D02*
X0002388976Y0002246023D01*
X0002178976Y0002176023D02*
X0002393976Y0002176023D01*
X0002488976Y0002081023D02*
X0002488976Y0001784212D01*
X0002393976Y0002176023D02*
X0002488976Y0002081023D01*
X0002178976Y0002013621D02*
X0002178976Y0002176023D01*
X0002178976Y0002176023D02*
X0002178976Y0002331023D01*
X0002193976Y0001998622D02*
X0002178976Y0002013621D01*
X0002407165Y0001784212D02*
X0002488976Y0001784212D01*
X0002378976Y0001776023D02*
X0002398976Y0001776023D01*
X0002323976Y0001776023D02*
X0002378976Y0001776023D01*
X0002398976Y0001776023D02*
X0002407165Y0001784212D01*
X0002488976Y0002721023D02*
X0002488976Y0002701022D01*
X0002488976Y0002721023D02*
X0002488976Y0002807834D01*
X0002488976Y0002701022D02*
X0002468976Y0002681023D01*
X0002813976Y0002761023D02*
X0002813976Y0002756023D01*
X0002813976Y0002756023D02*
X0002848976Y0002721023D01*
X0002848976Y0002721023D02*
X0002848976Y0002666023D01*
X0002848976Y0002666023D02*
X0002733976Y0002551023D01*
X0002733976Y0002551023D02*
X0002513976Y0002551023D01*
X0002528976Y0002121023D02*
X0002448976Y0002201023D01*
X0002528976Y0001991023D02*
X0002528976Y0002121023D01*
X0002568976Y0001951023D02*
X0002528976Y0001991023D01*
X0002638976Y0001951023D02*
X0002568976Y0001951023D01*
X0002688975Y0001901023D02*
X0002638976Y0001951023D01*
X0002513976Y0002551023D02*
X0002513976Y0002371023D01*
X0002448976Y0002306023D02*
X0002513976Y0002371023D01*
X0002448976Y0002306023D02*
X0002448976Y0002201023D01*
X0002258976Y0002551023D02*
X0002513976Y0002551023D01*
X0002208976Y0002601023D02*
X0002258976Y0002551023D01*
X0002718976Y0002761023D02*
X0002763976Y0002761023D01*
X0002688975Y0002731023D02*
X0002718976Y0002761023D01*
X0002703976Y0002811022D02*
X0002763976Y0002811022D01*
X0002688975Y0002796023D02*
X0002703976Y0002811022D01*
X0002863975Y0002811022D02*
X0002813976Y0002811022D01*
X0002578976Y0002011022D02*
X0002558976Y0002031022D01*
X0002788976Y0002011022D02*
X0002578976Y0002011022D01*
D111*
G36*
X0002372935Y0002949566D02*
X0002372935Y0002807834D01*
X0002374678Y0002798570D01*
X0002380153Y0002790061D01*
X0002388508Y0002784353D01*
X0002398425Y0002782343D01*
X0002459055Y0002782343D01*
X0002459055Y0002716753D01*
X0002448151Y0002712248D01*
X0002437787Y0002701902D01*
X0002432171Y0002688377D01*
X0002432158Y0002673733D01*
X0002437751Y0002660199D01*
X0002448097Y0002649834D01*
X0002461622Y0002644218D01*
X0002476266Y0002644206D01*
X0002489800Y0002649798D01*
X0002500165Y0002660144D01*
X0002505781Y0002673669D01*
X0002505782Y0002675513D01*
X0002510133Y0002679866D01*
X0002514150Y0002685877D01*
X0002516620Y0002689573D01*
X0002518897Y0002701022D01*
X0002518897Y0002782343D01*
X0002579527Y0002782343D01*
X0002588792Y0002784088D01*
X0002597300Y0002789563D01*
X0002603009Y0002797917D01*
X0002605017Y0002807834D01*
X0002605017Y0002949566D01*
X0002604743Y0002951023D01*
X0002729514Y0002951023D01*
X0002723858Y0002948686D01*
X0002711356Y0002936207D01*
X0002704583Y0002919894D01*
X0002704568Y0002902230D01*
X0002711313Y0002885905D01*
X0002723792Y0002873405D01*
X0002725094Y0002872863D01*
X0002723533Y0002869104D01*
X0002723519Y0002853012D01*
X0002728505Y0002840944D01*
X0002703976Y0002840944D01*
X0002692525Y0002838667D01*
X0002683803Y0002832839D01*
X0002681686Y0002832841D01*
X0002668150Y0002827248D01*
X0002657787Y0002816902D01*
X0002652171Y0002803376D01*
X0002652158Y0002788733D01*
X0002657751Y0002775199D01*
X0002668097Y0002764833D01*
X0002671246Y0002763527D01*
X0002668150Y0002762248D01*
X0002657787Y0002751902D01*
X0002652171Y0002738377D01*
X0002652158Y0002723733D01*
X0002657751Y0002710199D01*
X0002668097Y0002699834D01*
X0002681622Y0002694218D01*
X0002696266Y0002694206D01*
X0002709800Y0002699798D01*
X0002720165Y0002710144D01*
X0002725780Y0002723669D01*
X0002725782Y0002725514D01*
X0002731370Y0002731102D01*
X0002736690Y0002731102D01*
X0002741033Y0002726751D01*
X0002746444Y0002724504D01*
X0002744534Y0002719904D01*
X0002744518Y0002702220D01*
X0002751271Y0002685877D01*
X0002763764Y0002673362D01*
X0002780095Y0002666580D01*
X0002797779Y0002666565D01*
X0002813839Y0002673201D01*
X0002721582Y0002580944D01*
X0002536120Y0002580944D01*
X0002534854Y0002582212D01*
X0002521330Y0002587828D01*
X0002506686Y0002587841D01*
X0002493151Y0002582248D01*
X0002491845Y0002580944D01*
X0002271370Y0002580944D01*
X0002245792Y0002606522D01*
X0002245793Y0002608313D01*
X0002240201Y0002621848D01*
X0002229855Y0002632211D01*
X0002216330Y0002637828D01*
X0002201686Y0002637840D01*
X0002188151Y0002632248D01*
X0002177787Y0002621902D01*
X0002172171Y0002608377D01*
X0002172158Y0002593733D01*
X0002177751Y0002580199D01*
X0002188097Y0002569834D01*
X0002201622Y0002564218D01*
X0002203467Y0002564217D01*
X0002237818Y0002529866D01*
X0002247525Y0002523380D01*
X0002258976Y0002521102D01*
X0002484055Y0002521102D01*
X0002484055Y0002383417D01*
X0002427818Y0002327181D01*
X0002421332Y0002317473D01*
X0002419055Y0002306023D01*
X0002419055Y0002223167D01*
X0002417787Y0002221902D01*
X0002412171Y0002208377D01*
X0002412158Y0002193733D01*
X0002417751Y0002180199D01*
X0002428097Y0002169834D01*
X0002441622Y0002164218D01*
X0002443467Y0002164217D01*
X0002499055Y0002108629D01*
X0002499055Y0001991023D01*
X0002501332Y0001979573D01*
X0002507818Y0001969865D01*
X0002547818Y0001929866D01*
X0002557526Y0001923379D01*
X0002568976Y0001921102D01*
X0002626582Y0001921102D01*
X0002652160Y0001895524D01*
X0002652158Y0001893733D01*
X0002657751Y0001880199D01*
X0002668097Y0001869834D01*
X0002681622Y0001864218D01*
X0002696266Y0001864206D01*
X0002709800Y0001869798D01*
X0002720165Y0001880144D01*
X0002725780Y0001893668D01*
X0002725793Y0001908313D01*
X0002720201Y0001921848D01*
X0002709855Y0001932211D01*
X0002696330Y0001937828D01*
X0002694485Y0001937829D01*
X0002660133Y0001972181D01*
X0002650425Y0001978667D01*
X0002638976Y0001980944D01*
X0002581370Y0001980944D01*
X0002581212Y0001981100D01*
X0002766831Y0001981100D01*
X0002768097Y0001979834D01*
X0002781622Y0001974218D01*
X0002796266Y0001974205D01*
X0002809800Y0001979798D01*
X0002820165Y0001990144D01*
X0002825781Y0002003669D01*
X0002825793Y0002018313D01*
X0002820201Y0002031848D01*
X0002809855Y0002042212D01*
X0002796330Y0002047828D01*
X0002781686Y0002047841D01*
X0002768151Y0002042247D01*
X0002766845Y0002040944D01*
X0002594706Y0002040944D01*
X0002590201Y0002051848D01*
X0002579855Y0002062212D01*
X0002566329Y0002067828D01*
X0002558897Y0002067834D01*
X0002558897Y0002121023D01*
X0002556620Y0002132473D01*
X0002550133Y0002142181D01*
X0002485792Y0002206522D01*
X0002485793Y0002208313D01*
X0002480201Y0002221848D01*
X0002478897Y0002223154D01*
X0002478897Y0002293629D01*
X0002535133Y0002349866D01*
X0002541620Y0002359573D01*
X0002543897Y0002371023D01*
X0002543897Y0002521102D01*
X0002723992Y0002521102D01*
X0002723976Y0002521023D01*
X0002723976Y0002436023D01*
X0002573976Y0002436023D01*
X0002572159Y0002435681D01*
X0002570489Y0002434607D01*
X0002569370Y0002432968D01*
X0002568976Y0002431023D01*
X0002568976Y0002271023D01*
X0002569317Y0002269206D01*
X0002570392Y0002267537D01*
X0002572031Y0002266417D01*
X0002573976Y0002266023D01*
X0002723976Y0002266023D01*
X0002723976Y0002056023D01*
X0002724318Y0002054206D01*
X0002725392Y0002052537D01*
X0002727031Y0002051416D01*
X0002728976Y0002051022D01*
X0002901023Y0002051022D01*
X0002901023Y0001641023D01*
X0002604526Y0001641023D01*
X0002604526Y0001702096D01*
X0002598277Y0001708346D01*
X0002493976Y0001708346D01*
X0002493976Y0001707559D01*
X0002483976Y0001707559D01*
X0002483976Y0001708346D01*
X0002379675Y0001708346D01*
X0002373425Y0001702096D01*
X0002373425Y0001641023D01*
X0002256509Y0001641023D01*
X0002253976Y0001653756D01*
X0002253976Y0001789185D01*
X0002373425Y0001789185D01*
X0002373425Y0001724596D01*
X0002379675Y0001718346D01*
X0002483976Y0001718346D01*
X0002483976Y0001802962D01*
X0002493976Y0001802962D01*
X0002493976Y0001718346D01*
X0002598277Y0001718346D01*
X0002604526Y0001724596D01*
X0002604526Y0001789185D01*
X0002600721Y0001798373D01*
X0002593688Y0001805406D01*
X0002584500Y0001809212D01*
X0002500226Y0001809212D01*
X0002493976Y0001802962D01*
X0002483976Y0001802962D01*
X0002477726Y0001809212D01*
X0002393452Y0001809212D01*
X0002384263Y0001805406D01*
X0002377231Y0001798373D01*
X0002373425Y0001789185D01*
X0002253976Y0001789185D01*
X0002253976Y0001811023D01*
X0002253582Y0001812968D01*
X0002252462Y0001814606D01*
X0002250793Y0001815681D01*
X0002248976Y0001816023D01*
X0002098976Y0001816023D01*
X0002098976Y0002849605D01*
X0002244281Y0002849605D01*
X0002244281Y0002951023D01*
X0002373230Y0002951023D01*
X0002372935Y0002949566D01*
X0002372935Y0002949566D01*
G37*
X0002372935Y0002949566D02*
X0002372935Y0002807834D01*
X0002374678Y0002798570D01*
X0002380153Y0002790061D01*
X0002388508Y0002784353D01*
X0002398425Y0002782343D01*
X0002459055Y0002782343D01*
X0002459055Y0002716753D01*
X0002448151Y0002712248D01*
X0002437787Y0002701902D01*
X0002432171Y0002688377D01*
X0002432158Y0002673733D01*
X0002437751Y0002660199D01*
X0002448097Y0002649834D01*
X0002461622Y0002644218D01*
X0002476266Y0002644206D01*
X0002489800Y0002649798D01*
X0002500165Y0002660144D01*
X0002505781Y0002673669D01*
X0002505782Y0002675513D01*
X0002510133Y0002679866D01*
X0002514150Y0002685877D01*
X0002516620Y0002689573D01*
X0002518897Y0002701022D01*
X0002518897Y0002782343D01*
X0002579527Y0002782343D01*
X0002588792Y0002784088D01*
X0002597300Y0002789563D01*
X0002603009Y0002797917D01*
X0002605017Y0002807834D01*
X0002605017Y0002949566D01*
X0002604743Y0002951023D01*
X0002729514Y0002951023D01*
X0002723858Y0002948686D01*
X0002711356Y0002936207D01*
X0002704583Y0002919894D01*
X0002704568Y0002902230D01*
X0002711313Y0002885905D01*
X0002723792Y0002873405D01*
X0002725094Y0002872863D01*
X0002723533Y0002869104D01*
X0002723519Y0002853012D01*
X0002728505Y0002840944D01*
X0002703976Y0002840944D01*
X0002692525Y0002838667D01*
X0002683803Y0002832839D01*
X0002681686Y0002832841D01*
X0002668150Y0002827248D01*
X0002657787Y0002816902D01*
X0002652171Y0002803376D01*
X0002652158Y0002788733D01*
X0002657751Y0002775199D01*
X0002668097Y0002764833D01*
X0002671246Y0002763527D01*
X0002668150Y0002762248D01*
X0002657787Y0002751902D01*
X0002652171Y0002738377D01*
X0002652158Y0002723733D01*
X0002657751Y0002710199D01*
X0002668097Y0002699834D01*
X0002681622Y0002694218D01*
X0002696266Y0002694206D01*
X0002709800Y0002699798D01*
X0002720165Y0002710144D01*
X0002725780Y0002723669D01*
X0002725782Y0002725514D01*
X0002731370Y0002731102D01*
X0002736690Y0002731102D01*
X0002741033Y0002726751D01*
X0002746444Y0002724504D01*
X0002744534Y0002719904D01*
X0002744518Y0002702220D01*
X0002751271Y0002685877D01*
X0002763764Y0002673362D01*
X0002780095Y0002666580D01*
X0002797779Y0002666565D01*
X0002813839Y0002673201D01*
X0002721582Y0002580944D01*
X0002536120Y0002580944D01*
X0002534854Y0002582212D01*
X0002521330Y0002587828D01*
X0002506686Y0002587841D01*
X0002493151Y0002582248D01*
X0002491845Y0002580944D01*
X0002271370Y0002580944D01*
X0002245792Y0002606522D01*
X0002245793Y0002608313D01*
X0002240201Y0002621848D01*
X0002229855Y0002632211D01*
X0002216330Y0002637828D01*
X0002201686Y0002637840D01*
X0002188151Y0002632248D01*
X0002177787Y0002621902D01*
X0002172171Y0002608377D01*
X0002172158Y0002593733D01*
X0002177751Y0002580199D01*
X0002188097Y0002569834D01*
X0002201622Y0002564218D01*
X0002203467Y0002564217D01*
X0002237818Y0002529866D01*
X0002247525Y0002523380D01*
X0002258976Y0002521102D01*
X0002484055Y0002521102D01*
X0002484055Y0002383417D01*
X0002427818Y0002327181D01*
X0002421332Y0002317473D01*
X0002419055Y0002306023D01*
X0002419055Y0002223167D01*
X0002417787Y0002221902D01*
X0002412171Y0002208377D01*
X0002412158Y0002193733D01*
X0002417751Y0002180199D01*
X0002428097Y0002169834D01*
X0002441622Y0002164218D01*
X0002443467Y0002164217D01*
X0002499055Y0002108629D01*
X0002499055Y0001991023D01*
X0002501332Y0001979573D01*
X0002507818Y0001969865D01*
X0002547818Y0001929866D01*
X0002557526Y0001923379D01*
X0002568976Y0001921102D01*
X0002626582Y0001921102D01*
X0002652160Y0001895524D01*
X0002652158Y0001893733D01*
X0002657751Y0001880199D01*
X0002668097Y0001869834D01*
X0002681622Y0001864218D01*
X0002696266Y0001864206D01*
X0002709800Y0001869798D01*
X0002720165Y0001880144D01*
X0002725780Y0001893668D01*
X0002725793Y0001908313D01*
X0002720201Y0001921848D01*
X0002709855Y0001932211D01*
X0002696330Y0001937828D01*
X0002694485Y0001937829D01*
X0002660133Y0001972181D01*
X0002650425Y0001978667D01*
X0002638976Y0001980944D01*
X0002581370Y0001980944D01*
X0002581212Y0001981100D01*
X0002766831Y0001981100D01*
X0002768097Y0001979834D01*
X0002781622Y0001974218D01*
X0002796266Y0001974205D01*
X0002809800Y0001979798D01*
X0002820165Y0001990144D01*
X0002825781Y0002003669D01*
X0002825793Y0002018313D01*
X0002820201Y0002031848D01*
X0002809855Y0002042212D01*
X0002796330Y0002047828D01*
X0002781686Y0002047841D01*
X0002768151Y0002042247D01*
X0002766845Y0002040944D01*
X0002594706Y0002040944D01*
X0002590201Y0002051848D01*
X0002579855Y0002062212D01*
X0002566329Y0002067828D01*
X0002558897Y0002067834D01*
X0002558897Y0002121023D01*
X0002556620Y0002132473D01*
X0002550133Y0002142181D01*
X0002485792Y0002206522D01*
X0002485793Y0002208313D01*
X0002480201Y0002221848D01*
X0002478897Y0002223154D01*
X0002478897Y0002293629D01*
X0002535133Y0002349866D01*
X0002541620Y0002359573D01*
X0002543897Y0002371023D01*
X0002543897Y0002521102D01*
X0002723992Y0002521102D01*
X0002723976Y0002521023D01*
X0002723976Y0002436023D01*
X0002573976Y0002436023D01*
X0002572159Y0002435681D01*
X0002570489Y0002434607D01*
X0002569370Y0002432968D01*
X0002568976Y0002431023D01*
X0002568976Y0002271023D01*
X0002569317Y0002269206D01*
X0002570392Y0002267537D01*
X0002572031Y0002266417D01*
X0002573976Y0002266023D01*
X0002723976Y0002266023D01*
X0002723976Y0002056023D01*
X0002724318Y0002054206D01*
X0002725392Y0002052537D01*
X0002727031Y0002051416D01*
X0002728976Y0002051022D01*
X0002901023Y0002051022D01*
X0002901023Y0001641023D01*
X0002604526Y0001641023D01*
X0002604526Y0001702096D01*
X0002598277Y0001708346D01*
X0002493976Y0001708346D01*
X0002493976Y0001707559D01*
X0002483976Y0001707559D01*
X0002483976Y0001708346D01*
X0002379675Y0001708346D01*
X0002373425Y0001702096D01*
X0002373425Y0001641023D01*
X0002256509Y0001641023D01*
X0002253976Y0001653756D01*
X0002253976Y0001789185D01*
X0002373425Y0001789185D01*
X0002373425Y0001724596D01*
X0002379675Y0001718346D01*
X0002483976Y0001718346D01*
X0002483976Y0001802962D01*
X0002493976Y0001802962D01*
X0002493976Y0001718346D01*
X0002598277Y0001718346D01*
X0002604526Y0001724596D01*
X0002604526Y0001789185D01*
X0002600721Y0001798373D01*
X0002593688Y0001805406D01*
X0002584500Y0001809212D01*
X0002500226Y0001809212D01*
X0002493976Y0001802962D01*
X0002483976Y0001802962D01*
X0002477726Y0001809212D01*
X0002393452Y0001809212D01*
X0002384263Y0001805406D01*
X0002377231Y0001798373D01*
X0002373425Y0001789185D01*
X0002253976Y0001789185D01*
X0002253976Y0001811023D01*
X0002253582Y0001812968D01*
X0002252462Y0001814606D01*
X0002250793Y0001815681D01*
X0002248976Y0001816023D01*
X0002098976Y0001816023D01*
X0002098976Y0002849605D01*
X0002244281Y0002849605D01*
X0002244281Y0002951023D01*
X0002373230Y0002951023D01*
X0002372935Y0002949566D01*
G36*
X0002901023Y0002526022D02*
X0002749382Y0002526022D01*
X0002755133Y0002529866D01*
X0002870133Y0002644866D01*
X0002876620Y0002654573D01*
X0002878897Y0002666023D01*
X0002878897Y0002721023D01*
X0002876620Y0002732473D01*
X0002870133Y0002742181D01*
X0002854423Y0002757891D01*
X0002854433Y0002769034D01*
X0002851394Y0002776389D01*
X0002856622Y0002774218D01*
X0002871266Y0002774206D01*
X0002884800Y0002779798D01*
X0002895165Y0002790144D01*
X0002900781Y0002803669D01*
X0002900793Y0002818313D01*
X0002895201Y0002831847D01*
X0002884855Y0002842212D01*
X0002871330Y0002847828D01*
X0002856686Y0002847841D01*
X0002851546Y0002845717D01*
X0002854950Y0002856328D01*
X0002853628Y0002872366D01*
X0002853344Y0002873051D01*
X0002854094Y0002873361D01*
X0002866593Y0002885840D01*
X0002873368Y0002902153D01*
X0002873384Y0002919815D01*
X0002866638Y0002936141D01*
X0002854158Y0002948642D01*
X0002848424Y0002951023D01*
X0002901023Y0002951023D01*
X0002901023Y0002526022D01*
X0002901023Y0002526022D01*
G37*
X0002901023Y0002526022D02*
X0002749382Y0002526022D01*
X0002755133Y0002529866D01*
X0002870133Y0002644866D01*
X0002876620Y0002654573D01*
X0002878897Y0002666023D01*
X0002878897Y0002721023D01*
X0002876620Y0002732473D01*
X0002870133Y0002742181D01*
X0002854423Y0002757891D01*
X0002854433Y0002769034D01*
X0002851394Y0002776389D01*
X0002856622Y0002774218D01*
X0002871266Y0002774206D01*
X0002884800Y0002779798D01*
X0002895165Y0002790144D01*
X0002900781Y0002803669D01*
X0002900793Y0002818313D01*
X0002895201Y0002831847D01*
X0002884855Y0002842212D01*
X0002871330Y0002847828D01*
X0002856686Y0002847841D01*
X0002851546Y0002845717D01*
X0002854950Y0002856328D01*
X0002853628Y0002872366D01*
X0002853344Y0002873051D01*
X0002854094Y0002873361D01*
X0002866593Y0002885840D01*
X0002873368Y0002902153D01*
X0002873384Y0002919815D01*
X0002866638Y0002936141D01*
X0002854158Y0002948642D01*
X0002848424Y0002951023D01*
X0002901023Y0002951023D01*
X0002901023Y0002526022D01*
G36*
X0002821604Y0002861580D02*
X0002821047Y0002861023D01*
X0002821604Y0002860466D01*
X0002814533Y0002853395D01*
X0002813976Y0002853952D01*
X0002813418Y0002853395D01*
X0002806348Y0002860466D01*
X0002806905Y0002861023D01*
X0002806348Y0002861580D01*
X0002813418Y0002868651D01*
X0002813976Y0002868094D01*
X0002814533Y0002868651D01*
X0002821604Y0002861580D01*
X0002821604Y0002861580D01*
G37*
X0002821604Y0002861580D02*
X0002821047Y0002861023D01*
X0002821604Y0002860466D01*
X0002814533Y0002853395D01*
X0002813976Y0002853952D01*
X0002813418Y0002853395D01*
X0002806348Y0002860466D01*
X0002806905Y0002861023D01*
X0002806348Y0002861580D01*
X0002813418Y0002868651D01*
X0002813976Y0002868094D01*
X0002814533Y0002868651D01*
X0002821604Y0002861580D01*
G04 next file*
G04 #@! TF.FileFunction,Copper,L1,Top,Signal*
G04 Gerber Fmt 4.6, Leading zero omitted, Abs format (unit mm)*
G04 Created by KiCad (PCBNEW 4.0.7-e2-6376~61~ubuntu18.04.1) date Mon Jun  4 01:42:22 2018*
G01*
G04 APERTURE LIST*
G04 APERTURE END LIST*
D122*
D123*
X0003096672Y0002932583D02*
X0003119168Y0002932583D01*
X0003107920Y0002893213D02*
X0003107920Y0002932583D01*
X0003139791Y0002932583D02*
X0003147290Y0002932583D01*
X0003151040Y0002930708D01*
X0003154790Y0002926958D01*
X0003156664Y0002919460D01*
X0003156664Y0002906336D01*
X0003154790Y0002898837D01*
X0003151040Y0002895088D01*
X0003147290Y0002893213D01*
X0003139791Y0002893213D01*
X0003136042Y0002895088D01*
X0003132292Y0002898837D01*
X0003130418Y0002906336D01*
X0003130418Y0002919460D01*
X0003132292Y0002926958D01*
X0003136042Y0002930708D01*
X0003139791Y0002932583D01*
X0003173537Y0002893213D02*
X0003173537Y0002932583D01*
X0003188535Y0002932583D01*
X0003192284Y0002930708D01*
X0003194160Y0002928832D01*
X0003196034Y0002925084D01*
X0003196034Y0002919460D01*
X0003194160Y0002915710D01*
X0003192284Y0002913835D01*
X0003188535Y0002911961D01*
X0003173537Y0002911961D01*
D124*
X0003473228Y0001713346D03*
X0003473228Y0002878700D03*
D125*
X0003798228Y0002761023D03*
X0003748228Y0002761023D03*
X0003798228Y0002811022D03*
X0003748228Y0002811022D03*
X0003798228Y0002861023D03*
X0003748228Y0002861023D03*
D126*
X0003868228Y0002856023D03*
X0003378228Y0002251023D03*
X0003178228Y0001998622D03*
X0003163228Y0002331023D03*
X0003308227Y0001776023D03*
X0003453228Y0002681023D03*
X0003673228Y0001901023D03*
X0003433228Y0002201023D03*
X0003498228Y0002551023D03*
X0003193228Y0002601023D03*
X0003673228Y0002731023D03*
X0003673228Y0002796023D03*
X0003848228Y0002811022D03*
X0003543228Y0002031022D03*
X0003773228Y0002011022D03*
D123*
X0003863228Y0002861023D02*
X0003798228Y0002861023D01*
X0003868228Y0002856023D02*
X0003863228Y0002861023D01*
X0003373228Y0002246023D02*
X0003373228Y0002181023D01*
X0003378228Y0002251023D02*
X0003373228Y0002246023D01*
X0003163228Y0002176023D02*
X0003378228Y0002176023D01*
X0003473228Y0002081023D02*
X0003473228Y0001784212D01*
X0003378228Y0002176023D02*
X0003473228Y0002081023D01*
X0003163228Y0002013621D02*
X0003163228Y0002176023D01*
X0003163228Y0002176023D02*
X0003163228Y0002331023D01*
X0003178228Y0001998622D02*
X0003163228Y0002013621D01*
X0003391417Y0001784212D02*
X0003473228Y0001784212D01*
X0003363228Y0001776023D02*
X0003383228Y0001776023D01*
X0003308227Y0001776023D02*
X0003363228Y0001776023D01*
X0003383228Y0001776023D02*
X0003391417Y0001784212D01*
X0003473228Y0002721023D02*
X0003473228Y0002701022D01*
X0003473228Y0002721023D02*
X0003473228Y0002807834D01*
X0003473228Y0002701022D02*
X0003453228Y0002681023D01*
X0003798228Y0002761023D02*
X0003798228Y0002756023D01*
X0003798228Y0002756023D02*
X0003833228Y0002721023D01*
X0003833228Y0002721023D02*
X0003833228Y0002666023D01*
X0003833228Y0002666023D02*
X0003718228Y0002551023D01*
X0003718228Y0002551023D02*
X0003498228Y0002551023D01*
X0003513228Y0002121023D02*
X0003433228Y0002201023D01*
X0003513228Y0001991023D02*
X0003513228Y0002121023D01*
X0003553228Y0001951023D02*
X0003513228Y0001991023D01*
X0003623228Y0001951023D02*
X0003553228Y0001951023D01*
X0003673228Y0001901023D02*
X0003623228Y0001951023D01*
X0003498228Y0002551023D02*
X0003498228Y0002371023D01*
X0003433228Y0002306023D02*
X0003498228Y0002371023D01*
X0003433228Y0002306023D02*
X0003433228Y0002201023D01*
X0003243228Y0002551023D02*
X0003498228Y0002551023D01*
X0003193228Y0002601023D02*
X0003243228Y0002551023D01*
X0003703228Y0002761023D02*
X0003748228Y0002761023D01*
X0003673228Y0002731023D02*
X0003703228Y0002761023D01*
X0003688228Y0002811022D02*
X0003748228Y0002811022D01*
X0003673228Y0002796023D02*
X0003688228Y0002811022D01*
X0003848228Y0002811022D02*
X0003798228Y0002811022D01*
X0003563228Y0002011022D02*
X0003543228Y0002031022D01*
X0003773228Y0002011022D02*
X0003563228Y0002011022D01*
D127*
G36*
X0003357186Y0002949566D02*
X0003357186Y0002807834D01*
X0003358929Y0002798570D01*
X0003364405Y0002790061D01*
X0003372760Y0002784353D01*
X0003382677Y0002782343D01*
X0003443307Y0002782343D01*
X0003443307Y0002716753D01*
X0003432403Y0002712248D01*
X0003422038Y0002701902D01*
X0003416423Y0002688377D01*
X0003416409Y0002673733D01*
X0003422003Y0002660199D01*
X0003432349Y0002649834D01*
X0003445874Y0002644218D01*
X0003460518Y0002644206D01*
X0003474052Y0002649798D01*
X0003484417Y0002660144D01*
X0003490032Y0002673669D01*
X0003490034Y0002675513D01*
X0003494385Y0002679866D01*
X0003498402Y0002685877D01*
X0003500870Y0002689573D01*
X0003503149Y0002701022D01*
X0003503149Y0002782343D01*
X0003563779Y0002782343D01*
X0003573043Y0002784088D01*
X0003581552Y0002789563D01*
X0003587261Y0002797917D01*
X0003589268Y0002807834D01*
X0003589268Y0002949566D01*
X0003588995Y0002951023D01*
X0003713767Y0002951023D01*
X0003708110Y0002948686D01*
X0003695609Y0002936207D01*
X0003688836Y0002919894D01*
X0003688820Y0002902230D01*
X0003695565Y0002885905D01*
X0003708044Y0002873405D01*
X0003709346Y0002872863D01*
X0003707785Y0002869104D01*
X0003707771Y0002853012D01*
X0003712757Y0002840944D01*
X0003688228Y0002840944D01*
X0003676777Y0002838667D01*
X0003668055Y0002832839D01*
X0003665938Y0002832841D01*
X0003652403Y0002827248D01*
X0003642039Y0002816902D01*
X0003636423Y0002803376D01*
X0003636410Y0002788733D01*
X0003642003Y0002775199D01*
X0003652349Y0002764833D01*
X0003655498Y0002763527D01*
X0003652403Y0002762248D01*
X0003642039Y0002751902D01*
X0003636423Y0002738377D01*
X0003636410Y0002723733D01*
X0003642003Y0002710199D01*
X0003652349Y0002699834D01*
X0003665874Y0002694218D01*
X0003680518Y0002694206D01*
X0003694051Y0002699798D01*
X0003704417Y0002710144D01*
X0003710032Y0002723669D01*
X0003710034Y0002725514D01*
X0003715622Y0002731102D01*
X0003720942Y0002731102D01*
X0003725285Y0002726751D01*
X0003730696Y0002724504D01*
X0003728785Y0002719904D01*
X0003728770Y0002702220D01*
X0003735523Y0002685877D01*
X0003748016Y0002673362D01*
X0003764347Y0002666580D01*
X0003782031Y0002666565D01*
X0003798091Y0002673201D01*
X0003705834Y0002580944D01*
X0003520372Y0002580944D01*
X0003519107Y0002582212D01*
X0003505582Y0002587828D01*
X0003490938Y0002587841D01*
X0003477403Y0002582248D01*
X0003476097Y0002580944D01*
X0003255622Y0002580944D01*
X0003230044Y0002606522D01*
X0003230045Y0002608313D01*
X0003224453Y0002621848D01*
X0003214107Y0002632211D01*
X0003200582Y0002637828D01*
X0003185938Y0002637840D01*
X0003172403Y0002632248D01*
X0003162039Y0002621902D01*
X0003156423Y0002608377D01*
X0003156410Y0002593733D01*
X0003162002Y0002580199D01*
X0003172348Y0002569834D01*
X0003185874Y0002564218D01*
X0003187719Y0002564217D01*
X0003222070Y0002529866D01*
X0003231777Y0002523380D01*
X0003243228Y0002521102D01*
X0003468307Y0002521102D01*
X0003468307Y0002383417D01*
X0003412069Y0002327181D01*
X0003405584Y0002317473D01*
X0003403307Y0002306023D01*
X0003403307Y0002223167D01*
X0003402039Y0002221902D01*
X0003396423Y0002208377D01*
X0003396410Y0002193733D01*
X0003402003Y0002180199D01*
X0003412349Y0002169834D01*
X0003425874Y0002164218D01*
X0003427719Y0002164217D01*
X0003483306Y0002108629D01*
X0003483306Y0001991023D01*
X0003485584Y0001979573D01*
X0003492070Y0001969865D01*
X0003532070Y0001929866D01*
X0003541777Y0001923379D01*
X0003553228Y0001921102D01*
X0003610834Y0001921102D01*
X0003636412Y0001895524D01*
X0003636410Y0001893733D01*
X0003642003Y0001880199D01*
X0003652349Y0001869834D01*
X0003665874Y0001864218D01*
X0003680518Y0001864206D01*
X0003694051Y0001869798D01*
X0003704417Y0001880144D01*
X0003710032Y0001893668D01*
X0003710045Y0001908313D01*
X0003704453Y0001921848D01*
X0003694107Y0001932211D01*
X0003680582Y0001937828D01*
X0003678737Y0001937829D01*
X0003644385Y0001972181D01*
X0003634678Y0001978667D01*
X0003623228Y0001980944D01*
X0003565622Y0001980944D01*
X0003565464Y0001981100D01*
X0003751084Y0001981100D01*
X0003752349Y0001979834D01*
X0003765874Y0001974218D01*
X0003780518Y0001974205D01*
X0003794052Y0001979798D01*
X0003804416Y0001990144D01*
X0003810032Y0002003669D01*
X0003810045Y0002018313D01*
X0003804453Y0002031848D01*
X0003794107Y0002042212D01*
X0003780582Y0002047828D01*
X0003765938Y0002047841D01*
X0003752403Y0002042247D01*
X0003751096Y0002040944D01*
X0003578958Y0002040944D01*
X0003574453Y0002051848D01*
X0003564107Y0002062212D01*
X0003550582Y0002067828D01*
X0003543149Y0002067834D01*
X0003543149Y0002121023D01*
X0003540871Y0002132473D01*
X0003534385Y0002142181D01*
X0003470043Y0002206522D01*
X0003470045Y0002208313D01*
X0003464453Y0002221848D01*
X0003463148Y0002223154D01*
X0003463148Y0002293629D01*
X0003519385Y0002349866D01*
X0003525871Y0002359573D01*
X0003528149Y0002371023D01*
X0003528149Y0002521102D01*
X0003708244Y0002521102D01*
X0003708228Y0002521023D01*
X0003708228Y0002436023D01*
X0003558228Y0002436023D01*
X0003556411Y0002435681D01*
X0003554742Y0002434607D01*
X0003553622Y0002432968D01*
X0003553228Y0002431023D01*
X0003553228Y0002271023D01*
X0003553570Y0002269206D01*
X0003554644Y0002267537D01*
X0003556283Y0002266417D01*
X0003558228Y0002266023D01*
X0003708228Y0002266023D01*
X0003708228Y0002056023D01*
X0003708570Y0002054206D01*
X0003709644Y0002052537D01*
X0003711283Y0002051416D01*
X0003713228Y0002051022D01*
X0003885275Y0002051022D01*
X0003885275Y0001641023D01*
X0003588779Y0001641023D01*
X0003588779Y0001702096D01*
X0003582529Y0001708346D01*
X0003478227Y0001708346D01*
X0003478227Y0001707559D01*
X0003468227Y0001707559D01*
X0003468227Y0001708346D01*
X0003363927Y0001708346D01*
X0003357677Y0001702096D01*
X0003357677Y0001641023D01*
X0003240761Y0001641023D01*
X0003238228Y0001653756D01*
X0003238228Y0001789185D01*
X0003357677Y0001789185D01*
X0003357677Y0001724596D01*
X0003363927Y0001718346D01*
X0003468227Y0001718346D01*
X0003468227Y0001802962D01*
X0003478227Y0001802962D01*
X0003478227Y0001718346D01*
X0003582529Y0001718346D01*
X0003588779Y0001724596D01*
X0003588779Y0001789185D01*
X0003584973Y0001798373D01*
X0003577940Y0001805406D01*
X0003568752Y0001809212D01*
X0003484478Y0001809212D01*
X0003478227Y0001802962D01*
X0003468227Y0001802962D01*
X0003461978Y0001809212D01*
X0003377704Y0001809212D01*
X0003368515Y0001805406D01*
X0003361483Y0001798373D01*
X0003357677Y0001789185D01*
X0003238228Y0001789185D01*
X0003238228Y0001811023D01*
X0003237834Y0001812968D01*
X0003236714Y0001814606D01*
X0003235045Y0001815681D01*
X0003233228Y0001816023D01*
X0003083228Y0001816023D01*
X0003083228Y0002849605D01*
X0003228532Y0002849605D01*
X0003228532Y0002951023D01*
X0003357482Y0002951023D01*
X0003357186Y0002949566D01*
X0003357186Y0002949566D01*
G37*
X0003357186Y0002949566D02*
X0003357186Y0002807834D01*
X0003358929Y0002798570D01*
X0003364405Y0002790061D01*
X0003372760Y0002784353D01*
X0003382677Y0002782343D01*
X0003443307Y0002782343D01*
X0003443307Y0002716753D01*
X0003432403Y0002712248D01*
X0003422038Y0002701902D01*
X0003416423Y0002688377D01*
X0003416409Y0002673733D01*
X0003422003Y0002660199D01*
X0003432349Y0002649834D01*
X0003445874Y0002644218D01*
X0003460518Y0002644206D01*
X0003474052Y0002649798D01*
X0003484417Y0002660144D01*
X0003490032Y0002673669D01*
X0003490034Y0002675513D01*
X0003494385Y0002679866D01*
X0003498402Y0002685877D01*
X0003500870Y0002689573D01*
X0003503149Y0002701022D01*
X0003503149Y0002782343D01*
X0003563779Y0002782343D01*
X0003573043Y0002784088D01*
X0003581552Y0002789563D01*
X0003587261Y0002797917D01*
X0003589268Y0002807834D01*
X0003589268Y0002949566D01*
X0003588995Y0002951023D01*
X0003713767Y0002951023D01*
X0003708110Y0002948686D01*
X0003695609Y0002936207D01*
X0003688836Y0002919894D01*
X0003688820Y0002902230D01*
X0003695565Y0002885905D01*
X0003708044Y0002873405D01*
X0003709346Y0002872863D01*
X0003707785Y0002869104D01*
X0003707771Y0002853012D01*
X0003712757Y0002840944D01*
X0003688228Y0002840944D01*
X0003676777Y0002838667D01*
X0003668055Y0002832839D01*
X0003665938Y0002832841D01*
X0003652403Y0002827248D01*
X0003642039Y0002816902D01*
X0003636423Y0002803376D01*
X0003636410Y0002788733D01*
X0003642003Y0002775199D01*
X0003652349Y0002764833D01*
X0003655498Y0002763527D01*
X0003652403Y0002762248D01*
X0003642039Y0002751902D01*
X0003636423Y0002738377D01*
X0003636410Y0002723733D01*
X0003642003Y0002710199D01*
X0003652349Y0002699834D01*
X0003665874Y0002694218D01*
X0003680518Y0002694206D01*
X0003694051Y0002699798D01*
X0003704417Y0002710144D01*
X0003710032Y0002723669D01*
X0003710034Y0002725514D01*
X0003715622Y0002731102D01*
X0003720942Y0002731102D01*
X0003725285Y0002726751D01*
X0003730696Y0002724504D01*
X0003728785Y0002719904D01*
X0003728770Y0002702220D01*
X0003735523Y0002685877D01*
X0003748016Y0002673362D01*
X0003764347Y0002666580D01*
X0003782031Y0002666565D01*
X0003798091Y0002673201D01*
X0003705834Y0002580944D01*
X0003520372Y0002580944D01*
X0003519107Y0002582212D01*
X0003505582Y0002587828D01*
X0003490938Y0002587841D01*
X0003477403Y0002582248D01*
X0003476097Y0002580944D01*
X0003255622Y0002580944D01*
X0003230044Y0002606522D01*
X0003230045Y0002608313D01*
X0003224453Y0002621848D01*
X0003214107Y0002632211D01*
X0003200582Y0002637828D01*
X0003185938Y0002637840D01*
X0003172403Y0002632248D01*
X0003162039Y0002621902D01*
X0003156423Y0002608377D01*
X0003156410Y0002593733D01*
X0003162002Y0002580199D01*
X0003172348Y0002569834D01*
X0003185874Y0002564218D01*
X0003187719Y0002564217D01*
X0003222070Y0002529866D01*
X0003231777Y0002523380D01*
X0003243228Y0002521102D01*
X0003468307Y0002521102D01*
X0003468307Y0002383417D01*
X0003412069Y0002327181D01*
X0003405584Y0002317473D01*
X0003403307Y0002306023D01*
X0003403307Y0002223167D01*
X0003402039Y0002221902D01*
X0003396423Y0002208377D01*
X0003396410Y0002193733D01*
X0003402003Y0002180199D01*
X0003412349Y0002169834D01*
X0003425874Y0002164218D01*
X0003427719Y0002164217D01*
X0003483306Y0002108629D01*
X0003483306Y0001991023D01*
X0003485584Y0001979573D01*
X0003492070Y0001969865D01*
X0003532070Y0001929866D01*
X0003541777Y0001923379D01*
X0003553228Y0001921102D01*
X0003610834Y0001921102D01*
X0003636412Y0001895524D01*
X0003636410Y0001893733D01*
X0003642003Y0001880199D01*
X0003652349Y0001869834D01*
X0003665874Y0001864218D01*
X0003680518Y0001864206D01*
X0003694051Y0001869798D01*
X0003704417Y0001880144D01*
X0003710032Y0001893668D01*
X0003710045Y0001908313D01*
X0003704453Y0001921848D01*
X0003694107Y0001932211D01*
X0003680582Y0001937828D01*
X0003678737Y0001937829D01*
X0003644385Y0001972181D01*
X0003634678Y0001978667D01*
X0003623228Y0001980944D01*
X0003565622Y0001980944D01*
X0003565464Y0001981100D01*
X0003751084Y0001981100D01*
X0003752349Y0001979834D01*
X0003765874Y0001974218D01*
X0003780518Y0001974205D01*
X0003794052Y0001979798D01*
X0003804416Y0001990144D01*
X0003810032Y0002003669D01*
X0003810045Y0002018313D01*
X0003804453Y0002031848D01*
X0003794107Y0002042212D01*
X0003780582Y0002047828D01*
X0003765938Y0002047841D01*
X0003752403Y0002042247D01*
X0003751096Y0002040944D01*
X0003578958Y0002040944D01*
X0003574453Y0002051848D01*
X0003564107Y0002062212D01*
X0003550582Y0002067828D01*
X0003543149Y0002067834D01*
X0003543149Y0002121023D01*
X0003540871Y0002132473D01*
X0003534385Y0002142181D01*
X0003470043Y0002206522D01*
X0003470045Y0002208313D01*
X0003464453Y0002221848D01*
X0003463148Y0002223154D01*
X0003463148Y0002293629D01*
X0003519385Y0002349866D01*
X0003525871Y0002359573D01*
X0003528149Y0002371023D01*
X0003528149Y0002521102D01*
X0003708244Y0002521102D01*
X0003708228Y0002521023D01*
X0003708228Y0002436023D01*
X0003558228Y0002436023D01*
X0003556411Y0002435681D01*
X0003554742Y0002434607D01*
X0003553622Y0002432968D01*
X0003553228Y0002431023D01*
X0003553228Y0002271023D01*
X0003553570Y0002269206D01*
X0003554644Y0002267537D01*
X0003556283Y0002266417D01*
X0003558228Y0002266023D01*
X0003708228Y0002266023D01*
X0003708228Y0002056023D01*
X0003708570Y0002054206D01*
X0003709644Y0002052537D01*
X0003711283Y0002051416D01*
X0003713228Y0002051022D01*
X0003885275Y0002051022D01*
X0003885275Y0001641023D01*
X0003588779Y0001641023D01*
X0003588779Y0001702096D01*
X0003582529Y0001708346D01*
X0003478227Y0001708346D01*
X0003478227Y0001707559D01*
X0003468227Y0001707559D01*
X0003468227Y0001708346D01*
X0003363927Y0001708346D01*
X0003357677Y0001702096D01*
X0003357677Y0001641023D01*
X0003240761Y0001641023D01*
X0003238228Y0001653756D01*
X0003238228Y0001789185D01*
X0003357677Y0001789185D01*
X0003357677Y0001724596D01*
X0003363927Y0001718346D01*
X0003468227Y0001718346D01*
X0003468227Y0001802962D01*
X0003478227Y0001802962D01*
X0003478227Y0001718346D01*
X0003582529Y0001718346D01*
X0003588779Y0001724596D01*
X0003588779Y0001789185D01*
X0003584973Y0001798373D01*
X0003577940Y0001805406D01*
X0003568752Y0001809212D01*
X0003484478Y0001809212D01*
X0003478227Y0001802962D01*
X0003468227Y0001802962D01*
X0003461978Y0001809212D01*
X0003377704Y0001809212D01*
X0003368515Y0001805406D01*
X0003361483Y0001798373D01*
X0003357677Y0001789185D01*
X0003238228Y0001789185D01*
X0003238228Y0001811023D01*
X0003237834Y0001812968D01*
X0003236714Y0001814606D01*
X0003235045Y0001815681D01*
X0003233228Y0001816023D01*
X0003083228Y0001816023D01*
X0003083228Y0002849605D01*
X0003228532Y0002849605D01*
X0003228532Y0002951023D01*
X0003357482Y0002951023D01*
X0003357186Y0002949566D01*
G36*
X0003885275Y0002526022D02*
X0003733635Y0002526022D01*
X0003739385Y0002529866D01*
X0003854385Y0002644866D01*
X0003860871Y0002654573D01*
X0003863149Y0002666023D01*
X0003863149Y0002721023D01*
X0003860871Y0002732473D01*
X0003854385Y0002742181D01*
X0003838675Y0002757891D01*
X0003838685Y0002769034D01*
X0003835646Y0002776389D01*
X0003840874Y0002774218D01*
X0003855518Y0002774206D01*
X0003869052Y0002779798D01*
X0003879417Y0002790144D01*
X0003885032Y0002803669D01*
X0003885045Y0002818313D01*
X0003879453Y0002831847D01*
X0003869107Y0002842212D01*
X0003855582Y0002847828D01*
X0003840938Y0002847841D01*
X0003835798Y0002845717D01*
X0003839202Y0002856328D01*
X0003837880Y0002872366D01*
X0003837596Y0002873051D01*
X0003838346Y0002873361D01*
X0003850846Y0002885840D01*
X0003857620Y0002902153D01*
X0003857636Y0002919815D01*
X0003850890Y0002936141D01*
X0003838411Y0002948642D01*
X0003832676Y0002951023D01*
X0003885275Y0002951023D01*
X0003885275Y0002526022D01*
X0003885275Y0002526022D01*
G37*
X0003885275Y0002526022D02*
X0003733635Y0002526022D01*
X0003739385Y0002529866D01*
X0003854385Y0002644866D01*
X0003860871Y0002654573D01*
X0003863149Y0002666023D01*
X0003863149Y0002721023D01*
X0003860871Y0002732473D01*
X0003854385Y0002742181D01*
X0003838675Y0002757891D01*
X0003838685Y0002769034D01*
X0003835646Y0002776389D01*
X0003840874Y0002774218D01*
X0003855518Y0002774206D01*
X0003869052Y0002779798D01*
X0003879417Y0002790144D01*
X0003885032Y0002803669D01*
X0003885045Y0002818313D01*
X0003879453Y0002831847D01*
X0003869107Y0002842212D01*
X0003855582Y0002847828D01*
X0003840938Y0002847841D01*
X0003835798Y0002845717D01*
X0003839202Y0002856328D01*
X0003837880Y0002872366D01*
X0003837596Y0002873051D01*
X0003838346Y0002873361D01*
X0003850846Y0002885840D01*
X0003857620Y0002902153D01*
X0003857636Y0002919815D01*
X0003850890Y0002936141D01*
X0003838411Y0002948642D01*
X0003832676Y0002951023D01*
X0003885275Y0002951023D01*
X0003885275Y0002526022D01*
G36*
X0003805856Y0002861580D02*
X0003805299Y0002861023D01*
X0003805856Y0002860466D01*
X0003798785Y0002853395D01*
X0003798228Y0002853952D01*
X0003797671Y0002853395D01*
X0003790600Y0002860466D01*
X0003791157Y0002861023D01*
X0003790600Y0002861580D01*
X0003797671Y0002868651D01*
X0003798228Y0002868094D01*
X0003798785Y0002868651D01*
X0003805856Y0002861580D01*
X0003805856Y0002861580D01*
G37*
X0003805856Y0002861580D02*
X0003805299Y0002861023D01*
X0003805856Y0002860466D01*
X0003798785Y0002853395D01*
X0003798228Y0002853952D01*
X0003797671Y0002853395D01*
X0003790600Y0002860466D01*
X0003791157Y0002861023D01*
X0003790600Y0002861580D01*
X0003797671Y0002868651D01*
X0003798228Y0002868094D01*
X0003798785Y0002868651D01*
X0003805856Y0002861580D01*
M02*