G04 #@! TF.FileFunction,Soldermask,Bot*
%FSLAX46Y46*%
G04 Gerber Fmt 4.6, Leading zero omitted, Abs format (unit mm)*
G04 Created by KiCad (PCBNEW 4.0.7-e2-6376~61~ubuntu18.04.1) date Mon Jun  4 01:42:22 2018*
%MOMM*%
%LPD*%
G01*
G04 APERTURE LIST*
%ADD10C,0.100000*%
%ADD11R,1.000000X0.750000*%
%ADD12R,1.100000X2.000000*%
%ADD13R,0.900000X1.600000*%
%ADD14R,1.300000X2.200000*%
%ADD15R,0.900000X2.200000*%
%ADD16R,2.200000X0.900000*%
%ADD17R,1.300000X2.100000*%
%ADD18R,1.400000X1.200000*%
%ADD19R,0.900000X1.300000*%
%ADD20C,1.400000*%
%ADD21C,1.388060*%
%ADD22C,1.385520*%
%ADD23R,1.200000X1.150000*%
%ADD24R,1.150000X1.200000*%
G04 APERTURE END LIST*
D10*
D11*
X101616000Y-102862000D03*
X101616000Y-101862000D03*
X103616000Y-102862000D03*
D12*
X102616000Y-102362000D03*
D11*
X103616000Y-101862000D03*
D13*
X112594000Y-112308000D03*
X113994000Y-112308000D03*
D14*
X114544000Y-110108000D03*
D15*
X113644000Y-110108000D03*
X112944000Y-110108000D03*
X112244000Y-110108000D03*
X111544000Y-110108000D03*
X110844000Y-110108000D03*
X110144000Y-110108000D03*
X109444000Y-110108000D03*
X108744000Y-110108000D03*
X108044000Y-110108000D03*
X107344000Y-110108000D03*
X106644000Y-110108000D03*
X105944000Y-110108000D03*
X105244000Y-110108000D03*
X104544000Y-110108000D03*
D16*
X103044000Y-110608000D03*
X103044000Y-111308000D03*
X103044000Y-112008000D03*
X103044000Y-112708000D03*
X103044000Y-113408000D03*
X103044000Y-114108000D03*
X103044000Y-114808000D03*
X103044000Y-115508000D03*
X103044000Y-116208000D03*
X103044000Y-116908000D03*
X103044000Y-117608000D03*
X103044000Y-118308000D03*
X103044000Y-119008000D03*
D14*
X114544000Y-119508000D03*
D15*
X111544000Y-119508000D03*
X110844000Y-119508000D03*
X110144000Y-119508000D03*
X109444000Y-119508000D03*
X108744000Y-119508000D03*
X108044000Y-119508000D03*
X107344000Y-119508000D03*
X106644000Y-119508000D03*
X105944000Y-119508000D03*
X105244000Y-119508000D03*
D17*
X117270000Y-127254000D03*
X113870000Y-127254000D03*
D18*
X99949000Y-117283000D03*
X99949000Y-118683000D03*
D19*
X107200000Y-107442000D03*
X108700000Y-107442000D03*
X103898000Y-107442000D03*
X105398000Y-107442000D03*
X115836000Y-124206000D03*
X117336000Y-124206000D03*
D20*
X112903000Y-101854000D03*
X113893600Y-107492800D03*
X113665000Y-99441000D03*
X113817400Y-105918000D03*
X109474000Y-103759000D03*
D21*
X116840000Y-104140000D03*
D22*
X115824000Y-99060000D03*
X117856000Y-99060000D03*
D23*
X109970000Y-122936000D03*
X108470000Y-122936000D03*
D24*
X103251000Y-121551000D03*
X103251000Y-123051000D03*
D23*
X114415000Y-122174000D03*
X112915000Y-122174000D03*
D24*
X99949000Y-122035000D03*
X99949000Y-120535000D03*
X99949000Y-113931000D03*
X99949000Y-115431000D03*
X109220000Y-101651500D03*
X109220000Y-100151500D03*
X105918000Y-123710000D03*
X105918000Y-125210000D03*
D23*
X108343000Y-125476000D03*
X109843000Y-125476000D03*
M02*
