G04 #@! TF.FileFunction,Copper,L1,Top,Signal*
%FSLAX46Y46*%
G04 Gerber Fmt 4.6, Leading zero omitted, Abs format (unit mm)*
G04 Created by KiCad (PCBNEW 4.0.7-e2-6376~61~ubuntu18.04.1) date Mon Jun  4 01:42:22 2018*
%MOMM*%
%LPD*%
G01*
G04 APERTURE LIST*
%ADD10C,0.100000*%
%ADD11C,0.250000*%
%ADD12R,4.600000X3.600000*%
%ADD13C,0.784860*%
%ADD14C,0.600000*%
%ADD15C,0.254000*%
G04 APERTURE END LIST*
D10*
D11*
X99655476Y-98512381D02*
X100226905Y-98512381D01*
X99941190Y-99512381D02*
X99941190Y-98512381D01*
X100750714Y-98512381D02*
X100941191Y-98512381D01*
X101036429Y-98560000D01*
X101131667Y-98655238D01*
X101179286Y-98845714D01*
X101179286Y-99179048D01*
X101131667Y-99369524D01*
X101036429Y-99464762D01*
X100941191Y-99512381D01*
X100750714Y-99512381D01*
X100655476Y-99464762D01*
X100560238Y-99369524D01*
X100512619Y-99179048D01*
X100512619Y-98845714D01*
X100560238Y-98655238D01*
X100655476Y-98560000D01*
X100750714Y-98512381D01*
X101607857Y-99512381D02*
X101607857Y-98512381D01*
X101988810Y-98512381D01*
X102084048Y-98560000D01*
X102131667Y-98607619D01*
X102179286Y-98702857D01*
X102179286Y-98845714D01*
X102131667Y-98940952D01*
X102084048Y-98988571D01*
X101988810Y-99036190D01*
X101607857Y-99036190D01*
D12*
X109220000Y-129481000D03*
X109220000Y-99881000D03*
D13*
X117475000Y-102870000D03*
X116205000Y-102870000D03*
X117475000Y-101600000D03*
X116205000Y-101600000D03*
X117475000Y-100330000D03*
X116205000Y-100330000D03*
D14*
X119253000Y-100457000D03*
X106807000Y-115824000D03*
X101727000Y-122235000D03*
X101346000Y-113792000D03*
X105029000Y-127889000D03*
X108712000Y-104902000D03*
X114300000Y-124714000D03*
X108204000Y-117094000D03*
X109855000Y-108204000D03*
X102108000Y-106934000D03*
X114300000Y-103632000D03*
X114300000Y-101981000D03*
X118745000Y-101600000D03*
X110998000Y-121412000D03*
X116840000Y-121920000D03*
D11*
X119126000Y-100330000D02*
X117475000Y-100330000D01*
X119253000Y-100457000D02*
X119126000Y-100330000D01*
X106680000Y-115951000D02*
X106680000Y-117602000D01*
X106807000Y-115824000D02*
X106680000Y-115951000D01*
X101346000Y-117729000D02*
X106807000Y-117729000D01*
X109220000Y-120142000D02*
X109220000Y-127681000D01*
X106807000Y-117729000D02*
X109220000Y-120142000D01*
X101346000Y-121854000D02*
X101346000Y-117729000D01*
X101346000Y-117729000D02*
X101346000Y-113792000D01*
X101727000Y-122235000D02*
X101346000Y-121854000D01*
X107142000Y-127681000D02*
X109220000Y-127681000D01*
X106426000Y-127889000D02*
X106934000Y-127889000D01*
X105029000Y-127889000D02*
X106426000Y-127889000D01*
X106934000Y-127889000D02*
X107142000Y-127681000D01*
X109220000Y-103886000D02*
X109220000Y-104394000D01*
X109220000Y-103886000D02*
X109220000Y-101681000D01*
X109220000Y-104394000D02*
X108712000Y-104902000D01*
X117475000Y-102870000D02*
X117475000Y-102997000D01*
X117475000Y-102997000D02*
X118364000Y-103886000D01*
X118364000Y-103886000D02*
X118364000Y-105283000D01*
X118364000Y-105283000D02*
X115443000Y-108204000D01*
X115443000Y-108204000D02*
X109855000Y-108204000D01*
X110236000Y-119126000D02*
X108204000Y-117094000D01*
X110236000Y-122428000D02*
X110236000Y-119126000D01*
X111252000Y-123444000D02*
X110236000Y-122428000D01*
X113030000Y-123444000D02*
X111252000Y-123444000D01*
X114300000Y-124714000D02*
X113030000Y-123444000D01*
X109855000Y-108204000D02*
X109855000Y-112776000D01*
X108204000Y-114427000D02*
X109855000Y-112776000D01*
X108204000Y-114427000D02*
X108204000Y-117094000D01*
X103378000Y-108204000D02*
X109855000Y-108204000D01*
X102108000Y-106934000D02*
X103378000Y-108204000D01*
X115062000Y-102870000D02*
X116205000Y-102870000D01*
X114300000Y-103632000D02*
X115062000Y-102870000D01*
X114681000Y-101600000D02*
X116205000Y-101600000D01*
X114300000Y-101981000D02*
X114681000Y-101600000D01*
X118745000Y-101600000D02*
X117475000Y-101600000D01*
X111506000Y-121920000D02*
X110998000Y-121412000D01*
X116840000Y-121920000D02*
X111506000Y-121920000D01*
D15*
G36*
X106272560Y-98081000D02*
X106272560Y-101681000D01*
X106316838Y-101916317D01*
X106455910Y-102132441D01*
X106668110Y-102277431D01*
X106920000Y-102328440D01*
X108460000Y-102328440D01*
X108460000Y-103994453D01*
X108183057Y-104108883D01*
X107919808Y-104371673D01*
X107777162Y-104715201D01*
X107776838Y-105087167D01*
X107918883Y-105430943D01*
X108181673Y-105694192D01*
X108525201Y-105836838D01*
X108897167Y-105837162D01*
X109240943Y-105695117D01*
X109504192Y-105432327D01*
X109646838Y-105088799D01*
X109646879Y-105041923D01*
X109757401Y-104931401D01*
X109859426Y-104778709D01*
X109922148Y-104684839D01*
X109980000Y-104394000D01*
X109980000Y-102328440D01*
X111520000Y-102328440D01*
X111755317Y-102284162D01*
X111971441Y-102145090D01*
X112116431Y-101932890D01*
X112167440Y-101681000D01*
X112167440Y-98081000D01*
X112160478Y-98044000D01*
X115329706Y-98044000D01*
X115186010Y-98103374D01*
X114868489Y-98420341D01*
X114696436Y-98834691D01*
X114696045Y-99283341D01*
X114867374Y-99697990D01*
X115184341Y-100015511D01*
X115217402Y-100029239D01*
X115177748Y-100124735D01*
X115177392Y-100533472D01*
X115304047Y-100840000D01*
X114681000Y-100840000D01*
X114390160Y-100897852D01*
X114168613Y-101045885D01*
X114114833Y-101045838D01*
X113771057Y-101187883D01*
X113507808Y-101450673D01*
X113365162Y-101794201D01*
X113364838Y-102166167D01*
X113506883Y-102509943D01*
X113769673Y-102773192D01*
X113849659Y-102806405D01*
X113771057Y-102838883D01*
X113507808Y-103101673D01*
X113365162Y-103445201D01*
X113364838Y-103817167D01*
X113506883Y-104160943D01*
X113769673Y-104424192D01*
X114113201Y-104566838D01*
X114485167Y-104567162D01*
X114828943Y-104425117D01*
X115092192Y-104162327D01*
X115234838Y-103818799D01*
X115234879Y-103771923D01*
X115376802Y-103630000D01*
X115511936Y-103630000D01*
X115622248Y-103740505D01*
X115759691Y-103797576D01*
X115711166Y-103914437D01*
X115710774Y-104363593D01*
X115882297Y-104778709D01*
X116199621Y-105096587D01*
X116614437Y-105268834D01*
X117063593Y-105269226D01*
X117471528Y-105100670D01*
X115128198Y-107444000D01*
X110417463Y-107444000D01*
X110385327Y-107411808D01*
X110041799Y-107269162D01*
X109669833Y-107268838D01*
X109326057Y-107410883D01*
X109292882Y-107444000D01*
X103692802Y-107444000D01*
X103043122Y-106794320D01*
X103043162Y-106748833D01*
X102901117Y-106405057D01*
X102638327Y-106141808D01*
X102294799Y-105999162D01*
X101922833Y-105998838D01*
X101579057Y-106140883D01*
X101315808Y-106403673D01*
X101173162Y-106747201D01*
X101172838Y-107119167D01*
X101314883Y-107462943D01*
X101577673Y-107726192D01*
X101921201Y-107868838D01*
X101968077Y-107868879D01*
X102840599Y-108741401D01*
X103087160Y-108906148D01*
X103378000Y-108964000D01*
X109095000Y-108964000D01*
X109095000Y-112461198D01*
X107666599Y-113889599D01*
X107501852Y-114136161D01*
X107444000Y-114427000D01*
X107444000Y-116531537D01*
X107411808Y-116563673D01*
X107269162Y-116907201D01*
X107268838Y-117279167D01*
X107410883Y-117622943D01*
X107673673Y-117886192D01*
X108017201Y-118028838D01*
X108064077Y-118028879D01*
X109476000Y-119440802D01*
X109476000Y-122428000D01*
X109533852Y-122718839D01*
X109698599Y-122965401D01*
X110714599Y-123981401D01*
X110961161Y-124146148D01*
X111252000Y-124204000D01*
X112715198Y-124204000D01*
X113364878Y-124853680D01*
X113364838Y-124899167D01*
X113506883Y-125242943D01*
X113769673Y-125506192D01*
X114113201Y-125648838D01*
X114485167Y-125649162D01*
X114828943Y-125507117D01*
X115092192Y-125244327D01*
X115234838Y-124900799D01*
X115235162Y-124528833D01*
X115093117Y-124185057D01*
X114830327Y-123921808D01*
X114486799Y-123779162D01*
X114439923Y-123779121D01*
X113567401Y-122906599D01*
X113320839Y-122741852D01*
X113030000Y-122684000D01*
X111566802Y-122684000D01*
X111562802Y-122680000D01*
X116277537Y-122680000D01*
X116309673Y-122712192D01*
X116653201Y-122854838D01*
X117025167Y-122855162D01*
X117368943Y-122713117D01*
X117632192Y-122450327D01*
X117774838Y-122106799D01*
X117775162Y-121734833D01*
X117633117Y-121391057D01*
X117370327Y-121127808D01*
X117026799Y-120985162D01*
X116654833Y-120984838D01*
X116311057Y-121126883D01*
X116277882Y-121160000D01*
X111905547Y-121160000D01*
X111791117Y-120883057D01*
X111528327Y-120619808D01*
X111184799Y-120477162D01*
X110996000Y-120476998D01*
X110996000Y-119126000D01*
X110938148Y-118835161D01*
X110773401Y-118588599D01*
X109139122Y-116954320D01*
X109139162Y-116908833D01*
X108997117Y-116565057D01*
X108964000Y-116531882D01*
X108964000Y-114741802D01*
X110392401Y-113313401D01*
X110557148Y-113066839D01*
X110615000Y-112776000D01*
X110615000Y-108964000D01*
X115189405Y-108964000D01*
X115189000Y-108966000D01*
X115189000Y-111125000D01*
X111379000Y-111125000D01*
X111332841Y-111133685D01*
X111290447Y-111160965D01*
X111262006Y-111202590D01*
X111252000Y-111252000D01*
X111252000Y-115316000D01*
X111260685Y-115362159D01*
X111287965Y-115404553D01*
X111329590Y-115432994D01*
X111379000Y-115443000D01*
X115189000Y-115443000D01*
X115189000Y-120777000D01*
X115197685Y-120823159D01*
X115224965Y-120865553D01*
X115266590Y-120893994D01*
X115316000Y-120904000D01*
X119686000Y-120904000D01*
X119686000Y-131318000D01*
X112155000Y-131318000D01*
X112155000Y-129766750D01*
X111996250Y-129608000D01*
X109347000Y-129608000D01*
X109347000Y-129628000D01*
X109093000Y-129628000D01*
X109093000Y-129608000D01*
X106443750Y-129608000D01*
X106285000Y-129766750D01*
X106285000Y-131318000D01*
X103315339Y-131318000D01*
X103251000Y-130994548D01*
X103251000Y-127554691D01*
X106285000Y-127554691D01*
X106285000Y-129195250D01*
X106443750Y-129354000D01*
X109093000Y-129354000D01*
X109093000Y-127204750D01*
X109347000Y-127204750D01*
X109347000Y-129354000D01*
X111996250Y-129354000D01*
X112155000Y-129195250D01*
X112155000Y-127554691D01*
X112058327Y-127321302D01*
X111879699Y-127142673D01*
X111646310Y-127046000D01*
X109505750Y-127046000D01*
X109347000Y-127204750D01*
X109093000Y-127204750D01*
X108934250Y-127046000D01*
X106793690Y-127046000D01*
X106560301Y-127142673D01*
X106381673Y-127321302D01*
X106285000Y-127554691D01*
X103251000Y-127554691D01*
X103251000Y-127000000D01*
X103240994Y-126950590D01*
X103212553Y-126908965D01*
X103170159Y-126881685D01*
X103124000Y-126873000D01*
X99314000Y-126873000D01*
X99314000Y-100620000D01*
X103004762Y-100620000D01*
X103004762Y-98044000D01*
X106280053Y-98044000D01*
X106272560Y-98081000D01*
X106272560Y-98081000D01*
G37*
X106272560Y-98081000D02*
X106272560Y-101681000D01*
X106316838Y-101916317D01*
X106455910Y-102132441D01*
X106668110Y-102277431D01*
X106920000Y-102328440D01*
X108460000Y-102328440D01*
X108460000Y-103994453D01*
X108183057Y-104108883D01*
X107919808Y-104371673D01*
X107777162Y-104715201D01*
X107776838Y-105087167D01*
X107918883Y-105430943D01*
X108181673Y-105694192D01*
X108525201Y-105836838D01*
X108897167Y-105837162D01*
X109240943Y-105695117D01*
X109504192Y-105432327D01*
X109646838Y-105088799D01*
X109646879Y-105041923D01*
X109757401Y-104931401D01*
X109859426Y-104778709D01*
X109922148Y-104684839D01*
X109980000Y-104394000D01*
X109980000Y-102328440D01*
X111520000Y-102328440D01*
X111755317Y-102284162D01*
X111971441Y-102145090D01*
X112116431Y-101932890D01*
X112167440Y-101681000D01*
X112167440Y-98081000D01*
X112160478Y-98044000D01*
X115329706Y-98044000D01*
X115186010Y-98103374D01*
X114868489Y-98420341D01*
X114696436Y-98834691D01*
X114696045Y-99283341D01*
X114867374Y-99697990D01*
X115184341Y-100015511D01*
X115217402Y-100029239D01*
X115177748Y-100124735D01*
X115177392Y-100533472D01*
X115304047Y-100840000D01*
X114681000Y-100840000D01*
X114390160Y-100897852D01*
X114168613Y-101045885D01*
X114114833Y-101045838D01*
X113771057Y-101187883D01*
X113507808Y-101450673D01*
X113365162Y-101794201D01*
X113364838Y-102166167D01*
X113506883Y-102509943D01*
X113769673Y-102773192D01*
X113849659Y-102806405D01*
X113771057Y-102838883D01*
X113507808Y-103101673D01*
X113365162Y-103445201D01*
X113364838Y-103817167D01*
X113506883Y-104160943D01*
X113769673Y-104424192D01*
X114113201Y-104566838D01*
X114485167Y-104567162D01*
X114828943Y-104425117D01*
X115092192Y-104162327D01*
X115234838Y-103818799D01*
X115234879Y-103771923D01*
X115376802Y-103630000D01*
X115511936Y-103630000D01*
X115622248Y-103740505D01*
X115759691Y-103797576D01*
X115711166Y-103914437D01*
X115710774Y-104363593D01*
X115882297Y-104778709D01*
X116199621Y-105096587D01*
X116614437Y-105268834D01*
X117063593Y-105269226D01*
X117471528Y-105100670D01*
X115128198Y-107444000D01*
X110417463Y-107444000D01*
X110385327Y-107411808D01*
X110041799Y-107269162D01*
X109669833Y-107268838D01*
X109326057Y-107410883D01*
X109292882Y-107444000D01*
X103692802Y-107444000D01*
X103043122Y-106794320D01*
X103043162Y-106748833D01*
X102901117Y-106405057D01*
X102638327Y-106141808D01*
X102294799Y-105999162D01*
X101922833Y-105998838D01*
X101579057Y-106140883D01*
X101315808Y-106403673D01*
X101173162Y-106747201D01*
X101172838Y-107119167D01*
X101314883Y-107462943D01*
X101577673Y-107726192D01*
X101921201Y-107868838D01*
X101968077Y-107868879D01*
X102840599Y-108741401D01*
X103087160Y-108906148D01*
X103378000Y-108964000D01*
X109095000Y-108964000D01*
X109095000Y-112461198D01*
X107666599Y-113889599D01*
X107501852Y-114136161D01*
X107444000Y-114427000D01*
X107444000Y-116531537D01*
X107411808Y-116563673D01*
X107269162Y-116907201D01*
X107268838Y-117279167D01*
X107410883Y-117622943D01*
X107673673Y-117886192D01*
X108017201Y-118028838D01*
X108064077Y-118028879D01*
X109476000Y-119440802D01*
X109476000Y-122428000D01*
X109533852Y-122718839D01*
X109698599Y-122965401D01*
X110714599Y-123981401D01*
X110961161Y-124146148D01*
X111252000Y-124204000D01*
X112715198Y-124204000D01*
X113364878Y-124853680D01*
X113364838Y-124899167D01*
X113506883Y-125242943D01*
X113769673Y-125506192D01*
X114113201Y-125648838D01*
X114485167Y-125649162D01*
X114828943Y-125507117D01*
X115092192Y-125244327D01*
X115234838Y-124900799D01*
X115235162Y-124528833D01*
X115093117Y-124185057D01*
X114830327Y-123921808D01*
X114486799Y-123779162D01*
X114439923Y-123779121D01*
X113567401Y-122906599D01*
X113320839Y-122741852D01*
X113030000Y-122684000D01*
X111566802Y-122684000D01*
X111562802Y-122680000D01*
X116277537Y-122680000D01*
X116309673Y-122712192D01*
X116653201Y-122854838D01*
X117025167Y-122855162D01*
X117368943Y-122713117D01*
X117632192Y-122450327D01*
X117774838Y-122106799D01*
X117775162Y-121734833D01*
X117633117Y-121391057D01*
X117370327Y-121127808D01*
X117026799Y-120985162D01*
X116654833Y-120984838D01*
X116311057Y-121126883D01*
X116277882Y-121160000D01*
X111905547Y-121160000D01*
X111791117Y-120883057D01*
X111528327Y-120619808D01*
X111184799Y-120477162D01*
X110996000Y-120476998D01*
X110996000Y-119126000D01*
X110938148Y-118835161D01*
X110773401Y-118588599D01*
X109139122Y-116954320D01*
X109139162Y-116908833D01*
X108997117Y-116565057D01*
X108964000Y-116531882D01*
X108964000Y-114741802D01*
X110392401Y-113313401D01*
X110557148Y-113066839D01*
X110615000Y-112776000D01*
X110615000Y-108964000D01*
X115189405Y-108964000D01*
X115189000Y-108966000D01*
X115189000Y-111125000D01*
X111379000Y-111125000D01*
X111332841Y-111133685D01*
X111290447Y-111160965D01*
X111262006Y-111202590D01*
X111252000Y-111252000D01*
X111252000Y-115316000D01*
X111260685Y-115362159D01*
X111287965Y-115404553D01*
X111329590Y-115432994D01*
X111379000Y-115443000D01*
X115189000Y-115443000D01*
X115189000Y-120777000D01*
X115197685Y-120823159D01*
X115224965Y-120865553D01*
X115266590Y-120893994D01*
X115316000Y-120904000D01*
X119686000Y-120904000D01*
X119686000Y-131318000D01*
X112155000Y-131318000D01*
X112155000Y-129766750D01*
X111996250Y-129608000D01*
X109347000Y-129608000D01*
X109347000Y-129628000D01*
X109093000Y-129628000D01*
X109093000Y-129608000D01*
X106443750Y-129608000D01*
X106285000Y-129766750D01*
X106285000Y-131318000D01*
X103315339Y-131318000D01*
X103251000Y-130994548D01*
X103251000Y-127554691D01*
X106285000Y-127554691D01*
X106285000Y-129195250D01*
X106443750Y-129354000D01*
X109093000Y-129354000D01*
X109093000Y-127204750D01*
X109347000Y-127204750D01*
X109347000Y-129354000D01*
X111996250Y-129354000D01*
X112155000Y-129195250D01*
X112155000Y-127554691D01*
X112058327Y-127321302D01*
X111879699Y-127142673D01*
X111646310Y-127046000D01*
X109505750Y-127046000D01*
X109347000Y-127204750D01*
X109093000Y-127204750D01*
X108934250Y-127046000D01*
X106793690Y-127046000D01*
X106560301Y-127142673D01*
X106381673Y-127321302D01*
X106285000Y-127554691D01*
X103251000Y-127554691D01*
X103251000Y-127000000D01*
X103240994Y-126950590D01*
X103212553Y-126908965D01*
X103170159Y-126881685D01*
X103124000Y-126873000D01*
X99314000Y-126873000D01*
X99314000Y-100620000D01*
X103004762Y-100620000D01*
X103004762Y-98044000D01*
X106280053Y-98044000D01*
X106272560Y-98081000D01*
G36*
X119686000Y-108839000D02*
X115834333Y-108839000D01*
X115980401Y-108741401D01*
X118901401Y-105820401D01*
X119066148Y-105573839D01*
X119124000Y-105283000D01*
X119124000Y-103886000D01*
X119066148Y-103595161D01*
X118901401Y-103348599D01*
X118502361Y-102949559D01*
X118502608Y-102666528D01*
X118425412Y-102479699D01*
X118558201Y-102534838D01*
X118930167Y-102535162D01*
X119273943Y-102393117D01*
X119537192Y-102130327D01*
X119679838Y-101786799D01*
X119680162Y-101414833D01*
X119538117Y-101071057D01*
X119275327Y-100807808D01*
X118931799Y-100665162D01*
X118559833Y-100664838D01*
X118429283Y-100718780D01*
X118515749Y-100449253D01*
X118482163Y-100041899D01*
X118474953Y-100024492D01*
X118493990Y-100016626D01*
X118811511Y-99699659D01*
X118983564Y-99285309D01*
X118983955Y-98836659D01*
X118812626Y-98422010D01*
X118495659Y-98104489D01*
X118349985Y-98044000D01*
X119686000Y-98044000D01*
X119686000Y-108839000D01*
X119686000Y-108839000D01*
G37*
X119686000Y-108839000D02*
X115834333Y-108839000D01*
X115980401Y-108741401D01*
X118901401Y-105820401D01*
X119066148Y-105573839D01*
X119124000Y-105283000D01*
X119124000Y-103886000D01*
X119066148Y-103595161D01*
X118901401Y-103348599D01*
X118502361Y-102949559D01*
X118502608Y-102666528D01*
X118425412Y-102479699D01*
X118558201Y-102534838D01*
X118930167Y-102535162D01*
X119273943Y-102393117D01*
X119537192Y-102130327D01*
X119679838Y-101786799D01*
X119680162Y-101414833D01*
X119538117Y-101071057D01*
X119275327Y-100807808D01*
X118931799Y-100665162D01*
X118559833Y-100664838D01*
X118429283Y-100718780D01*
X118515749Y-100449253D01*
X118482163Y-100041899D01*
X118474953Y-100024492D01*
X118493990Y-100016626D01*
X118811511Y-99699659D01*
X118983564Y-99285309D01*
X118983955Y-98836659D01*
X118812626Y-98422010D01*
X118495659Y-98104489D01*
X118349985Y-98044000D01*
X119686000Y-98044000D01*
X119686000Y-108839000D01*
G36*
X117668748Y-100315858D02*
X117654605Y-100330000D01*
X117668748Y-100344142D01*
X117489143Y-100523748D01*
X117475000Y-100509605D01*
X117460858Y-100523748D01*
X117281253Y-100344143D01*
X117295395Y-100330000D01*
X117281253Y-100315858D01*
X117460858Y-100136253D01*
X117475000Y-100150395D01*
X117489143Y-100136253D01*
X117668748Y-100315858D01*
X117668748Y-100315858D01*
G37*
X117668748Y-100315858D02*
X117654605Y-100330000D01*
X117668748Y-100344142D01*
X117489143Y-100523748D01*
X117475000Y-100509605D01*
X117460858Y-100523748D01*
X117281253Y-100344143D01*
X117295395Y-100330000D01*
X117281253Y-100315858D01*
X117460858Y-100136253D01*
X117475000Y-100150395D01*
X117489143Y-100136253D01*
X117668748Y-100315858D01*
M02*
