G04 #@! TF.FileFunction,Copper,L2,Bot,Signal*
%FSLAX46Y46*%
G04 Gerber Fmt 4.6, Leading zero omitted, Abs format (unit mm)*
G04 Created by KiCad (PCBNEW 4.0.7-e2-6376~61~ubuntu18.04.1) date Mon Jun  4 01:42:22 2018*
%MOMM*%
%LPD*%
G01*
G04 APERTURE LIST*
%ADD10C,0.100000*%
%ADD11C,0.250000*%
%ADD12R,0.600000X0.350000*%
%ADD13R,0.700000X1.600000*%
%ADD14R,0.500000X1.200000*%
%ADD15R,0.900000X1.800000*%
%ADD16R,0.500000X1.800000*%
%ADD17R,1.800000X0.500000*%
%ADD18R,0.900000X1.700000*%
%ADD19R,1.000000X0.800000*%
%ADD20R,0.500000X0.900000*%
%ADD21C,1.000000*%
%ADD22R,0.800000X0.750000*%
%ADD23R,0.750000X0.800000*%
%ADD24C,0.600000*%
%ADD25C,0.254000*%
G04 APERTURE END LIST*
D10*
D11*
X119070333Y-130357571D02*
X118927476Y-130405190D01*
X118879857Y-130452810D01*
X118832238Y-130548048D01*
X118832238Y-130690905D01*
X118879857Y-130786143D01*
X118927476Y-130833762D01*
X119022714Y-130881381D01*
X119403667Y-130881381D01*
X119403667Y-129881381D01*
X119070333Y-129881381D01*
X118975095Y-129929000D01*
X118927476Y-129976619D01*
X118879857Y-130071857D01*
X118879857Y-130167095D01*
X118927476Y-130262333D01*
X118975095Y-130309952D01*
X119070333Y-130357571D01*
X119403667Y-130357571D01*
X118213191Y-129881381D02*
X118022714Y-129881381D01*
X117927476Y-129929000D01*
X117832238Y-130024238D01*
X117784619Y-130214714D01*
X117784619Y-130548048D01*
X117832238Y-130738524D01*
X117927476Y-130833762D01*
X118022714Y-130881381D01*
X118213191Y-130881381D01*
X118308429Y-130833762D01*
X118403667Y-130738524D01*
X118451286Y-130548048D01*
X118451286Y-130214714D01*
X118403667Y-130024238D01*
X118308429Y-129929000D01*
X118213191Y-129881381D01*
X117498905Y-129881381D02*
X116927476Y-129881381D01*
X117213191Y-130881381D02*
X117213191Y-129881381D01*
D12*
X101616000Y-102862000D03*
X101616000Y-101862000D03*
X103616000Y-102862000D03*
D13*
X102616000Y-102362000D03*
D12*
X103616000Y-101862000D03*
D14*
X112594000Y-112308000D03*
X113994000Y-112308000D03*
D15*
X114544000Y-110108000D03*
D16*
X113644000Y-110108000D03*
X112944000Y-110108000D03*
X112244000Y-110108000D03*
X111544000Y-110108000D03*
X110844000Y-110108000D03*
X110144000Y-110108000D03*
X109444000Y-110108000D03*
X108744000Y-110108000D03*
X108044000Y-110108000D03*
X107344000Y-110108000D03*
X106644000Y-110108000D03*
X105944000Y-110108000D03*
X105244000Y-110108000D03*
X104544000Y-110108000D03*
D17*
X103044000Y-110608000D03*
X103044000Y-111308000D03*
X103044000Y-112008000D03*
X103044000Y-112708000D03*
X103044000Y-113408000D03*
X103044000Y-114108000D03*
X103044000Y-114808000D03*
X103044000Y-115508000D03*
X103044000Y-116208000D03*
X103044000Y-116908000D03*
X103044000Y-117608000D03*
X103044000Y-118308000D03*
X103044000Y-119008000D03*
D15*
X114544000Y-119508000D03*
D16*
X111544000Y-119508000D03*
X110844000Y-119508000D03*
X110144000Y-119508000D03*
X109444000Y-119508000D03*
X108744000Y-119508000D03*
X108044000Y-119508000D03*
X107344000Y-119508000D03*
X106644000Y-119508000D03*
X105944000Y-119508000D03*
X105244000Y-119508000D03*
D18*
X117270000Y-127254000D03*
X113870000Y-127254000D03*
D19*
X99949000Y-117283000D03*
X99949000Y-118683000D03*
D20*
X107200000Y-107442000D03*
X108700000Y-107442000D03*
X103898000Y-107442000D03*
X105398000Y-107442000D03*
X115836000Y-124206000D03*
X117336000Y-124206000D03*
D21*
X112903000Y-101854000D03*
X113893600Y-107492800D03*
X113665000Y-99441000D03*
X113817400Y-105918000D03*
X109474000Y-103759000D03*
D22*
X109970000Y-122936000D03*
X108470000Y-122936000D03*
D23*
X103251000Y-121551000D03*
X103251000Y-123051000D03*
D22*
X114415000Y-122174000D03*
X112915000Y-122174000D03*
D23*
X99949000Y-122035000D03*
X99949000Y-120535000D03*
X99949000Y-113931000D03*
X99949000Y-115431000D03*
X109220000Y-101651500D03*
X109220000Y-100151500D03*
X105918000Y-123710000D03*
X105918000Y-125210000D03*
D22*
X108343000Y-125476000D03*
X109843000Y-125476000D03*
D24*
X119253000Y-100457000D03*
X106807000Y-115824000D03*
X101727000Y-122235000D03*
X101346000Y-113792000D03*
X105029000Y-127889000D03*
X108712000Y-104902000D03*
X114300000Y-124714000D03*
X108204000Y-117094000D03*
X109855000Y-108204000D03*
X102108000Y-106934000D03*
X114300000Y-103632000D03*
X114300000Y-101981000D03*
X118745000Y-101600000D03*
X110998000Y-121412000D03*
X116840000Y-121920000D03*
D11*
X101616000Y-101862000D02*
X100973000Y-101862000D01*
X107874500Y-100151500D02*
X109220000Y-100151500D01*
X107378500Y-100647500D02*
X107874500Y-100151500D01*
X101028500Y-100647500D02*
X107378500Y-100647500D01*
X100647500Y-101028500D02*
X101028500Y-100647500D01*
X100647500Y-101536500D02*
X100647500Y-101028500D01*
X100973000Y-101862000D02*
X100647500Y-101536500D01*
X114544000Y-110108000D02*
X114544000Y-108214000D01*
X114544000Y-108214000D02*
X114808000Y-107950000D01*
X113893600Y-107492800D02*
X114528600Y-107492800D01*
X114528600Y-107492800D02*
X114896900Y-107861100D01*
X119507000Y-100711000D02*
X119253000Y-100457000D01*
X119507000Y-105537000D02*
X119507000Y-100711000D01*
X118237000Y-106807000D02*
X119507000Y-105537000D01*
X115951000Y-106807000D02*
X118237000Y-106807000D01*
X114544000Y-108214000D02*
X114808000Y-107950000D01*
X114808000Y-107950000D02*
X114896900Y-107861100D01*
X114896900Y-107861100D02*
X115951000Y-106807000D01*
X113870000Y-127254000D02*
X113870000Y-126824000D01*
X113870000Y-126824000D02*
X113157000Y-126111000D01*
X114544000Y-115443000D02*
X107442000Y-115443000D01*
X107061000Y-115824000D02*
X106807000Y-115824000D01*
X107442000Y-115443000D02*
X107061000Y-115824000D01*
X114544000Y-119508000D02*
X114544000Y-115443000D01*
X114544000Y-115443000D02*
X114544000Y-113167000D01*
X114808000Y-112903000D02*
X114808000Y-110372000D01*
X114544000Y-113167000D02*
X114808000Y-112903000D01*
X114808000Y-110372000D02*
X114544000Y-110108000D01*
X99949000Y-122235000D02*
X101727000Y-122235000D01*
X99949000Y-113731000D02*
X101412000Y-113731000D01*
X101351000Y-113792000D02*
X101346000Y-113792000D01*
X101412000Y-113731000D02*
X101351000Y-113792000D01*
X103187500Y-125412500D02*
X104394000Y-126619000D01*
X104394000Y-126619000D02*
X104394000Y-127381000D01*
X101727000Y-122235000D02*
X101727000Y-123952000D01*
X101727000Y-123952000D02*
X103187500Y-125412500D01*
X103187500Y-125412500D02*
X103251000Y-125476000D01*
X99949000Y-113731000D02*
X99949000Y-111760000D01*
X101101000Y-110608000D02*
X103044000Y-110608000D01*
X99949000Y-111760000D02*
X100457000Y-111252000D01*
X100457000Y-111252000D02*
X101101000Y-110608000D01*
X101727000Y-122235000D02*
X101727000Y-122301000D01*
X103251000Y-123251000D02*
X103251000Y-125476000D01*
X114544000Y-119508000D02*
X114544000Y-122103000D01*
X114544000Y-122103000D02*
X114615000Y-122174000D01*
X114615000Y-122174000D02*
X114615000Y-122748000D01*
X114615000Y-122748000D02*
X114046000Y-123317000D01*
X111379000Y-122936000D02*
X110170000Y-122936000D01*
X103044000Y-119008000D02*
X101972000Y-119008000D01*
X101727000Y-119253000D02*
X101727000Y-122301000D01*
X101972000Y-119008000D02*
X101727000Y-119253000D01*
X113157000Y-126111000D02*
X113157000Y-123317000D01*
X104394000Y-127381000D02*
X104902000Y-127889000D01*
X114046000Y-123317000D02*
X113157000Y-123317000D01*
X113157000Y-123317000D02*
X112522000Y-123317000D01*
X111760000Y-123317000D02*
X111379000Y-122936000D01*
X112522000Y-123317000D02*
X111760000Y-123317000D01*
X105029000Y-127889000D02*
X111379000Y-127889000D01*
X111379000Y-127889000D02*
X113157000Y-126111000D01*
X104902000Y-127889000D02*
X105029000Y-127889000D01*
X109220000Y-101651500D02*
X106628500Y-101651500D01*
X106628500Y-101651500D02*
X106418000Y-101862000D01*
X109220000Y-101651500D02*
X109220000Y-102362000D01*
X109220000Y-102362000D02*
X108712000Y-102870000D01*
X106418000Y-101862000D02*
X103616000Y-101862000D01*
X109474000Y-103759000D02*
X108712000Y-103759000D01*
X108712000Y-102870000D02*
X108712000Y-103759000D01*
X108712000Y-103759000D02*
X108712000Y-104902000D01*
X108712000Y-104902000D02*
X108712000Y-104521000D01*
X108700000Y-104902000D02*
X108700000Y-104914000D01*
X108712000Y-104902000D02*
X108700000Y-104914000D01*
X115836000Y-124206000D02*
X114554000Y-124206000D01*
X114300000Y-124460000D02*
X114300000Y-124714000D01*
X114554000Y-124206000D02*
X114300000Y-124460000D01*
X103898000Y-107442000D02*
X102616000Y-107442000D01*
X109093000Y-107442000D02*
X108700000Y-107442000D01*
X109855000Y-108204000D02*
X109093000Y-107442000D01*
X102616000Y-107442000D02*
X102108000Y-106934000D01*
X108700000Y-107442000D02*
X108700000Y-106172000D01*
X108700000Y-106172000D02*
X108700000Y-105156000D01*
X108700000Y-105156000D02*
X108700000Y-104902000D01*
X103771000Y-107315000D02*
X103898000Y-107442000D01*
X105244000Y-119508000D02*
X105244000Y-117514000D01*
X105244000Y-117514000D02*
X105664000Y-117094000D01*
X105664000Y-117094000D02*
X108204000Y-117094000D01*
X112715000Y-117795000D02*
X112715000Y-122174000D01*
X108204000Y-117094000D02*
X112014000Y-117094000D01*
X112014000Y-117094000D02*
X112715000Y-117795000D01*
X105244000Y-119508000D02*
X105244000Y-120943000D01*
X104836000Y-121351000D02*
X103251000Y-121351000D01*
X105244000Y-120943000D02*
X104836000Y-121351000D01*
X108270000Y-122936000D02*
X108270000Y-123637000D01*
X110043000Y-124775000D02*
X110043000Y-125476000D01*
X109474000Y-124206000D02*
X110043000Y-124775000D01*
X108839000Y-124206000D02*
X109474000Y-124206000D01*
X108270000Y-123637000D02*
X108839000Y-124206000D01*
X106644000Y-119508000D02*
X106644000Y-122138000D01*
X107442000Y-122936000D02*
X108270000Y-122936000D01*
X106644000Y-122138000D02*
X107442000Y-122936000D01*
X99949000Y-120335000D02*
X99949000Y-118533000D01*
X103044000Y-118308000D02*
X101783000Y-118308000D01*
X101783000Y-118308000D02*
X101558000Y-118533000D01*
X101558000Y-118533000D02*
X99949000Y-118533000D01*
X99949000Y-120335000D02*
X99949000Y-120269000D01*
X103044000Y-117608000D02*
X101860000Y-117608000D01*
X101685000Y-117433000D02*
X99949000Y-117433000D01*
X101860000Y-117608000D02*
X101685000Y-117433000D01*
X103044000Y-117608000D02*
X101987000Y-117608000D01*
X99991000Y-117475000D02*
X99949000Y-117433000D01*
X99949000Y-115631000D02*
X99949000Y-117433000D01*
X112944000Y-105918000D02*
X113665000Y-105918000D01*
X112944000Y-110108000D02*
X112944000Y-105918000D01*
X112944000Y-105918000D02*
X112944000Y-104988000D01*
X112944000Y-104988000D02*
X114300000Y-103632000D01*
X112903000Y-101854000D02*
X112903000Y-102870000D01*
X112903000Y-102870000D02*
X113157000Y-103124000D01*
X112244000Y-110108000D02*
X112244000Y-104037000D01*
X112244000Y-104037000D02*
X113157000Y-103124000D01*
X113157000Y-103124000D02*
X114300000Y-101981000D01*
X113665000Y-99441000D02*
X113665000Y-100457000D01*
X113792000Y-100457000D02*
X117602000Y-100457000D01*
X118745000Y-101600000D02*
X117729000Y-100584000D01*
X117602000Y-100457000D02*
X117729000Y-100584000D01*
X111544000Y-103124000D02*
X111544000Y-101562000D01*
X112649000Y-100457000D02*
X113665000Y-100457000D01*
X113665000Y-100457000D02*
X113792000Y-100457000D01*
X111544000Y-101562000D02*
X112649000Y-100457000D01*
X111544000Y-103086000D02*
X111544000Y-103124000D01*
X111544000Y-103124000D02*
X111544000Y-110108000D01*
X107200000Y-107442000D02*
X107200000Y-104723500D01*
X105338500Y-102862000D02*
X103616000Y-102862000D01*
X107200000Y-104723500D02*
X105338500Y-102862000D01*
X103624000Y-102870000D02*
X103616000Y-102878000D01*
X107188000Y-107430000D02*
X107200000Y-107442000D01*
X106644000Y-110108000D02*
X106644000Y-108621000D01*
X107200000Y-108065000D02*
X107200000Y-107442000D01*
X106644000Y-108621000D02*
X107200000Y-108065000D01*
X105398000Y-107442000D02*
X105398000Y-105906000D01*
X100965000Y-102870000D02*
X101608000Y-102870000D01*
X100584000Y-103251000D02*
X100965000Y-102870000D01*
X100584000Y-103759000D02*
X100584000Y-103251000D01*
X101092000Y-104267000D02*
X100584000Y-103759000D01*
X103759000Y-104267000D02*
X101092000Y-104267000D01*
X105398000Y-105906000D02*
X103759000Y-104267000D01*
X101608000Y-102870000D02*
X101616000Y-102862000D01*
X105944000Y-110108000D02*
X105944000Y-108484000D01*
X105398000Y-107938000D02*
X105398000Y-107442000D01*
X105944000Y-108484000D02*
X105398000Y-107938000D01*
X105944000Y-119508000D02*
X105944000Y-123484000D01*
X105944000Y-123484000D02*
X105918000Y-123510000D01*
X108143000Y-125476000D02*
X105984000Y-125476000D01*
X105984000Y-125476000D02*
X105918000Y-125410000D01*
X117336000Y-124206000D02*
X117336000Y-122416000D01*
X110144000Y-121066000D02*
X110144000Y-119508000D01*
X110490000Y-121412000D02*
X110144000Y-121066000D01*
X110998000Y-121412000D02*
X110490000Y-121412000D01*
X117336000Y-122416000D02*
X116840000Y-121920000D01*
X117336000Y-124206000D02*
X117336000Y-127188000D01*
X117336000Y-127188000D02*
X117270000Y-127254000D01*
D25*
G36*
X115189000Y-118001452D02*
X115120310Y-117973000D01*
X114829750Y-117973000D01*
X114671000Y-118131750D01*
X114671000Y-119381000D01*
X114691000Y-119381000D01*
X114691000Y-119635000D01*
X114671000Y-119635000D01*
X114671000Y-120884250D01*
X114829750Y-121043000D01*
X115120310Y-121043000D01*
X115353699Y-120946327D01*
X115396026Y-120904000D01*
X119686000Y-120904000D01*
X119686000Y-128969000D01*
X116197238Y-128969000D01*
X116197238Y-131318000D01*
X103315339Y-131318000D01*
X103251000Y-130994548D01*
X103251000Y-127539750D01*
X112785000Y-127539750D01*
X112785000Y-128230310D01*
X112881673Y-128463699D01*
X113060302Y-128642327D01*
X113293691Y-128739000D01*
X113584250Y-128739000D01*
X113743000Y-128580250D01*
X113743000Y-127381000D01*
X113997000Y-127381000D01*
X113997000Y-128580250D01*
X114155750Y-128739000D01*
X114446309Y-128739000D01*
X114679698Y-128642327D01*
X114858327Y-128463699D01*
X114955000Y-128230310D01*
X114955000Y-127539750D01*
X114796250Y-127381000D01*
X113997000Y-127381000D01*
X113743000Y-127381000D01*
X112943750Y-127381000D01*
X112785000Y-127539750D01*
X103251000Y-127539750D01*
X103251000Y-127000000D01*
X103240994Y-126950590D01*
X103212553Y-126908965D01*
X103170159Y-126881685D01*
X103124000Y-126873000D01*
X99314000Y-126873000D01*
X99314000Y-123336750D01*
X102241000Y-123336750D01*
X102241000Y-123577309D01*
X102337673Y-123810698D01*
X102516301Y-123989327D01*
X102749690Y-124086000D01*
X102965250Y-124086000D01*
X103124000Y-123927250D01*
X103124000Y-123178000D01*
X103378000Y-123178000D01*
X103378000Y-123927250D01*
X103536750Y-124086000D01*
X103752310Y-124086000D01*
X103985699Y-123989327D01*
X104164327Y-123810698D01*
X104261000Y-123577309D01*
X104261000Y-123336750D01*
X104102250Y-123178000D01*
X103378000Y-123178000D01*
X103124000Y-123178000D01*
X102399750Y-123178000D01*
X102241000Y-123336750D01*
X99314000Y-123336750D01*
X99314000Y-123014624D01*
X99447690Y-123070000D01*
X99663250Y-123070000D01*
X99822000Y-122911250D01*
X99822000Y-122162000D01*
X100076000Y-122162000D01*
X100076000Y-122911250D01*
X100234750Y-123070000D01*
X100450310Y-123070000D01*
X100683699Y-122973327D01*
X100862327Y-122794698D01*
X100959000Y-122561309D01*
X100959000Y-122320750D01*
X100800250Y-122162000D01*
X100076000Y-122162000D01*
X99822000Y-122162000D01*
X99802000Y-122162000D01*
X99802000Y-121908000D01*
X99822000Y-121908000D01*
X99822000Y-121888000D01*
X100076000Y-121888000D01*
X100076000Y-121908000D01*
X100800250Y-121908000D01*
X100959000Y-121749250D01*
X100959000Y-121508691D01*
X100862327Y-121275302D01*
X100860957Y-121273932D01*
X100920431Y-121186890D01*
X100971440Y-120935000D01*
X100971440Y-120135000D01*
X100927162Y-119899683D01*
X100788090Y-119683559D01*
X100739721Y-119650510D01*
X100900441Y-119547090D01*
X101045431Y-119334890D01*
X101053914Y-119293000D01*
X101509000Y-119293000D01*
X101509000Y-119384309D01*
X101605673Y-119617698D01*
X101784301Y-119796327D01*
X102017690Y-119893000D01*
X102758250Y-119893000D01*
X102917000Y-119734250D01*
X102917000Y-119205440D01*
X103171000Y-119205440D01*
X103171000Y-119734250D01*
X103329750Y-119893000D01*
X104070310Y-119893000D01*
X104303699Y-119796327D01*
X104346560Y-119753466D01*
X104346560Y-120408000D01*
X104380994Y-120591000D01*
X103931209Y-120591000D01*
X103877890Y-120554569D01*
X103626000Y-120503560D01*
X102876000Y-120503560D01*
X102640683Y-120547838D01*
X102424559Y-120686910D01*
X102279569Y-120899110D01*
X102228560Y-121151000D01*
X102228560Y-121951000D01*
X102272838Y-122186317D01*
X102339329Y-122289646D01*
X102337673Y-122291302D01*
X102241000Y-122524691D01*
X102241000Y-122765250D01*
X102399750Y-122924000D01*
X103124000Y-122924000D01*
X103124000Y-122904000D01*
X103378000Y-122904000D01*
X103378000Y-122924000D01*
X104102250Y-122924000D01*
X104261000Y-122765250D01*
X104261000Y-122524691D01*
X104164327Y-122291302D01*
X104162957Y-122289932D01*
X104222431Y-122202890D01*
X104241039Y-122111000D01*
X104836000Y-122111000D01*
X105126839Y-122053148D01*
X105184000Y-122014954D01*
X105184000Y-122786426D01*
X105091559Y-122845910D01*
X104946569Y-123058110D01*
X104895560Y-123310000D01*
X104895560Y-124110000D01*
X104939838Y-124345317D01*
X105013620Y-124459978D01*
X104946569Y-124558110D01*
X104895560Y-124810000D01*
X104895560Y-125610000D01*
X104939838Y-125845317D01*
X105078910Y-126061441D01*
X105291110Y-126206431D01*
X105543000Y-126257440D01*
X106293000Y-126257440D01*
X106406944Y-126236000D01*
X107436156Y-126236000D01*
X107478910Y-126302441D01*
X107691110Y-126447431D01*
X107943000Y-126498440D01*
X108743000Y-126498440D01*
X108978317Y-126454162D01*
X109092978Y-126380380D01*
X109191110Y-126447431D01*
X109443000Y-126498440D01*
X110243000Y-126498440D01*
X110478317Y-126454162D01*
X110694441Y-126315090D01*
X110719995Y-126277690D01*
X112785000Y-126277690D01*
X112785000Y-126968250D01*
X112943750Y-127127000D01*
X113743000Y-127127000D01*
X113743000Y-125927750D01*
X113997000Y-125927750D01*
X113997000Y-127127000D01*
X114796250Y-127127000D01*
X114955000Y-126968250D01*
X114955000Y-126277690D01*
X114858327Y-126044301D01*
X114679698Y-125865673D01*
X114446309Y-125769000D01*
X114155750Y-125769000D01*
X113997000Y-125927750D01*
X113743000Y-125927750D01*
X113584250Y-125769000D01*
X113293691Y-125769000D01*
X113060302Y-125865673D01*
X112881673Y-126044301D01*
X112785000Y-126277690D01*
X110719995Y-126277690D01*
X110839431Y-126102890D01*
X110890440Y-125851000D01*
X110890440Y-125101000D01*
X110852463Y-124899167D01*
X113364838Y-124899167D01*
X113506883Y-125242943D01*
X113769673Y-125506192D01*
X114113201Y-125648838D01*
X114485167Y-125649162D01*
X114828943Y-125507117D01*
X115092192Y-125244327D01*
X115143038Y-125121877D01*
X115334110Y-125252431D01*
X115586000Y-125303440D01*
X116086000Y-125303440D01*
X116321317Y-125259162D01*
X116537441Y-125120090D01*
X116576000Y-125063657D01*
X116576000Y-125806425D01*
X116368559Y-125939910D01*
X116223569Y-126152110D01*
X116172560Y-126404000D01*
X116172560Y-128104000D01*
X116216838Y-128339317D01*
X116355910Y-128555441D01*
X116568110Y-128700431D01*
X116820000Y-128751440D01*
X117720000Y-128751440D01*
X117955317Y-128707162D01*
X118171441Y-128568090D01*
X118316431Y-128355890D01*
X118367440Y-128104000D01*
X118367440Y-126404000D01*
X118323162Y-126168683D01*
X118184090Y-125952559D01*
X118096000Y-125892370D01*
X118096000Y-125034386D01*
X118182431Y-124907890D01*
X118233440Y-124656000D01*
X118233440Y-123756000D01*
X118189162Y-123520683D01*
X118096000Y-123375905D01*
X118096000Y-122416000D01*
X118038148Y-122125161D01*
X117873401Y-121878599D01*
X117775122Y-121780320D01*
X117775162Y-121734833D01*
X117633117Y-121391057D01*
X117370327Y-121127808D01*
X117026799Y-120985162D01*
X116654833Y-120984838D01*
X116311057Y-121126883D01*
X116047808Y-121389673D01*
X115905162Y-121733201D01*
X115904838Y-122105167D01*
X116046883Y-122448943D01*
X116309673Y-122712192D01*
X116576000Y-122822781D01*
X116576000Y-123344824D01*
X116550090Y-123304559D01*
X116337890Y-123159569D01*
X116086000Y-123108560D01*
X115586000Y-123108560D01*
X115350683Y-123152838D01*
X115134559Y-123291910D01*
X115029274Y-123446000D01*
X114554000Y-123446000D01*
X114263160Y-123503852D01*
X114016599Y-123668599D01*
X113762599Y-123922599D01*
X113749100Y-123942802D01*
X113507808Y-124183673D01*
X113365162Y-124527201D01*
X113364838Y-124899167D01*
X110852463Y-124899167D01*
X110846162Y-124865683D01*
X110803000Y-124798607D01*
X110803000Y-124775000D01*
X110745148Y-124484161D01*
X110580401Y-124237599D01*
X110288802Y-123946000D01*
X110496309Y-123946000D01*
X110729698Y-123849327D01*
X110908327Y-123670699D01*
X111005000Y-123437310D01*
X111005000Y-123221750D01*
X110846250Y-123063000D01*
X110097000Y-123063000D01*
X110097000Y-123083000D01*
X109843000Y-123083000D01*
X109843000Y-123063000D01*
X109823000Y-123063000D01*
X109823000Y-122809000D01*
X109843000Y-122809000D01*
X109843000Y-122789000D01*
X110097000Y-122789000D01*
X110097000Y-122809000D01*
X110846250Y-122809000D01*
X111005000Y-122650250D01*
X111005000Y-122434690D01*
X110968667Y-122346975D01*
X111183167Y-122347162D01*
X111526943Y-122205117D01*
X111790192Y-121942327D01*
X111884555Y-121715077D01*
X111867560Y-121799000D01*
X111867560Y-122549000D01*
X111911838Y-122784317D01*
X112050910Y-123000441D01*
X112263110Y-123145431D01*
X112515000Y-123196440D01*
X113315000Y-123196440D01*
X113550317Y-123152162D01*
X113653646Y-123085671D01*
X113655302Y-123087327D01*
X113888691Y-123184000D01*
X114129250Y-123184000D01*
X114288000Y-123025250D01*
X114288000Y-122301000D01*
X114542000Y-122301000D01*
X114542000Y-123025250D01*
X114700750Y-123184000D01*
X114941309Y-123184000D01*
X115174698Y-123087327D01*
X115353327Y-122908699D01*
X115450000Y-122675310D01*
X115450000Y-122459750D01*
X115291250Y-122301000D01*
X114542000Y-122301000D01*
X114288000Y-122301000D01*
X114268000Y-122301000D01*
X114268000Y-122047000D01*
X114288000Y-122047000D01*
X114288000Y-121322750D01*
X114542000Y-121322750D01*
X114542000Y-122047000D01*
X115291250Y-122047000D01*
X115450000Y-121888250D01*
X115450000Y-121672690D01*
X115353327Y-121439301D01*
X115174698Y-121260673D01*
X114941309Y-121164000D01*
X114700750Y-121164000D01*
X114542000Y-121322750D01*
X114288000Y-121322750D01*
X114129250Y-121164000D01*
X113888691Y-121164000D01*
X113655302Y-121260673D01*
X113653932Y-121262043D01*
X113566890Y-121202569D01*
X113475000Y-121183961D01*
X113475000Y-120572936D01*
X113555673Y-120767698D01*
X113734301Y-120946327D01*
X113967690Y-121043000D01*
X114258250Y-121043000D01*
X114417000Y-120884250D01*
X114417000Y-119635000D01*
X114397000Y-119635000D01*
X114397000Y-119381000D01*
X114417000Y-119381000D01*
X114417000Y-118131750D01*
X114258250Y-117973000D01*
X113967690Y-117973000D01*
X113734301Y-118069673D01*
X113555673Y-118248302D01*
X113475000Y-118443064D01*
X113475000Y-117795000D01*
X113417148Y-117504161D01*
X113252401Y-117257599D01*
X112551401Y-116556599D01*
X112304839Y-116391852D01*
X112014000Y-116334000D01*
X108766463Y-116334000D01*
X108734327Y-116301808D01*
X108390799Y-116159162D01*
X108018833Y-116158838D01*
X107675057Y-116300883D01*
X107641882Y-116334000D01*
X105664000Y-116334000D01*
X105373161Y-116391852D01*
X105126599Y-116556599D01*
X104706599Y-116976599D01*
X104591440Y-117148947D01*
X104591440Y-116658000D01*
X104571933Y-116554329D01*
X104591440Y-116458000D01*
X104591440Y-115958000D01*
X104571933Y-115854329D01*
X104591440Y-115758000D01*
X104591440Y-115258000D01*
X104571933Y-115154329D01*
X104591440Y-115058000D01*
X104591440Y-114558000D01*
X104571933Y-114454329D01*
X104591440Y-114358000D01*
X104591440Y-113858000D01*
X104571933Y-113754329D01*
X104591440Y-113658000D01*
X104591440Y-113158000D01*
X104571933Y-113054329D01*
X104591440Y-112958000D01*
X104591440Y-112458000D01*
X104571933Y-112354329D01*
X104591440Y-112258000D01*
X104591440Y-111758000D01*
X104572142Y-111655440D01*
X104794000Y-111655440D01*
X104897671Y-111635933D01*
X104994000Y-111655440D01*
X105494000Y-111655440D01*
X105597671Y-111635933D01*
X105694000Y-111655440D01*
X106194000Y-111655440D01*
X106297671Y-111635933D01*
X106394000Y-111655440D01*
X106894000Y-111655440D01*
X106997671Y-111635933D01*
X107094000Y-111655440D01*
X107594000Y-111655440D01*
X107697671Y-111635933D01*
X107794000Y-111655440D01*
X108294000Y-111655440D01*
X108397671Y-111635933D01*
X108494000Y-111655440D01*
X108994000Y-111655440D01*
X109097671Y-111635933D01*
X109194000Y-111655440D01*
X109694000Y-111655440D01*
X109797671Y-111635933D01*
X109894000Y-111655440D01*
X110394000Y-111655440D01*
X110497671Y-111635933D01*
X110594000Y-111655440D01*
X111094000Y-111655440D01*
X111197671Y-111635933D01*
X111294000Y-111655440D01*
X111707204Y-111655440D01*
X111696560Y-111708000D01*
X111696560Y-112908000D01*
X111740838Y-113143317D01*
X111879910Y-113359441D01*
X112092110Y-113504431D01*
X112344000Y-113555440D01*
X112844000Y-113555440D01*
X113079317Y-113511162D01*
X113295441Y-113372090D01*
X113296390Y-113370701D01*
X113492110Y-113504431D01*
X113744000Y-113555440D01*
X114244000Y-113555440D01*
X114479317Y-113511162D01*
X114695441Y-113372090D01*
X114840431Y-113159890D01*
X114891440Y-112908000D01*
X114891440Y-111708000D01*
X114879209Y-111643000D01*
X115120310Y-111643000D01*
X115189000Y-111614548D01*
X115189000Y-118001452D01*
X115189000Y-118001452D01*
G37*
X115189000Y-118001452D02*
X115120310Y-117973000D01*
X114829750Y-117973000D01*
X114671000Y-118131750D01*
X114671000Y-119381000D01*
X114691000Y-119381000D01*
X114691000Y-119635000D01*
X114671000Y-119635000D01*
X114671000Y-120884250D01*
X114829750Y-121043000D01*
X115120310Y-121043000D01*
X115353699Y-120946327D01*
X115396026Y-120904000D01*
X119686000Y-120904000D01*
X119686000Y-128969000D01*
X116197238Y-128969000D01*
X116197238Y-131318000D01*
X103315339Y-131318000D01*
X103251000Y-130994548D01*
X103251000Y-127539750D01*
X112785000Y-127539750D01*
X112785000Y-128230310D01*
X112881673Y-128463699D01*
X113060302Y-128642327D01*
X113293691Y-128739000D01*
X113584250Y-128739000D01*
X113743000Y-128580250D01*
X113743000Y-127381000D01*
X113997000Y-127381000D01*
X113997000Y-128580250D01*
X114155750Y-128739000D01*
X114446309Y-128739000D01*
X114679698Y-128642327D01*
X114858327Y-128463699D01*
X114955000Y-128230310D01*
X114955000Y-127539750D01*
X114796250Y-127381000D01*
X113997000Y-127381000D01*
X113743000Y-127381000D01*
X112943750Y-127381000D01*
X112785000Y-127539750D01*
X103251000Y-127539750D01*
X103251000Y-127000000D01*
X103240994Y-126950590D01*
X103212553Y-126908965D01*
X103170159Y-126881685D01*
X103124000Y-126873000D01*
X99314000Y-126873000D01*
X99314000Y-123336750D01*
X102241000Y-123336750D01*
X102241000Y-123577309D01*
X102337673Y-123810698D01*
X102516301Y-123989327D01*
X102749690Y-124086000D01*
X102965250Y-124086000D01*
X103124000Y-123927250D01*
X103124000Y-123178000D01*
X103378000Y-123178000D01*
X103378000Y-123927250D01*
X103536750Y-124086000D01*
X103752310Y-124086000D01*
X103985699Y-123989327D01*
X104164327Y-123810698D01*
X104261000Y-123577309D01*
X104261000Y-123336750D01*
X104102250Y-123178000D01*
X103378000Y-123178000D01*
X103124000Y-123178000D01*
X102399750Y-123178000D01*
X102241000Y-123336750D01*
X99314000Y-123336750D01*
X99314000Y-123014624D01*
X99447690Y-123070000D01*
X99663250Y-123070000D01*
X99822000Y-122911250D01*
X99822000Y-122162000D01*
X100076000Y-122162000D01*
X100076000Y-122911250D01*
X100234750Y-123070000D01*
X100450310Y-123070000D01*
X100683699Y-122973327D01*
X100862327Y-122794698D01*
X100959000Y-122561309D01*
X100959000Y-122320750D01*
X100800250Y-122162000D01*
X100076000Y-122162000D01*
X99822000Y-122162000D01*
X99802000Y-122162000D01*
X99802000Y-121908000D01*
X99822000Y-121908000D01*
X99822000Y-121888000D01*
X100076000Y-121888000D01*
X100076000Y-121908000D01*
X100800250Y-121908000D01*
X100959000Y-121749250D01*
X100959000Y-121508691D01*
X100862327Y-121275302D01*
X100860957Y-121273932D01*
X100920431Y-121186890D01*
X100971440Y-120935000D01*
X100971440Y-120135000D01*
X100927162Y-119899683D01*
X100788090Y-119683559D01*
X100739721Y-119650510D01*
X100900441Y-119547090D01*
X101045431Y-119334890D01*
X101053914Y-119293000D01*
X101509000Y-119293000D01*
X101509000Y-119384309D01*
X101605673Y-119617698D01*
X101784301Y-119796327D01*
X102017690Y-119893000D01*
X102758250Y-119893000D01*
X102917000Y-119734250D01*
X102917000Y-119205440D01*
X103171000Y-119205440D01*
X103171000Y-119734250D01*
X103329750Y-119893000D01*
X104070310Y-119893000D01*
X104303699Y-119796327D01*
X104346560Y-119753466D01*
X104346560Y-120408000D01*
X104380994Y-120591000D01*
X103931209Y-120591000D01*
X103877890Y-120554569D01*
X103626000Y-120503560D01*
X102876000Y-120503560D01*
X102640683Y-120547838D01*
X102424559Y-120686910D01*
X102279569Y-120899110D01*
X102228560Y-121151000D01*
X102228560Y-121951000D01*
X102272838Y-122186317D01*
X102339329Y-122289646D01*
X102337673Y-122291302D01*
X102241000Y-122524691D01*
X102241000Y-122765250D01*
X102399750Y-122924000D01*
X103124000Y-122924000D01*
X103124000Y-122904000D01*
X103378000Y-122904000D01*
X103378000Y-122924000D01*
X104102250Y-122924000D01*
X104261000Y-122765250D01*
X104261000Y-122524691D01*
X104164327Y-122291302D01*
X104162957Y-122289932D01*
X104222431Y-122202890D01*
X104241039Y-122111000D01*
X104836000Y-122111000D01*
X105126839Y-122053148D01*
X105184000Y-122014954D01*
X105184000Y-122786426D01*
X105091559Y-122845910D01*
X104946569Y-123058110D01*
X104895560Y-123310000D01*
X104895560Y-124110000D01*
X104939838Y-124345317D01*
X105013620Y-124459978D01*
X104946569Y-124558110D01*
X104895560Y-124810000D01*
X104895560Y-125610000D01*
X104939838Y-125845317D01*
X105078910Y-126061441D01*
X105291110Y-126206431D01*
X105543000Y-126257440D01*
X106293000Y-126257440D01*
X106406944Y-126236000D01*
X107436156Y-126236000D01*
X107478910Y-126302441D01*
X107691110Y-126447431D01*
X107943000Y-126498440D01*
X108743000Y-126498440D01*
X108978317Y-126454162D01*
X109092978Y-126380380D01*
X109191110Y-126447431D01*
X109443000Y-126498440D01*
X110243000Y-126498440D01*
X110478317Y-126454162D01*
X110694441Y-126315090D01*
X110719995Y-126277690D01*
X112785000Y-126277690D01*
X112785000Y-126968250D01*
X112943750Y-127127000D01*
X113743000Y-127127000D01*
X113743000Y-125927750D01*
X113997000Y-125927750D01*
X113997000Y-127127000D01*
X114796250Y-127127000D01*
X114955000Y-126968250D01*
X114955000Y-126277690D01*
X114858327Y-126044301D01*
X114679698Y-125865673D01*
X114446309Y-125769000D01*
X114155750Y-125769000D01*
X113997000Y-125927750D01*
X113743000Y-125927750D01*
X113584250Y-125769000D01*
X113293691Y-125769000D01*
X113060302Y-125865673D01*
X112881673Y-126044301D01*
X112785000Y-126277690D01*
X110719995Y-126277690D01*
X110839431Y-126102890D01*
X110890440Y-125851000D01*
X110890440Y-125101000D01*
X110852463Y-124899167D01*
X113364838Y-124899167D01*
X113506883Y-125242943D01*
X113769673Y-125506192D01*
X114113201Y-125648838D01*
X114485167Y-125649162D01*
X114828943Y-125507117D01*
X115092192Y-125244327D01*
X115143038Y-125121877D01*
X115334110Y-125252431D01*
X115586000Y-125303440D01*
X116086000Y-125303440D01*
X116321317Y-125259162D01*
X116537441Y-125120090D01*
X116576000Y-125063657D01*
X116576000Y-125806425D01*
X116368559Y-125939910D01*
X116223569Y-126152110D01*
X116172560Y-126404000D01*
X116172560Y-128104000D01*
X116216838Y-128339317D01*
X116355910Y-128555441D01*
X116568110Y-128700431D01*
X116820000Y-128751440D01*
X117720000Y-128751440D01*
X117955317Y-128707162D01*
X118171441Y-128568090D01*
X118316431Y-128355890D01*
X118367440Y-128104000D01*
X118367440Y-126404000D01*
X118323162Y-126168683D01*
X118184090Y-125952559D01*
X118096000Y-125892370D01*
X118096000Y-125034386D01*
X118182431Y-124907890D01*
X118233440Y-124656000D01*
X118233440Y-123756000D01*
X118189162Y-123520683D01*
X118096000Y-123375905D01*
X118096000Y-122416000D01*
X118038148Y-122125161D01*
X117873401Y-121878599D01*
X117775122Y-121780320D01*
X117775162Y-121734833D01*
X117633117Y-121391057D01*
X117370327Y-121127808D01*
X117026799Y-120985162D01*
X116654833Y-120984838D01*
X116311057Y-121126883D01*
X116047808Y-121389673D01*
X115905162Y-121733201D01*
X115904838Y-122105167D01*
X116046883Y-122448943D01*
X116309673Y-122712192D01*
X116576000Y-122822781D01*
X116576000Y-123344824D01*
X116550090Y-123304559D01*
X116337890Y-123159569D01*
X116086000Y-123108560D01*
X115586000Y-123108560D01*
X115350683Y-123152838D01*
X115134559Y-123291910D01*
X115029274Y-123446000D01*
X114554000Y-123446000D01*
X114263160Y-123503852D01*
X114016599Y-123668599D01*
X113762599Y-123922599D01*
X113749100Y-123942802D01*
X113507808Y-124183673D01*
X113365162Y-124527201D01*
X113364838Y-124899167D01*
X110852463Y-124899167D01*
X110846162Y-124865683D01*
X110803000Y-124798607D01*
X110803000Y-124775000D01*
X110745148Y-124484161D01*
X110580401Y-124237599D01*
X110288802Y-123946000D01*
X110496309Y-123946000D01*
X110729698Y-123849327D01*
X110908327Y-123670699D01*
X111005000Y-123437310D01*
X111005000Y-123221750D01*
X110846250Y-123063000D01*
X110097000Y-123063000D01*
X110097000Y-123083000D01*
X109843000Y-123083000D01*
X109843000Y-123063000D01*
X109823000Y-123063000D01*
X109823000Y-122809000D01*
X109843000Y-122809000D01*
X109843000Y-122789000D01*
X110097000Y-122789000D01*
X110097000Y-122809000D01*
X110846250Y-122809000D01*
X111005000Y-122650250D01*
X111005000Y-122434690D01*
X110968667Y-122346975D01*
X111183167Y-122347162D01*
X111526943Y-122205117D01*
X111790192Y-121942327D01*
X111884555Y-121715077D01*
X111867560Y-121799000D01*
X111867560Y-122549000D01*
X111911838Y-122784317D01*
X112050910Y-123000441D01*
X112263110Y-123145431D01*
X112515000Y-123196440D01*
X113315000Y-123196440D01*
X113550317Y-123152162D01*
X113653646Y-123085671D01*
X113655302Y-123087327D01*
X113888691Y-123184000D01*
X114129250Y-123184000D01*
X114288000Y-123025250D01*
X114288000Y-122301000D01*
X114542000Y-122301000D01*
X114542000Y-123025250D01*
X114700750Y-123184000D01*
X114941309Y-123184000D01*
X115174698Y-123087327D01*
X115353327Y-122908699D01*
X115450000Y-122675310D01*
X115450000Y-122459750D01*
X115291250Y-122301000D01*
X114542000Y-122301000D01*
X114288000Y-122301000D01*
X114268000Y-122301000D01*
X114268000Y-122047000D01*
X114288000Y-122047000D01*
X114288000Y-121322750D01*
X114542000Y-121322750D01*
X114542000Y-122047000D01*
X115291250Y-122047000D01*
X115450000Y-121888250D01*
X115450000Y-121672690D01*
X115353327Y-121439301D01*
X115174698Y-121260673D01*
X114941309Y-121164000D01*
X114700750Y-121164000D01*
X114542000Y-121322750D01*
X114288000Y-121322750D01*
X114129250Y-121164000D01*
X113888691Y-121164000D01*
X113655302Y-121260673D01*
X113653932Y-121262043D01*
X113566890Y-121202569D01*
X113475000Y-121183961D01*
X113475000Y-120572936D01*
X113555673Y-120767698D01*
X113734301Y-120946327D01*
X113967690Y-121043000D01*
X114258250Y-121043000D01*
X114417000Y-120884250D01*
X114417000Y-119635000D01*
X114397000Y-119635000D01*
X114397000Y-119381000D01*
X114417000Y-119381000D01*
X114417000Y-118131750D01*
X114258250Y-117973000D01*
X113967690Y-117973000D01*
X113734301Y-118069673D01*
X113555673Y-118248302D01*
X113475000Y-118443064D01*
X113475000Y-117795000D01*
X113417148Y-117504161D01*
X113252401Y-117257599D01*
X112551401Y-116556599D01*
X112304839Y-116391852D01*
X112014000Y-116334000D01*
X108766463Y-116334000D01*
X108734327Y-116301808D01*
X108390799Y-116159162D01*
X108018833Y-116158838D01*
X107675057Y-116300883D01*
X107641882Y-116334000D01*
X105664000Y-116334000D01*
X105373161Y-116391852D01*
X105126599Y-116556599D01*
X104706599Y-116976599D01*
X104591440Y-117148947D01*
X104591440Y-116658000D01*
X104571933Y-116554329D01*
X104591440Y-116458000D01*
X104591440Y-115958000D01*
X104571933Y-115854329D01*
X104591440Y-115758000D01*
X104591440Y-115258000D01*
X104571933Y-115154329D01*
X104591440Y-115058000D01*
X104591440Y-114558000D01*
X104571933Y-114454329D01*
X104591440Y-114358000D01*
X104591440Y-113858000D01*
X104571933Y-113754329D01*
X104591440Y-113658000D01*
X104591440Y-113158000D01*
X104571933Y-113054329D01*
X104591440Y-112958000D01*
X104591440Y-112458000D01*
X104571933Y-112354329D01*
X104591440Y-112258000D01*
X104591440Y-111758000D01*
X104572142Y-111655440D01*
X104794000Y-111655440D01*
X104897671Y-111635933D01*
X104994000Y-111655440D01*
X105494000Y-111655440D01*
X105597671Y-111635933D01*
X105694000Y-111655440D01*
X106194000Y-111655440D01*
X106297671Y-111635933D01*
X106394000Y-111655440D01*
X106894000Y-111655440D01*
X106997671Y-111635933D01*
X107094000Y-111655440D01*
X107594000Y-111655440D01*
X107697671Y-111635933D01*
X107794000Y-111655440D01*
X108294000Y-111655440D01*
X108397671Y-111635933D01*
X108494000Y-111655440D01*
X108994000Y-111655440D01*
X109097671Y-111635933D01*
X109194000Y-111655440D01*
X109694000Y-111655440D01*
X109797671Y-111635933D01*
X109894000Y-111655440D01*
X110394000Y-111655440D01*
X110497671Y-111635933D01*
X110594000Y-111655440D01*
X111094000Y-111655440D01*
X111197671Y-111635933D01*
X111294000Y-111655440D01*
X111707204Y-111655440D01*
X111696560Y-111708000D01*
X111696560Y-112908000D01*
X111740838Y-113143317D01*
X111879910Y-113359441D01*
X112092110Y-113504431D01*
X112344000Y-113555440D01*
X112844000Y-113555440D01*
X113079317Y-113511162D01*
X113295441Y-113372090D01*
X113296390Y-113370701D01*
X113492110Y-113504431D01*
X113744000Y-113555440D01*
X114244000Y-113555440D01*
X114479317Y-113511162D01*
X114695441Y-113372090D01*
X114840431Y-113159890D01*
X114891440Y-112908000D01*
X114891440Y-111708000D01*
X114879209Y-111643000D01*
X115120310Y-111643000D01*
X115189000Y-111614548D01*
X115189000Y-118001452D01*
G36*
X115186010Y-98103374D02*
X114868489Y-98420341D01*
X114696436Y-98834691D01*
X114696323Y-98964831D01*
X114627767Y-98798914D01*
X114308765Y-98479355D01*
X113891756Y-98306197D01*
X113440225Y-98305803D01*
X113022914Y-98478233D01*
X112703355Y-98797235D01*
X112530197Y-99214244D01*
X112529803Y-99665775D01*
X112550778Y-99716538D01*
X112358161Y-99754852D01*
X112111599Y-99919599D01*
X111006599Y-101024599D01*
X110841852Y-101271161D01*
X110784000Y-101562000D01*
X110784000Y-108003920D01*
X110648117Y-107675057D01*
X110385327Y-107411808D01*
X110041799Y-107269162D01*
X109994923Y-107269121D01*
X109630401Y-106904599D01*
X109573889Y-106866839D01*
X109553162Y-106756683D01*
X109460000Y-106611905D01*
X109460000Y-105476442D01*
X109504192Y-105432327D01*
X109646838Y-105088799D01*
X109647008Y-104894152D01*
X109698775Y-104894197D01*
X110116086Y-104721767D01*
X110435645Y-104402765D01*
X110608803Y-103985756D01*
X110609197Y-103534225D01*
X110436767Y-103116914D01*
X110117765Y-102797355D01*
X109889045Y-102702382D01*
X109922148Y-102652839D01*
X109935212Y-102587164D01*
X110046441Y-102515590D01*
X110191431Y-102303390D01*
X110242440Y-102051500D01*
X110242440Y-101251500D01*
X110198162Y-101016183D01*
X110131671Y-100912854D01*
X110133327Y-100911198D01*
X110230000Y-100677809D01*
X110230000Y-100437250D01*
X110071250Y-100278500D01*
X109347000Y-100278500D01*
X109347000Y-100298500D01*
X109093000Y-100298500D01*
X109093000Y-100278500D01*
X108368750Y-100278500D01*
X108210000Y-100437250D01*
X108210000Y-100677809D01*
X108298514Y-100891500D01*
X106628500Y-100891500D01*
X106337661Y-100949352D01*
X106109206Y-101102000D01*
X104184620Y-101102000D01*
X104167890Y-101090569D01*
X103916000Y-101039560D01*
X103326179Y-101039560D01*
X103217890Y-100965569D01*
X102966000Y-100914560D01*
X102266000Y-100914560D01*
X102030683Y-100958838D01*
X101814559Y-101097910D01*
X101669569Y-101310110D01*
X101618560Y-101562000D01*
X101618560Y-102009000D01*
X101489000Y-102009000D01*
X101489000Y-101949500D01*
X100839750Y-101949500D01*
X100681000Y-102108250D01*
X100681000Y-102163310D01*
X100682217Y-102166249D01*
X100674160Y-102167852D01*
X100427599Y-102332599D01*
X100046599Y-102713599D01*
X99881852Y-102960161D01*
X99824000Y-103251000D01*
X99824000Y-103759000D01*
X99881852Y-104049839D01*
X100046599Y-104296401D01*
X100554599Y-104804401D01*
X100801161Y-104969148D01*
X101092000Y-105027000D01*
X103444198Y-105027000D01*
X104638000Y-106220802D01*
X104638000Y-106580824D01*
X104612090Y-106540559D01*
X104399890Y-106395569D01*
X104148000Y-106344560D01*
X103648000Y-106344560D01*
X103412683Y-106388838D01*
X103196559Y-106527910D01*
X103091274Y-106682000D01*
X103015547Y-106682000D01*
X102901117Y-106405057D01*
X102638327Y-106141808D01*
X102294799Y-105999162D01*
X101922833Y-105998838D01*
X101579057Y-106140883D01*
X101315808Y-106403673D01*
X101173162Y-106747201D01*
X101172838Y-107119167D01*
X101314883Y-107462943D01*
X101577673Y-107726192D01*
X101921201Y-107868838D01*
X101968077Y-107868879D01*
X102078599Y-107979401D01*
X102325161Y-108144148D01*
X102616000Y-108202000D01*
X103092895Y-108202000D01*
X103183910Y-108343441D01*
X103396110Y-108488431D01*
X103648000Y-108539440D01*
X104148000Y-108539440D01*
X104383317Y-108495162D01*
X104599441Y-108356090D01*
X104647134Y-108286289D01*
X104683910Y-108343441D01*
X104846787Y-108454730D01*
X104860599Y-108475401D01*
X104953398Y-108568200D01*
X104890329Y-108580067D01*
X104794000Y-108560560D01*
X104294000Y-108560560D01*
X104058683Y-108604838D01*
X103842559Y-108743910D01*
X103697569Y-108956110D01*
X103646560Y-109208000D01*
X103646560Y-109723000D01*
X103329750Y-109723000D01*
X103171000Y-109881750D01*
X103171000Y-110410560D01*
X102917000Y-110410560D01*
X102917000Y-109881750D01*
X102758250Y-109723000D01*
X102017690Y-109723000D01*
X101784301Y-109819673D01*
X101605673Y-109998302D01*
X101509000Y-110231691D01*
X101509000Y-110324250D01*
X101667750Y-110483000D01*
X101864918Y-110483000D01*
X101692559Y-110593910D01*
X101547569Y-110806110D01*
X101535616Y-110865134D01*
X101509000Y-110891750D01*
X101509000Y-110984309D01*
X101510668Y-110988335D01*
X101496560Y-111058000D01*
X101496560Y-111558000D01*
X101516067Y-111661671D01*
X101496560Y-111758000D01*
X101496560Y-112258000D01*
X101516067Y-112361671D01*
X101496560Y-112458000D01*
X101496560Y-112958000D01*
X101516067Y-113061671D01*
X101496560Y-113158000D01*
X101496560Y-113658000D01*
X101516067Y-113761671D01*
X101496560Y-113858000D01*
X101496560Y-114358000D01*
X101516067Y-114461671D01*
X101496560Y-114558000D01*
X101496560Y-115058000D01*
X101516067Y-115161671D01*
X101496560Y-115258000D01*
X101496560Y-115758000D01*
X101516067Y-115861671D01*
X101496560Y-115958000D01*
X101496560Y-116458000D01*
X101516067Y-116561671D01*
X101496560Y-116658000D01*
X101496560Y-116673000D01*
X101056926Y-116673000D01*
X101052162Y-116647683D01*
X100913090Y-116431559D01*
X100743470Y-116315663D01*
X100775441Y-116295090D01*
X100920431Y-116082890D01*
X100971440Y-115831000D01*
X100971440Y-115031000D01*
X100927162Y-114795683D01*
X100860671Y-114692354D01*
X100862327Y-114690698D01*
X100959000Y-114457309D01*
X100959000Y-114216750D01*
X100800250Y-114058000D01*
X100076000Y-114058000D01*
X100076000Y-114078000D01*
X99822000Y-114078000D01*
X99822000Y-114058000D01*
X99802000Y-114058000D01*
X99802000Y-113804000D01*
X99822000Y-113804000D01*
X99822000Y-113054750D01*
X100076000Y-113054750D01*
X100076000Y-113804000D01*
X100800250Y-113804000D01*
X100959000Y-113645250D01*
X100959000Y-113404691D01*
X100862327Y-113171302D01*
X100683699Y-112992673D01*
X100450310Y-112896000D01*
X100234750Y-112896000D01*
X100076000Y-113054750D01*
X99822000Y-113054750D01*
X99663250Y-112896000D01*
X99447690Y-112896000D01*
X99314000Y-112951376D01*
X99314000Y-101560690D01*
X100681000Y-101560690D01*
X100681000Y-101615750D01*
X100839750Y-101774500D01*
X101489000Y-101774500D01*
X101489000Y-101210750D01*
X101330250Y-101052000D01*
X101189691Y-101052000D01*
X100956302Y-101148673D01*
X100777673Y-101327301D01*
X100681000Y-101560690D01*
X99314000Y-101560690D01*
X99314000Y-99625191D01*
X108210000Y-99625191D01*
X108210000Y-99865750D01*
X108368750Y-100024500D01*
X109093000Y-100024500D01*
X109093000Y-99275250D01*
X109347000Y-99275250D01*
X109347000Y-100024500D01*
X110071250Y-100024500D01*
X110230000Y-99865750D01*
X110230000Y-99625191D01*
X110133327Y-99391802D01*
X109954699Y-99213173D01*
X109721310Y-99116500D01*
X109505750Y-99116500D01*
X109347000Y-99275250D01*
X109093000Y-99275250D01*
X108934250Y-99116500D01*
X108718690Y-99116500D01*
X108485301Y-99213173D01*
X108306673Y-99391802D01*
X108210000Y-99625191D01*
X99314000Y-99625191D01*
X99314000Y-98044000D01*
X115329706Y-98044000D01*
X115186010Y-98103374D01*
X115186010Y-98103374D01*
G37*
X115186010Y-98103374D02*
X114868489Y-98420341D01*
X114696436Y-98834691D01*
X114696323Y-98964831D01*
X114627767Y-98798914D01*
X114308765Y-98479355D01*
X113891756Y-98306197D01*
X113440225Y-98305803D01*
X113022914Y-98478233D01*
X112703355Y-98797235D01*
X112530197Y-99214244D01*
X112529803Y-99665775D01*
X112550778Y-99716538D01*
X112358161Y-99754852D01*
X112111599Y-99919599D01*
X111006599Y-101024599D01*
X110841852Y-101271161D01*
X110784000Y-101562000D01*
X110784000Y-108003920D01*
X110648117Y-107675057D01*
X110385327Y-107411808D01*
X110041799Y-107269162D01*
X109994923Y-107269121D01*
X109630401Y-106904599D01*
X109573889Y-106866839D01*
X109553162Y-106756683D01*
X109460000Y-106611905D01*
X109460000Y-105476442D01*
X109504192Y-105432327D01*
X109646838Y-105088799D01*
X109647008Y-104894152D01*
X109698775Y-104894197D01*
X110116086Y-104721767D01*
X110435645Y-104402765D01*
X110608803Y-103985756D01*
X110609197Y-103534225D01*
X110436767Y-103116914D01*
X110117765Y-102797355D01*
X109889045Y-102702382D01*
X109922148Y-102652839D01*
X109935212Y-102587164D01*
X110046441Y-102515590D01*
X110191431Y-102303390D01*
X110242440Y-102051500D01*
X110242440Y-101251500D01*
X110198162Y-101016183D01*
X110131671Y-100912854D01*
X110133327Y-100911198D01*
X110230000Y-100677809D01*
X110230000Y-100437250D01*
X110071250Y-100278500D01*
X109347000Y-100278500D01*
X109347000Y-100298500D01*
X109093000Y-100298500D01*
X109093000Y-100278500D01*
X108368750Y-100278500D01*
X108210000Y-100437250D01*
X108210000Y-100677809D01*
X108298514Y-100891500D01*
X106628500Y-100891500D01*
X106337661Y-100949352D01*
X106109206Y-101102000D01*
X104184620Y-101102000D01*
X104167890Y-101090569D01*
X103916000Y-101039560D01*
X103326179Y-101039560D01*
X103217890Y-100965569D01*
X102966000Y-100914560D01*
X102266000Y-100914560D01*
X102030683Y-100958838D01*
X101814559Y-101097910D01*
X101669569Y-101310110D01*
X101618560Y-101562000D01*
X101618560Y-102009000D01*
X101489000Y-102009000D01*
X101489000Y-101949500D01*
X100839750Y-101949500D01*
X100681000Y-102108250D01*
X100681000Y-102163310D01*
X100682217Y-102166249D01*
X100674160Y-102167852D01*
X100427599Y-102332599D01*
X100046599Y-102713599D01*
X99881852Y-102960161D01*
X99824000Y-103251000D01*
X99824000Y-103759000D01*
X99881852Y-104049839D01*
X100046599Y-104296401D01*
X100554599Y-104804401D01*
X100801161Y-104969148D01*
X101092000Y-105027000D01*
X103444198Y-105027000D01*
X104638000Y-106220802D01*
X104638000Y-106580824D01*
X104612090Y-106540559D01*
X104399890Y-106395569D01*
X104148000Y-106344560D01*
X103648000Y-106344560D01*
X103412683Y-106388838D01*
X103196559Y-106527910D01*
X103091274Y-106682000D01*
X103015547Y-106682000D01*
X102901117Y-106405057D01*
X102638327Y-106141808D01*
X102294799Y-105999162D01*
X101922833Y-105998838D01*
X101579057Y-106140883D01*
X101315808Y-106403673D01*
X101173162Y-106747201D01*
X101172838Y-107119167D01*
X101314883Y-107462943D01*
X101577673Y-107726192D01*
X101921201Y-107868838D01*
X101968077Y-107868879D01*
X102078599Y-107979401D01*
X102325161Y-108144148D01*
X102616000Y-108202000D01*
X103092895Y-108202000D01*
X103183910Y-108343441D01*
X103396110Y-108488431D01*
X103648000Y-108539440D01*
X104148000Y-108539440D01*
X104383317Y-108495162D01*
X104599441Y-108356090D01*
X104647134Y-108286289D01*
X104683910Y-108343441D01*
X104846787Y-108454730D01*
X104860599Y-108475401D01*
X104953398Y-108568200D01*
X104890329Y-108580067D01*
X104794000Y-108560560D01*
X104294000Y-108560560D01*
X104058683Y-108604838D01*
X103842559Y-108743910D01*
X103697569Y-108956110D01*
X103646560Y-109208000D01*
X103646560Y-109723000D01*
X103329750Y-109723000D01*
X103171000Y-109881750D01*
X103171000Y-110410560D01*
X102917000Y-110410560D01*
X102917000Y-109881750D01*
X102758250Y-109723000D01*
X102017690Y-109723000D01*
X101784301Y-109819673D01*
X101605673Y-109998302D01*
X101509000Y-110231691D01*
X101509000Y-110324250D01*
X101667750Y-110483000D01*
X101864918Y-110483000D01*
X101692559Y-110593910D01*
X101547569Y-110806110D01*
X101535616Y-110865134D01*
X101509000Y-110891750D01*
X101509000Y-110984309D01*
X101510668Y-110988335D01*
X101496560Y-111058000D01*
X101496560Y-111558000D01*
X101516067Y-111661671D01*
X101496560Y-111758000D01*
X101496560Y-112258000D01*
X101516067Y-112361671D01*
X101496560Y-112458000D01*
X101496560Y-112958000D01*
X101516067Y-113061671D01*
X101496560Y-113158000D01*
X101496560Y-113658000D01*
X101516067Y-113761671D01*
X101496560Y-113858000D01*
X101496560Y-114358000D01*
X101516067Y-114461671D01*
X101496560Y-114558000D01*
X101496560Y-115058000D01*
X101516067Y-115161671D01*
X101496560Y-115258000D01*
X101496560Y-115758000D01*
X101516067Y-115861671D01*
X101496560Y-115958000D01*
X101496560Y-116458000D01*
X101516067Y-116561671D01*
X101496560Y-116658000D01*
X101496560Y-116673000D01*
X101056926Y-116673000D01*
X101052162Y-116647683D01*
X100913090Y-116431559D01*
X100743470Y-116315663D01*
X100775441Y-116295090D01*
X100920431Y-116082890D01*
X100971440Y-115831000D01*
X100971440Y-115031000D01*
X100927162Y-114795683D01*
X100860671Y-114692354D01*
X100862327Y-114690698D01*
X100959000Y-114457309D01*
X100959000Y-114216750D01*
X100800250Y-114058000D01*
X100076000Y-114058000D01*
X100076000Y-114078000D01*
X99822000Y-114078000D01*
X99822000Y-114058000D01*
X99802000Y-114058000D01*
X99802000Y-113804000D01*
X99822000Y-113804000D01*
X99822000Y-113054750D01*
X100076000Y-113054750D01*
X100076000Y-113804000D01*
X100800250Y-113804000D01*
X100959000Y-113645250D01*
X100959000Y-113404691D01*
X100862327Y-113171302D01*
X100683699Y-112992673D01*
X100450310Y-112896000D01*
X100234750Y-112896000D01*
X100076000Y-113054750D01*
X99822000Y-113054750D01*
X99663250Y-112896000D01*
X99447690Y-112896000D01*
X99314000Y-112951376D01*
X99314000Y-101560690D01*
X100681000Y-101560690D01*
X100681000Y-101615750D01*
X100839750Y-101774500D01*
X101489000Y-101774500D01*
X101489000Y-101210750D01*
X101330250Y-101052000D01*
X101189691Y-101052000D01*
X100956302Y-101148673D01*
X100777673Y-101327301D01*
X100681000Y-101560690D01*
X99314000Y-101560690D01*
X99314000Y-99625191D01*
X108210000Y-99625191D01*
X108210000Y-99865750D01*
X108368750Y-100024500D01*
X109093000Y-100024500D01*
X109093000Y-99275250D01*
X109347000Y-99275250D01*
X109347000Y-100024500D01*
X110071250Y-100024500D01*
X110230000Y-99865750D01*
X110230000Y-99625191D01*
X110133327Y-99391802D01*
X109954699Y-99213173D01*
X109721310Y-99116500D01*
X109505750Y-99116500D01*
X109347000Y-99275250D01*
X109093000Y-99275250D01*
X108934250Y-99116500D01*
X108718690Y-99116500D01*
X108485301Y-99213173D01*
X108306673Y-99391802D01*
X108210000Y-99625191D01*
X99314000Y-99625191D01*
X99314000Y-98044000D01*
X115329706Y-98044000D01*
X115186010Y-98103374D01*
G36*
X119686000Y-108839000D02*
X115523025Y-108839000D01*
X115353699Y-108669673D01*
X115120310Y-108573000D01*
X114829750Y-108573000D01*
X114671000Y-108731750D01*
X114671000Y-109981000D01*
X114691000Y-109981000D01*
X114691000Y-110235000D01*
X114671000Y-110235000D01*
X114671000Y-110255000D01*
X114541440Y-110255000D01*
X114541440Y-109208000D01*
X114497162Y-108972683D01*
X114417000Y-108848108D01*
X114417000Y-108731750D01*
X114266357Y-108581107D01*
X114466952Y-108498017D01*
X114504099Y-108282904D01*
X113893600Y-107672405D01*
X113879458Y-107686548D01*
X113704000Y-107511090D01*
X113704000Y-107502795D01*
X113713995Y-107492800D01*
X114073205Y-107492800D01*
X114683704Y-108103299D01*
X114898817Y-108066152D01*
X115041712Y-107637828D01*
X115009817Y-107187425D01*
X114898817Y-106919448D01*
X114683704Y-106882301D01*
X114073205Y-107492800D01*
X113713995Y-107492800D01*
X113704000Y-107482805D01*
X113704000Y-107474510D01*
X113879458Y-107299053D01*
X113893600Y-107313195D01*
X114232055Y-106974740D01*
X114459486Y-106880767D01*
X114779045Y-106561765D01*
X114952203Y-106144756D01*
X114952597Y-105693225D01*
X114780167Y-105275914D01*
X114461165Y-104956355D01*
X114170954Y-104835848D01*
X114439680Y-104567122D01*
X114485167Y-104567162D01*
X114828943Y-104425117D01*
X114890574Y-104363593D01*
X115710774Y-104363593D01*
X115882297Y-104778709D01*
X116199621Y-105096587D01*
X116614437Y-105268834D01*
X117063593Y-105269226D01*
X117478709Y-105097703D01*
X117796587Y-104780379D01*
X117968834Y-104365563D01*
X117969226Y-103916407D01*
X117797703Y-103501291D01*
X117480379Y-103183413D01*
X117065563Y-103011166D01*
X116616407Y-103010774D01*
X116201291Y-103182297D01*
X115883413Y-103499621D01*
X115711166Y-103914437D01*
X115710774Y-104363593D01*
X114890574Y-104363593D01*
X115092192Y-104162327D01*
X115234838Y-103818799D01*
X115235162Y-103446833D01*
X115093117Y-103103057D01*
X114830327Y-102839808D01*
X114750341Y-102806595D01*
X114828943Y-102774117D01*
X115092192Y-102511327D01*
X115234838Y-102167799D01*
X115235162Y-101795833D01*
X115093117Y-101452057D01*
X114858470Y-101217000D01*
X117287198Y-101217000D01*
X117809878Y-101739680D01*
X117809838Y-101785167D01*
X117951883Y-102128943D01*
X118214673Y-102392192D01*
X118558201Y-102534838D01*
X118930167Y-102535162D01*
X119273943Y-102393117D01*
X119537192Y-102130327D01*
X119679838Y-101786799D01*
X119680162Y-101414833D01*
X119538117Y-101071057D01*
X119275327Y-100807808D01*
X118931799Y-100665162D01*
X118884923Y-100665121D01*
X118311734Y-100091932D01*
X118493990Y-100016626D01*
X118811511Y-99699659D01*
X118983564Y-99285309D01*
X118983955Y-98836659D01*
X118812626Y-98422010D01*
X118495659Y-98104489D01*
X118349985Y-98044000D01*
X119686000Y-98044000D01*
X119686000Y-108839000D01*
X119686000Y-108839000D01*
G37*
X119686000Y-108839000D02*
X115523025Y-108839000D01*
X115353699Y-108669673D01*
X115120310Y-108573000D01*
X114829750Y-108573000D01*
X114671000Y-108731750D01*
X114671000Y-109981000D01*
X114691000Y-109981000D01*
X114691000Y-110235000D01*
X114671000Y-110235000D01*
X114671000Y-110255000D01*
X114541440Y-110255000D01*
X114541440Y-109208000D01*
X114497162Y-108972683D01*
X114417000Y-108848108D01*
X114417000Y-108731750D01*
X114266357Y-108581107D01*
X114466952Y-108498017D01*
X114504099Y-108282904D01*
X113893600Y-107672405D01*
X113879458Y-107686548D01*
X113704000Y-107511090D01*
X113704000Y-107502795D01*
X113713995Y-107492800D01*
X114073205Y-107492800D01*
X114683704Y-108103299D01*
X114898817Y-108066152D01*
X115041712Y-107637828D01*
X115009817Y-107187425D01*
X114898817Y-106919448D01*
X114683704Y-106882301D01*
X114073205Y-107492800D01*
X113713995Y-107492800D01*
X113704000Y-107482805D01*
X113704000Y-107474510D01*
X113879458Y-107299053D01*
X113893600Y-107313195D01*
X114232055Y-106974740D01*
X114459486Y-106880767D01*
X114779045Y-106561765D01*
X114952203Y-106144756D01*
X114952597Y-105693225D01*
X114780167Y-105275914D01*
X114461165Y-104956355D01*
X114170954Y-104835848D01*
X114439680Y-104567122D01*
X114485167Y-104567162D01*
X114828943Y-104425117D01*
X114890574Y-104363593D01*
X115710774Y-104363593D01*
X115882297Y-104778709D01*
X116199621Y-105096587D01*
X116614437Y-105268834D01*
X117063593Y-105269226D01*
X117478709Y-105097703D01*
X117796587Y-104780379D01*
X117968834Y-104365563D01*
X117969226Y-103916407D01*
X117797703Y-103501291D01*
X117480379Y-103183413D01*
X117065563Y-103011166D01*
X116616407Y-103010774D01*
X116201291Y-103182297D01*
X115883413Y-103499621D01*
X115711166Y-103914437D01*
X115710774Y-104363593D01*
X114890574Y-104363593D01*
X115092192Y-104162327D01*
X115234838Y-103818799D01*
X115235162Y-103446833D01*
X115093117Y-103103057D01*
X114830327Y-102839808D01*
X114750341Y-102806595D01*
X114828943Y-102774117D01*
X115092192Y-102511327D01*
X115234838Y-102167799D01*
X115235162Y-101795833D01*
X115093117Y-101452057D01*
X114858470Y-101217000D01*
X117287198Y-101217000D01*
X117809878Y-101739680D01*
X117809838Y-101785167D01*
X117951883Y-102128943D01*
X118214673Y-102392192D01*
X118558201Y-102534838D01*
X118930167Y-102535162D01*
X119273943Y-102393117D01*
X119537192Y-102130327D01*
X119679838Y-101786799D01*
X119680162Y-101414833D01*
X119538117Y-101071057D01*
X119275327Y-100807808D01*
X118931799Y-100665162D01*
X118884923Y-100665121D01*
X118311734Y-100091932D01*
X118493990Y-100016626D01*
X118811511Y-99699659D01*
X118983564Y-99285309D01*
X118983955Y-98836659D01*
X118812626Y-98422010D01*
X118495659Y-98104489D01*
X118349985Y-98044000D01*
X119686000Y-98044000D01*
X119686000Y-108839000D01*
M02*
